%TF.GenerationSoftware,KiCad,Pcbnew,(6.0.7)*%
%TF.CreationDate,2022-10-15T16:11:04-05:00*%
%TF.ProjectId,Hackfest 2022 Badge,4861636b-6665-4737-9420-323032322042,Rev0*%
%TF.SameCoordinates,Original*%
%TF.FileFunction,Profile,NP*%
%FSLAX46Y46*%
G04 Gerber Fmt 4.6, Leading zero omitted, Abs format (unit mm)*
G04 Created by KiCad (PCBNEW (6.0.7)) date 2022-10-15 16:11:04*
%MOMM*%
%LPD*%
G01*
G04 APERTURE LIST*
%TA.AperFunction,Profile*%
%ADD10C,0.100000*%
%TD*%
G04 APERTURE END LIST*
D10*
X119652831Y-54879622D02*
X119164701Y-55167462D01*
X95235524Y-101947191D02*
X95292081Y-102554674D01*
X100325439Y-119898619D02*
X100600103Y-120436516D01*
X122138032Y-53526888D02*
X121635325Y-53785862D01*
X186167383Y-124462146D02*
X186444930Y-124026378D01*
X120638111Y-54321193D02*
X120144003Y-54597550D01*
X156027675Y-49510987D02*
X155437920Y-49374150D01*
X190730381Y-79840488D02*
X190509719Y-79278513D01*
X132709711Y-49599188D02*
X132161230Y-49737681D01*
X130733011Y-145194870D02*
X131314829Y-145359970D01*
X115100548Y-137449203D02*
X115591296Y-137807713D01*
X95084108Y-99504561D02*
X95110686Y-100116806D01*
X116584806Y-138505947D02*
X117087434Y-138845672D01*
X128429816Y-144463827D02*
X129002109Y-144656973D01*
X133260043Y-49466931D02*
X132709711Y-49599188D01*
X185733467Y-70199639D02*
X185393742Y-69697011D01*
X182450256Y-65821531D02*
X182054440Y-65356235D01*
X123663089Y-52785077D02*
X123152179Y-53026482D01*
X178672011Y-61802092D02*
X178224866Y-61381934D01*
X127310895Y-51261370D02*
X126782522Y-51461104D01*
X111783180Y-134764744D02*
X112244030Y-135166645D01*
X134365471Y-49221197D02*
X133811963Y-49340926D01*
X115837464Y-57340984D02*
X115040000Y-57890000D01*
X96728222Y-84882646D02*
X96537984Y-85616864D01*
X159523610Y-50481035D02*
X158946555Y-50301754D01*
X194034758Y-96433281D02*
X194015708Y-95819978D01*
X158946555Y-50301754D02*
X158367118Y-50129484D01*
X124176644Y-52549572D02*
X123663089Y-52785077D01*
X156385920Y-145726153D02*
X156887305Y-145599947D01*
X95634473Y-90077733D02*
X95523848Y-90829149D01*
X187760437Y-121809702D02*
X188009410Y-121358852D01*
X98942332Y-78422323D02*
X98652111Y-79125320D01*
X152460302Y-48797991D02*
X151859699Y-48704551D01*
X171506310Y-56145493D02*
X170995929Y-55818653D01*
X159370946Y-144891129D02*
X159862806Y-144733966D01*
X95196715Y-93852539D02*
X95143939Y-94612421D01*
X109116051Y-132226599D02*
X109548221Y-132663955D01*
X136040811Y-146425446D02*
X136639827Y-146526252D01*
X138846978Y-48491681D02*
X138282093Y-48560485D01*
X121775818Y-141612152D02*
X122313980Y-141886789D01*
X119656720Y-140447457D02*
X120181388Y-140748553D01*
X191327810Y-113851045D02*
X191493174Y-113365535D01*
X107855577Y-130885428D02*
X108269729Y-131337071D01*
X131069296Y-50033281D02*
X130526372Y-50190364D01*
X174968643Y-58611274D02*
X174486308Y-58240170D01*
X95053660Y-98277425D02*
X95065090Y-98891522D01*
X134848070Y-146202138D02*
X135443647Y-146317496D01*
X96537984Y-85616864D02*
X96359020Y-86354257D01*
X179551750Y-62660426D02*
X179114394Y-62228256D01*
X172012722Y-56478761D02*
X171506310Y-56145493D01*
X122855052Y-142154811D02*
X123399564Y-142415955D01*
X191653247Y-112877909D02*
X191808557Y-112388959D01*
X95261128Y-93094509D02*
X95196715Y-93852539D01*
X173999475Y-57875283D02*
X173508938Y-57516668D01*
X189181248Y-119070209D02*
X189400852Y-118605866D01*
X95523848Y-90829149D02*
X95424727Y-91582417D01*
X193507444Y-90352635D02*
X193414047Y-89752032D01*
X194015708Y-95819978D02*
X193988986Y-95207733D01*
X96261945Y-108550125D02*
X96398782Y-109139880D01*
X95073424Y-96135361D02*
X95055750Y-96898418D01*
X161328331Y-144231788D02*
X161813311Y-144054253D01*
X104404463Y-126621143D02*
X104763078Y-127111680D01*
X117719126Y-56065112D02*
X117243697Y-56375653D01*
X193079614Y-107415857D02*
X193178303Y-106911033D01*
X144550064Y-48162047D02*
X143976184Y-48165384D01*
X104763078Y-127111680D02*
X105127965Y-127598513D01*
X157387102Y-145468449D02*
X157885312Y-145331924D01*
X179114394Y-62228256D02*
X178672011Y-61802092D01*
X99052292Y-117161507D02*
X99293486Y-117714750D01*
X99470000Y-76520000D02*
X94416077Y-71395892D01*
X129985300Y-50353612D02*
X129446079Y-50522972D01*
X126782522Y-51461104D02*
X126256531Y-51666843D01*
X109019958Y-53550036D02*
G75*
G03*
X108320000Y-53480000I-386358J-328564D01*
G01*
X136639827Y-146526252D02*
X137240430Y-146619649D01*
X186600021Y-135199955D02*
G75*
G03*
X188790000Y-132925000I697879J1519755D01*
G01*
X97368830Y-112635815D02*
X97555097Y-113210489D01*
X155883213Y-145847332D02*
X156385920Y-145726153D01*
X175447009Y-58988649D02*
X174968643Y-58611274D01*
X118197783Y-55760207D02*
X117719126Y-56065112D01*
X192866360Y-108421537D02*
X192975633Y-107919359D01*
X187248469Y-122703992D02*
X187506967Y-122257905D01*
X193876273Y-101805375D02*
X193916754Y-101289967D01*
X180830479Y-63987389D02*
X180410321Y-63540323D01*
X98155541Y-114919696D02*
X98369483Y-115484051D01*
X189825772Y-117670830D02*
X190030824Y-117200137D01*
X126256531Y-51666843D02*
X125732922Y-51878589D01*
X154846047Y-49244480D02*
X154252059Y-49122002D01*
X145596490Y-147150932D02*
X146118777Y-147137174D01*
X151859699Y-48704551D02*
X151257773Y-48618432D01*
X192103567Y-111406033D02*
X192243531Y-110912322D01*
X95049842Y-97662269D02*
X95053660Y-98277425D01*
X181900065Y-133499932D02*
G75*
G03*
X181550000Y-133900000I-184365J-191868D01*
G01*
X97017279Y-111479323D02*
X97189549Y-112058760D01*
X153656747Y-49006744D02*
X153059318Y-48898734D01*
X194025233Y-99220663D02*
X194038992Y-98701816D01*
X125050827Y-143159698D02*
X125607245Y-143394118D01*
X160841498Y-144404296D02*
X161328331Y-144231788D01*
X193593169Y-104370507D02*
X193660373Y-103859333D01*
X95786529Y-106171523D02*
X95894539Y-106768952D01*
X117593872Y-139178782D02*
X118104094Y-139505806D01*
X123152179Y-53026482D02*
X122643650Y-53273762D01*
X188726959Y-119992546D02*
X188956352Y-119532436D01*
X98104609Y-80543220D02*
X97847408Y-81257859D01*
X191151333Y-80972109D02*
X190944429Y-80405108D01*
X192243531Y-110912322D02*
X192378469Y-110417022D01*
X102706448Y-124108134D02*
X103033288Y-124618515D01*
X95292081Y-102554674D02*
X95356068Y-103161098D01*
X100057417Y-119357282D02*
X100325439Y-119898619D01*
X100600103Y-120436516D02*
X100881355Y-120971503D01*
X141484341Y-147067059D02*
X142095528Y-147101191D01*
X185047932Y-69198272D02*
X184695508Y-68703501D01*
X190030824Y-117200137D02*
X190231113Y-116727327D01*
X157785564Y-49964225D02*
X157201630Y-49806055D01*
X97601266Y-81976202D02*
X97366264Y-82697984D01*
X158877234Y-145043264D02*
X159370946Y-144891129D01*
X174486308Y-58240170D02*
X173999475Y-57875283D01*
X103706175Y-125627634D02*
X104052144Y-126126373D01*
X161813311Y-144054253D02*
X162296175Y-143871426D01*
X98590278Y-116046025D02*
X98817872Y-116605089D01*
X167324311Y-53712308D02*
X166786414Y-53437644D01*
X95894539Y-106768952D02*
X96009797Y-107364264D01*
X125211693Y-52096314D02*
X124692846Y-52319966D01*
X162371846Y-51481688D02*
X161807491Y-51267746D01*
X121635325Y-53785862D02*
X121135263Y-54050630D01*
X149239004Y-146939530D02*
X149756264Y-146887672D01*
X191493174Y-113365535D02*
X191653247Y-112877909D01*
X192557062Y-85596756D02*
X192405985Y-85010704D01*
X139051236Y-146855922D02*
X139657660Y-146919951D01*
X192752325Y-108922393D02*
X192866360Y-108421537D01*
X135443647Y-146317496D02*
X136040811Y-146425446D01*
X96191364Y-87094031D02*
X96035049Y-87836451D01*
X137240430Y-146619649D02*
X137842621Y-146705639D01*
X108269729Y-131337071D02*
X108689887Y-131784216D01*
X190231113Y-116727327D02*
X190426375Y-116252665D01*
X188218695Y-74353301D02*
X187930829Y-73821754D01*
X192378469Y-110417022D02*
X192508114Y-109920135D01*
X193743717Y-92163441D02*
X193672280Y-91558340D01*
X176390776Y-59761892D02*
X175921142Y-59372188D01*
X120181388Y-140748553D02*
X120709549Y-141043034D01*
X151257773Y-48618432D02*
X150653994Y-48539665D01*
X119164701Y-55167462D02*
X118679668Y-55460990D01*
X133811963Y-49340926D02*
X133260043Y-49466931D01*
X192632733Y-109421926D02*
X192752325Y-108922393D01*
X131614337Y-49882390D02*
X131069296Y-50033281D01*
X165153672Y-142670219D02*
X165622513Y-142452732D01*
X162777452Y-143683837D02*
X163256612Y-143491220D01*
X162933820Y-51702483D02*
X162371846Y-51481688D01*
X132484551Y-145669267D02*
X133072454Y-145813200D01*
X188253355Y-120905886D02*
X188492538Y-120450274D01*
X147161763Y-147093253D02*
X147682198Y-147062826D01*
X184695508Y-68703501D02*
X184336998Y-68212753D01*
X116086067Y-138160137D02*
X116584806Y-138505947D01*
X190801819Y-115297520D02*
X190982264Y-114817302D01*
X189806457Y-77609789D02*
X189558543Y-77059191D01*
X184167099Y-147014301D02*
G75*
G03*
X187300000Y-144100000I1014501J2050501D01*
G01*
X181550000Y-133900000D02*
X187300000Y-144100000D01*
X124497584Y-142918662D02*
X125050827Y-143159698D01*
X107045557Y-129968383D02*
X107447537Y-130429022D01*
X142095528Y-147101191D02*
X142707773Y-147127913D01*
X193830236Y-102320253D02*
X193876273Y-101805375D01*
X95506227Y-104369978D02*
X95592346Y-104971904D01*
X96359020Y-86354257D02*
X96191364Y-87094031D01*
X189042606Y-75967257D02*
X188774584Y-75426185D01*
X95890108Y-88581252D02*
X95756570Y-89328434D01*
X95055750Y-96898418D02*
X95049842Y-97662269D01*
X192082665Y-83845216D02*
X191910421Y-83266044D01*
X191351622Y-81542021D02*
X191151333Y-80972109D01*
X122643650Y-53273762D02*
X122138032Y-53526888D01*
X128374254Y-50880026D02*
X127841383Y-51067669D01*
X193778907Y-102834073D02*
X193830236Y-102320253D01*
X129446079Y-50522972D02*
X128909240Y-50698443D01*
X101463649Y-122030893D02*
X101764612Y-122555561D01*
X190616611Y-115776151D02*
X190801819Y-115297520D01*
X182839987Y-66291219D02*
X182450256Y-65821531D01*
X193981842Y-100256506D02*
X194006448Y-99738981D01*
X96035049Y-87836451D02*
X95890108Y-88581252D01*
X102386038Y-123594314D02*
X102706448Y-124108134D01*
X164209111Y-143090641D02*
X164682450Y-142882944D01*
X152839979Y-146463016D02*
X153350360Y-146373587D01*
X147682198Y-147062826D02*
X148201839Y-147027107D01*
X131898499Y-145518190D02*
X132484551Y-145669267D01*
X111326880Y-134356757D02*
X111783180Y-134764744D01*
X96132275Y-107958252D02*
X96261945Y-108550125D01*
X166553845Y-142002676D02*
X167016072Y-141770108D01*
X106259983Y-129033347D02*
X106649687Y-129502981D01*
X166089237Y-142229953D02*
X166553845Y-142002676D01*
X191544768Y-82114314D02*
X191351622Y-81542021D01*
X100529958Y-65210036D02*
G75*
G03*
X99830000Y-65140000I-386358J-328564D01*
G01*
X192967431Y-87366551D02*
X192837785Y-86774679D01*
X132161230Y-49737681D02*
X131614337Y-49882390D01*
X120709549Y-141043034D02*
X121241096Y-141330900D01*
X194046135Y-97047379D02*
X194034758Y-96433281D01*
X96398782Y-109139880D02*
X96542757Y-109728048D01*
X95102830Y-95373362D02*
X95073424Y-96135361D01*
X102072084Y-123076790D02*
X102386038Y-123594314D01*
X141687276Y-48244904D02*
X141117100Y-48281226D01*
X129002109Y-144656973D02*
X129576783Y-144843239D01*
X190281913Y-78719450D02*
X190047493Y-78163032D01*
X140874213Y-147025520D02*
X141484341Y-147067059D01*
X157201630Y-49806055D02*
X156615843Y-49654962D01*
X137156293Y-48717383D02*
X136595377Y-48805434D01*
X95756570Y-89328434D02*
X95634473Y-90077733D01*
X149756264Y-146887672D02*
X150272730Y-146830258D01*
X186393601Y-71216299D02*
X186066577Y-70706077D01*
X167476181Y-141532777D02*
X169832900Y-140185700D01*
X193520674Y-104880887D02*
X193593169Y-104370507D01*
X125732922Y-51878589D02*
X125211693Y-52096314D01*
X118104094Y-139505806D02*
X118618020Y-139826216D01*
X191958576Y-111898158D02*
X192103567Y-111406033D01*
X103880042Y-68489964D02*
G75*
G03*
X104580000Y-68560000I386358J328564D01*
G01*
X96693850Y-110313835D02*
X96852020Y-110897769D01*
X145779317Y-48177295D02*
X145165220Y-48165865D01*
X153859417Y-146278867D02*
X154367417Y-146178854D01*
X193313241Y-89153016D02*
X193205291Y-88555852D01*
X97847408Y-81257859D02*
X97601266Y-81976202D01*
X162296175Y-143871426D02*
X162777452Y-143683837D01*
X183223632Y-66765246D02*
X182839987Y-66291219D01*
X95186420Y-101338121D02*
X95235524Y-101947191D01*
X127859904Y-144263538D02*
X128429816Y-144463827D01*
X147615788Y-48257003D02*
X147004601Y-48222891D01*
X163492884Y-51930077D02*
X162933820Y-51702483D01*
X99420000Y-77300000D02*
X98942332Y-78422323D01*
X163256612Y-143491220D02*
X163733919Y-143293312D01*
X95065090Y-98891522D02*
X95084108Y-99504561D01*
X112244030Y-135166645D02*
X112709326Y-135562461D01*
X183972138Y-67726079D02*
X183600928Y-67243559D01*
X166786414Y-53437644D02*
X166245077Y-53169622D01*
X188009410Y-121358852D02*
X188253355Y-120905886D01*
X97142400Y-83422942D02*
X96929702Y-84151339D01*
X103366556Y-125124927D02*
X103706175Y-125627634D01*
X107447537Y-130429022D02*
X107855577Y-130885428D01*
X127841383Y-51067669D02*
X127310895Y-51261370D01*
X154367417Y-146178854D02*
X154874093Y-146073550D01*
X126728283Y-143842586D02*
X127292903Y-144056634D01*
X193864367Y-93377612D02*
X193807746Y-92769865D01*
X185393742Y-69697011D02*
X185047932Y-69198272D01*
X194038992Y-98701816D02*
X194047194Y-98182175D01*
X184336998Y-68212753D02*
X183972138Y-67726079D01*
X143976184Y-48165384D02*
X143402833Y-48175358D01*
X180410321Y-63540323D02*
X179984078Y-63097993D01*
X192975633Y-107919359D02*
X193079614Y-107415857D01*
X149442469Y-48404286D02*
X148834986Y-48347729D01*
X99419998Y-77299998D02*
G75*
G03*
X99470000Y-76520000I-410198J417898D01*
G01*
X114613874Y-137084343D02*
X115100548Y-137449203D01*
X95685786Y-105572507D02*
X95786529Y-106171523D01*
X105127965Y-127598513D02*
X105499069Y-128080848D01*
X101169221Y-121502785D02*
X101463649Y-122030893D01*
X189558543Y-77059191D02*
X189303750Y-76511769D01*
X109020000Y-53550000D02*
X114220000Y-58540000D01*
X156615843Y-49654962D02*
X156027675Y-49510987D01*
X194047194Y-98182175D02*
X194049840Y-97662269D01*
X107940000Y-64670000D02*
X102780000Y-58720000D01*
X143402833Y-48175358D02*
X142830010Y-48191950D01*
X95144798Y-100727993D02*
X95186420Y-101338121D01*
X194006448Y-99738981D02*
X194025233Y-99220663D01*
X128909240Y-50698443D02*
X128374254Y-50880026D01*
X154874093Y-146073550D02*
X155379447Y-145962954D01*
X159862806Y-144733966D02*
X160353078Y-144571777D01*
X181900000Y-133500000D02*
X186600000Y-135200000D01*
X105876444Y-128559214D02*
X106259983Y-129033347D01*
X193178303Y-106911033D02*
X193271701Y-106405150D01*
X191731034Y-82688988D02*
X191544768Y-82114314D01*
X127292903Y-144056634D02*
X127859904Y-144263538D01*
X102850036Y-58020042D02*
G75*
G03*
X102780000Y-58720000I328564J-386358D01*
G01*
X167016072Y-141770108D02*
X167476181Y-141532777D01*
X192837785Y-86774679D02*
X192700995Y-86184659D01*
X146392356Y-48196313D02*
X145779317Y-48177295D01*
X190047493Y-78163032D02*
X189806457Y-77609789D01*
X114220000Y-58540000D02*
X115040000Y-57890000D01*
X144550064Y-48162047D02*
X144550064Y-48162047D01*
X191910421Y-83266044D02*
X191731034Y-82688988D01*
X193916754Y-101289967D02*
X193951944Y-100773501D01*
X193360072Y-105898209D02*
X193442886Y-105389945D01*
X104052144Y-126126373D02*
X104404463Y-126621143D01*
X167859298Y-53993560D02*
X167324311Y-53712308D01*
X145073674Y-147159399D02*
X145596490Y-147150932D01*
X120144003Y-54597550D02*
X119652831Y-54879622D01*
X187506967Y-122257905D02*
X187760437Y-121809702D01*
X192405985Y-85010704D02*
X192247765Y-84427034D01*
X97555097Y-113210489D02*
X97748322Y-113782783D01*
X142258247Y-48215138D02*
X141687276Y-48244904D01*
X97748322Y-113782783D02*
X97948479Y-114352430D01*
X151302752Y-146699289D02*
X151816307Y-146625999D01*
X193951944Y-100773501D02*
X193981842Y-100256506D01*
X146118777Y-147137174D02*
X146640535Y-147117859D01*
X187930829Y-73821754D02*
X187636348Y-73293593D01*
X169443356Y-54876817D02*
X168918688Y-54575854D01*
X95427460Y-103766199D02*
X95506227Y-104369978D01*
X114131354Y-136713133D02*
X114613874Y-137084343D01*
X97948479Y-114352430D02*
X98155541Y-114919696D01*
X192508114Y-109920135D02*
X192632733Y-109421926D01*
X118679668Y-55460990D02*
X118197783Y-55760207D01*
X99293486Y-117714750D02*
X99541427Y-118265348D01*
X121135263Y-54050630D02*
X120638111Y-54321193D01*
X151816307Y-146625999D02*
X152328805Y-146547154D01*
X160098284Y-50667302D02*
X159523610Y-50481035D01*
X172515429Y-56818380D02*
X172012722Y-56478761D01*
X189615958Y-118139406D02*
X189825772Y-117670830D01*
X95110686Y-100116806D02*
X95144798Y-100727993D01*
X187636348Y-73293593D02*
X187335252Y-72768925D01*
X194049840Y-97662269D02*
X194046135Y-97047379D01*
X143935174Y-147158340D02*
X144550064Y-147162045D01*
X153350360Y-146373587D02*
X153859417Y-146278867D01*
X164049302Y-52164497D02*
X163492884Y-51930077D01*
X155379447Y-145962954D02*
X155883213Y-145847332D01*
X142830010Y-48191950D02*
X142258247Y-48215138D01*
X143321076Y-147146963D02*
X143935174Y-147158340D01*
X193988986Y-95207733D02*
X193954854Y-94596546D01*
X190944429Y-80405108D02*
X190730381Y-79840488D01*
X126166308Y-143621924D02*
X126728283Y-143842586D01*
X95143939Y-94612421D02*
X95102830Y-95373362D01*
X116771575Y-56691830D02*
X116302813Y-57013616D01*
X124692846Y-52319966D02*
X124176644Y-52549572D01*
X188499947Y-74888023D02*
X188218695Y-74353301D01*
X193660373Y-103859333D02*
X193722286Y-103347364D01*
X193722286Y-103347364D02*
X193778907Y-102834073D01*
X190426375Y-116252665D02*
X190616611Y-115776151D01*
X102850000Y-58020000D02*
X108320000Y-53480000D01*
X161807491Y-51267746D02*
X161240225Y-51060684D01*
X139657660Y-146919951D02*
X140265407Y-146976572D01*
X139412921Y-48429334D02*
X138846978Y-48491681D01*
X96929702Y-84151339D02*
X96728222Y-84882646D01*
X164602545Y-52405691D02*
X164049302Y-52164497D01*
X99796062Y-118812770D02*
X100057417Y-119357282D01*
X193442886Y-105389945D02*
X193520674Y-104880887D01*
X164682450Y-142882944D02*
X165153672Y-142670219D01*
X94346045Y-70695867D02*
G75*
G03*
X94416077Y-71395892I398655J-313633D01*
G01*
X96542757Y-109728048D02*
X96693850Y-110313835D01*
X95356068Y-103161098D02*
X95427460Y-103766199D01*
X117087434Y-138845672D02*
X117593872Y-139178782D01*
X98652111Y-79125320D02*
X98372843Y-79832550D01*
X138446135Y-146784485D02*
X139051236Y-146855922D01*
X192247765Y-84427034D02*
X192082665Y-83845216D01*
X98817872Y-116605089D02*
X99052292Y-117161507D01*
X179984078Y-63097993D02*
X179551750Y-62660426D01*
X193205291Y-88555852D02*
X193089933Y-87960275D01*
X95337142Y-92337537D02*
X95261128Y-93094509D01*
X173014168Y-57164349D02*
X172515429Y-56818380D01*
X186717451Y-123588228D02*
X186985474Y-123147169D01*
X160670578Y-50860527D02*
X160098284Y-50667302D01*
X193089933Y-87960275D02*
X192967431Y-87366551D01*
X113653041Y-136335837D02*
X114131354Y-136713133D01*
X107869964Y-65369958D02*
G75*
G03*
X107940000Y-64670000I-328564J386358D01*
G01*
X129576783Y-144843239D02*
X130153839Y-145022626D01*
X144550064Y-48162047D02*
X144550064Y-48162047D01*
X193271701Y-106405150D02*
X193360072Y-105898209D01*
X137718531Y-48635725D02*
X137156293Y-48717383D01*
X163733919Y-143293312D02*
X164209111Y-143090641D01*
X96009797Y-107364264D02*
X96132275Y-107958252D01*
X101764612Y-122555561D02*
X102072084Y-123076790D01*
X133662474Y-145949990D02*
X134254346Y-146079636D01*
X170482109Y-55498243D02*
X169964585Y-55184289D01*
X158382199Y-145190108D02*
X158877234Y-145043264D01*
X138282093Y-48560485D02*
X137718531Y-48635725D01*
X193807746Y-92769865D02*
X193743717Y-92163441D01*
X188492538Y-120450274D02*
X188726959Y-119992546D01*
X97189549Y-112058760D02*
X97368830Y-112635815D01*
X140547982Y-48324086D02*
X139979922Y-48373462D01*
X186714011Y-71730225D02*
X186393601Y-71216299D01*
X104580000Y-68560000D02*
X107870000Y-65370000D01*
X188774584Y-75426185D02*
X188499947Y-74888023D01*
X191157418Y-114334967D02*
X191327810Y-113851045D01*
X189400852Y-118605866D02*
X189615958Y-118139406D01*
X182054440Y-65356235D02*
X181652539Y-64895385D01*
X170995929Y-55818653D02*
X170482109Y-55498243D01*
X189303750Y-76511769D02*
X189042606Y-75967257D01*
X113179014Y-135952192D02*
X113653041Y-136335837D01*
X123399564Y-142415955D02*
X123946986Y-142670748D01*
X98372843Y-79832550D02*
X98104609Y-80543220D01*
X175921142Y-59372188D02*
X175447009Y-58988649D01*
X145165220Y-48165865D02*
X144550064Y-48162047D01*
X110875184Y-133942684D02*
X111326880Y-134356757D01*
X169964585Y-55184289D02*
X169443356Y-54876817D01*
X157885312Y-145331924D02*
X158382199Y-145190108D01*
X168918688Y-54575854D02*
X168390580Y-54281426D01*
X109985788Y-133096283D02*
X110428118Y-133522526D01*
X105499069Y-128080848D02*
X105876444Y-128559214D01*
X148225916Y-48298625D02*
X147615788Y-48257003D01*
X156887305Y-145599947D02*
X157387102Y-145468449D01*
X188790000Y-132925000D02*
X186167383Y-124462146D01*
X153059318Y-48898734D02*
X152460302Y-48797991D01*
X193672280Y-91558340D02*
X193593434Y-90954826D01*
X158367118Y-50129484D02*
X157785564Y-49964225D01*
X193913315Y-93986418D02*
X193864367Y-93377612D01*
X109548221Y-132663955D02*
X109985788Y-133096283D01*
X134254346Y-146079636D02*
X134848070Y-146202138D01*
X160353078Y-144571777D02*
X160841498Y-144404296D01*
X136035784Y-48899861D02*
X135477513Y-49000646D01*
X144550064Y-147162045D02*
X145073674Y-147159399D01*
X134920831Y-49107762D02*
X134365471Y-49221197D01*
X140265407Y-146976572D02*
X140874213Y-147025520D01*
X148834986Y-48347729D02*
X148225916Y-48298625D01*
X148720951Y-146986097D02*
X149239004Y-146939530D01*
X121241096Y-141330900D02*
X121775818Y-141612152D01*
X119135597Y-140140012D02*
X119656720Y-140447457D01*
X110428118Y-133522526D02*
X110875184Y-133942684D01*
X161240225Y-51060684D02*
X160670578Y-50860527D01*
X98369483Y-115484051D02*
X98590278Y-116046025D01*
X136595377Y-48805434D02*
X136035784Y-48899861D01*
X176856178Y-60157762D02*
X176390776Y-59761892D01*
X183600928Y-67243559D02*
X183223632Y-66765246D01*
X188956352Y-119532436D02*
X189181248Y-119070209D01*
X187027807Y-72247802D02*
X186714011Y-71730225D01*
X154252059Y-49122002D02*
X153656747Y-49006744D01*
X116302813Y-57013616D02*
X115837464Y-57340984D01*
X139979922Y-48373462D02*
X139412921Y-48429334D01*
X150653994Y-48539665D02*
X150048893Y-48468273D01*
X155437920Y-49374150D02*
X154846047Y-49244480D01*
X186444930Y-124026378D02*
X186717451Y-123588228D01*
X125607245Y-143394118D02*
X126166308Y-143621924D01*
X192700995Y-86184659D02*
X192557062Y-85596756D01*
X135477513Y-49000646D02*
X134920831Y-49107762D01*
X150788138Y-146767551D02*
X151302752Y-146699289D01*
X100530000Y-65210000D02*
X103880000Y-68490000D01*
X169832900Y-140185700D02*
X184167100Y-147014300D01*
X187335252Y-72768925D02*
X187027807Y-72247802D01*
X142707773Y-147127913D02*
X143321076Y-147146963D01*
X173508938Y-57516668D02*
X173014168Y-57164349D01*
X106649687Y-129502981D02*
X107045557Y-129968383D01*
X118618020Y-139826216D02*
X119135597Y-140140012D01*
X177773223Y-60967782D02*
X177316817Y-60559742D01*
X133072454Y-145813200D02*
X133662474Y-145949990D01*
X168390580Y-54281426D02*
X167859298Y-53993560D01*
X165153143Y-52653632D02*
X164602545Y-52405691D01*
X190982264Y-114817302D02*
X191157418Y-114334967D01*
X147004601Y-48222891D02*
X146392356Y-48196313D01*
X97366264Y-82697984D02*
X97142400Y-83422942D01*
X131314829Y-145359970D02*
X131898499Y-145518190D01*
X193954854Y-94596546D02*
X193913315Y-93986418D01*
X181244552Y-64439085D02*
X180830479Y-63987389D01*
X150272730Y-146830258D02*
X150788138Y-146767551D01*
X146640535Y-147117859D02*
X147161763Y-147093253D01*
X130153839Y-145022626D02*
X130733011Y-145194870D01*
X166245077Y-53169622D02*
X165700565Y-52908267D01*
X186066577Y-70706077D02*
X185733467Y-70199639D01*
X190509719Y-79278513D02*
X190281913Y-78719450D01*
X193593434Y-90954826D02*
X193507444Y-90352635D01*
X193414047Y-89752032D02*
X193313241Y-89153016D01*
X117243697Y-56375653D02*
X116771575Y-56691830D01*
X152328805Y-146547154D02*
X152839979Y-146463016D01*
X178224866Y-61381934D02*
X177773223Y-60967782D01*
X186985474Y-123147169D02*
X187248469Y-122703992D01*
X94346077Y-70695892D02*
X99830000Y-65140000D01*
X112709326Y-135562461D02*
X113179014Y-135952192D01*
X148201839Y-147027107D02*
X148720951Y-146986097D01*
X96852020Y-110897769D02*
X97017279Y-111479323D01*
X191808557Y-112388959D02*
X191958576Y-111898158D01*
X95592346Y-104971904D02*
X95685786Y-105572507D01*
X122313980Y-141886789D02*
X122855052Y-142154811D01*
X141117100Y-48281226D02*
X140547982Y-48324086D01*
X123946986Y-142670748D02*
X124497584Y-142918662D01*
X103033288Y-124618515D02*
X103366556Y-125124927D01*
X99541427Y-118265348D02*
X99796062Y-118812770D01*
X100881355Y-120971503D02*
X101169221Y-121502785D01*
X165622513Y-142452732D02*
X166089237Y-142229953D01*
X177316817Y-60559742D02*
X176856178Y-60157762D01*
X137842621Y-146705639D02*
X138446135Y-146784485D01*
X181652539Y-64895385D02*
X181244552Y-64439085D01*
X130526372Y-50190364D02*
X129985300Y-50353612D01*
X115591296Y-137807713D02*
X116086067Y-138160137D01*
X108689887Y-131784216D02*
X109116051Y-132226599D01*
X95424727Y-91582417D02*
X95337142Y-92337537D01*
X150048893Y-48468273D02*
X149442469Y-48404286D01*
X165700565Y-52908267D02*
X165153143Y-52653632D01*
M02*
