%TF.GenerationSoftware,KiCad,Pcbnew,(6.0.7)*%
%TF.CreationDate,2022-10-15T16:11:04-05:00*%
%TF.ProjectId,Hackfest 2022 Badge,4861636b-6665-4737-9420-323032322042,Rev0*%
%TF.SameCoordinates,Original*%
%TF.FileFunction,Copper,L1,Top*%
%TF.FilePolarity,Positive*%
%FSLAX46Y46*%
G04 Gerber Fmt 4.6, Leading zero omitted, Abs format (unit mm)*
G04 Created by KiCad (PCBNEW (6.0.7)) date 2022-10-15 16:11:04*
%MOMM*%
%LPD*%
G01*
G04 APERTURE LIST*
%TA.AperFunction,EtchedComponent*%
%ADD10C,0.010000*%
%TD*%
%TA.AperFunction,ComponentPad*%
%ADD11C,6.000000*%
%TD*%
%TA.AperFunction,ComponentPad*%
%ADD12O,1.727200X1.727200*%
%TD*%
%TA.AperFunction,ComponentPad*%
%ADD13R,1.727200X1.727200*%
%TD*%
%TA.AperFunction,ComponentPad*%
%ADD14C,1.727200*%
%TD*%
%TA.AperFunction,ViaPad*%
%ADD15C,0.600000*%
%TD*%
%TA.AperFunction,Conductor*%
%ADD16C,0.200000*%
%TD*%
%TA.AperFunction,Conductor*%
%ADD17C,0.250000*%
%TD*%
G04 APERTURE END LIST*
%TO.C,G\u002A\u002A\u002A*%
G36*
X160050540Y-129407300D02*
G01*
X160211969Y-129435353D01*
X160352269Y-129493064D01*
X160474502Y-129582806D01*
X160581731Y-129706949D01*
X160677018Y-129867865D01*
X160763426Y-130067923D01*
X160780911Y-130115634D01*
X160821553Y-130270360D01*
X160836336Y-130426706D01*
X160824682Y-130571655D01*
X160804516Y-130648436D01*
X160733643Y-130789119D01*
X160622646Y-130925812D01*
X160473692Y-131056366D01*
X160288950Y-131178633D01*
X160243460Y-131204348D01*
X160194045Y-131228548D01*
X160110225Y-131266163D01*
X159996984Y-131315096D01*
X159859304Y-131373252D01*
X159702170Y-131438533D01*
X159530565Y-131508842D01*
X159349471Y-131582083D01*
X159269793Y-131614009D01*
X159046729Y-131703557D01*
X158860062Y-131779689D01*
X158706631Y-131844067D01*
X158583274Y-131898353D01*
X158486831Y-131944209D01*
X158414142Y-131983297D01*
X158362046Y-132017279D01*
X158327381Y-132047818D01*
X158306988Y-132076575D01*
X158297706Y-132105212D01*
X158296126Y-132126025D01*
X158303722Y-132154150D01*
X158324399Y-132213344D01*
X158354996Y-132295608D01*
X158392349Y-132392941D01*
X158433295Y-132497345D01*
X158474670Y-132600819D01*
X158513313Y-132695364D01*
X158546060Y-132772979D01*
X158569747Y-132825664D01*
X158580317Y-132844789D01*
X158600250Y-132837944D01*
X158656344Y-132816494D01*
X158745499Y-132781670D01*
X158864615Y-132734703D01*
X159010594Y-132676824D01*
X159180336Y-132609264D01*
X159370741Y-132533254D01*
X159578710Y-132450026D01*
X159801145Y-132360811D01*
X160009673Y-132277006D01*
X160242672Y-132183605D01*
X160464258Y-132095407D01*
X160671306Y-132013619D01*
X160860684Y-131939446D01*
X161029265Y-131874095D01*
X161173920Y-131818772D01*
X161291521Y-131774683D01*
X161378938Y-131743035D01*
X161433042Y-131725034D01*
X161450642Y-131721465D01*
X161469813Y-131752880D01*
X161497896Y-131812618D01*
X161531614Y-131892052D01*
X161567685Y-131982557D01*
X161602831Y-132075506D01*
X161633772Y-132162272D01*
X161657230Y-132234230D01*
X161669923Y-132282754D01*
X161670153Y-132298876D01*
X161648985Y-132308517D01*
X161591851Y-132332582D01*
X161502071Y-132369730D01*
X161382967Y-132418618D01*
X161237861Y-132477905D01*
X161070074Y-132546248D01*
X160882926Y-132622305D01*
X160679740Y-132704733D01*
X160463835Y-132792191D01*
X160238535Y-132883336D01*
X160007159Y-132976827D01*
X159773029Y-133071320D01*
X159539466Y-133165475D01*
X159309792Y-133257947D01*
X159087328Y-133347397D01*
X158875395Y-133432480D01*
X158677314Y-133511855D01*
X158496406Y-133584181D01*
X158335993Y-133648114D01*
X158199396Y-133702312D01*
X158114587Y-133735761D01*
X158007132Y-133777987D01*
X157723004Y-133097984D01*
X157647215Y-132916312D01*
X157586193Y-132768811D01*
X157538283Y-132650631D01*
X157501832Y-132556923D01*
X157475187Y-132482839D01*
X157456695Y-132423528D01*
X157444702Y-132374143D01*
X157437554Y-132329835D01*
X157433599Y-132285753D01*
X157431427Y-132242837D01*
X157429164Y-132150282D01*
X157433807Y-132083155D01*
X157448354Y-132024727D01*
X157475807Y-131958275D01*
X157486639Y-131935054D01*
X157576243Y-131789423D01*
X157703432Y-131653905D01*
X157851626Y-131538728D01*
X157895882Y-131508915D01*
X157938389Y-131481823D01*
X157983138Y-131455661D01*
X158034120Y-131428638D01*
X158095326Y-131398964D01*
X158170748Y-131364848D01*
X158264377Y-131324499D01*
X158380203Y-131276128D01*
X158522219Y-131217943D01*
X158694416Y-131148153D01*
X158900784Y-131064969D01*
X158967192Y-131038246D01*
X159145974Y-130965736D01*
X159314712Y-130896191D01*
X159468850Y-130831569D01*
X159603828Y-130773831D01*
X159715090Y-130724936D01*
X159798076Y-130686844D01*
X159848229Y-130661514D01*
X159858616Y-130654996D01*
X159920038Y-130601845D01*
X159952424Y-130550584D01*
X159957841Y-130490496D01*
X159938355Y-130410863D01*
X159916901Y-130352629D01*
X159873541Y-130248768D01*
X159835810Y-130179031D01*
X159797366Y-130136936D01*
X159751864Y-130116000D01*
X159692961Y-130109744D01*
X159679121Y-130109683D01*
X159651239Y-130112319D01*
X159612254Y-130120667D01*
X159559300Y-130135791D01*
X159489509Y-130158758D01*
X159400014Y-130190635D01*
X159287948Y-130232488D01*
X159150442Y-130285384D01*
X158984631Y-130350388D01*
X158787647Y-130428567D01*
X158556621Y-130520987D01*
X158351655Y-130603362D01*
X158135909Y-130689823D01*
X157931754Y-130770912D01*
X157742569Y-130845333D01*
X157571736Y-130911791D01*
X157422636Y-130968992D01*
X157298647Y-131015639D01*
X157203153Y-131050439D01*
X157139532Y-131072096D01*
X157111165Y-131079314D01*
X157110090Y-131079010D01*
X157093821Y-131051081D01*
X157067428Y-130994282D01*
X157034308Y-130917186D01*
X156997859Y-130828364D01*
X156961478Y-130736391D01*
X156928561Y-130649838D01*
X156902506Y-130577277D01*
X156886708Y-130527283D01*
X156884086Y-130508649D01*
X156907128Y-130497191D01*
X156965586Y-130471880D01*
X157055461Y-130434308D01*
X157172755Y-130386067D01*
X157313469Y-130328750D01*
X157473604Y-130263950D01*
X157649161Y-130193259D01*
X157836141Y-130118270D01*
X158030546Y-130040573D01*
X158228377Y-129961764D01*
X158425634Y-129883432D01*
X158618320Y-129807172D01*
X158802435Y-129734575D01*
X158973980Y-129667234D01*
X159128957Y-129606741D01*
X159263367Y-129554689D01*
X159373211Y-129512670D01*
X159454491Y-129482277D01*
X159503207Y-129465101D01*
X159509431Y-129463174D01*
X159603289Y-129441224D01*
X159718527Y-129421975D01*
X159834199Y-129408766D01*
X159864919Y-129406537D01*
X160050540Y-129407300D01*
G37*
D10*
X160050540Y-129407300D02*
X160211969Y-129435353D01*
X160352269Y-129493064D01*
X160474502Y-129582806D01*
X160581731Y-129706949D01*
X160677018Y-129867865D01*
X160763426Y-130067923D01*
X160780911Y-130115634D01*
X160821553Y-130270360D01*
X160836336Y-130426706D01*
X160824682Y-130571655D01*
X160804516Y-130648436D01*
X160733643Y-130789119D01*
X160622646Y-130925812D01*
X160473692Y-131056366D01*
X160288950Y-131178633D01*
X160243460Y-131204348D01*
X160194045Y-131228548D01*
X160110225Y-131266163D01*
X159996984Y-131315096D01*
X159859304Y-131373252D01*
X159702170Y-131438533D01*
X159530565Y-131508842D01*
X159349471Y-131582083D01*
X159269793Y-131614009D01*
X159046729Y-131703557D01*
X158860062Y-131779689D01*
X158706631Y-131844067D01*
X158583274Y-131898353D01*
X158486831Y-131944209D01*
X158414142Y-131983297D01*
X158362046Y-132017279D01*
X158327381Y-132047818D01*
X158306988Y-132076575D01*
X158297706Y-132105212D01*
X158296126Y-132126025D01*
X158303722Y-132154150D01*
X158324399Y-132213344D01*
X158354996Y-132295608D01*
X158392349Y-132392941D01*
X158433295Y-132497345D01*
X158474670Y-132600819D01*
X158513313Y-132695364D01*
X158546060Y-132772979D01*
X158569747Y-132825664D01*
X158580317Y-132844789D01*
X158600250Y-132837944D01*
X158656344Y-132816494D01*
X158745499Y-132781670D01*
X158864615Y-132734703D01*
X159010594Y-132676824D01*
X159180336Y-132609264D01*
X159370741Y-132533254D01*
X159578710Y-132450026D01*
X159801145Y-132360811D01*
X160009673Y-132277006D01*
X160242672Y-132183605D01*
X160464258Y-132095407D01*
X160671306Y-132013619D01*
X160860684Y-131939446D01*
X161029265Y-131874095D01*
X161173920Y-131818772D01*
X161291521Y-131774683D01*
X161378938Y-131743035D01*
X161433042Y-131725034D01*
X161450642Y-131721465D01*
X161469813Y-131752880D01*
X161497896Y-131812618D01*
X161531614Y-131892052D01*
X161567685Y-131982557D01*
X161602831Y-132075506D01*
X161633772Y-132162272D01*
X161657230Y-132234230D01*
X161669923Y-132282754D01*
X161670153Y-132298876D01*
X161648985Y-132308517D01*
X161591851Y-132332582D01*
X161502071Y-132369730D01*
X161382967Y-132418618D01*
X161237861Y-132477905D01*
X161070074Y-132546248D01*
X160882926Y-132622305D01*
X160679740Y-132704733D01*
X160463835Y-132792191D01*
X160238535Y-132883336D01*
X160007159Y-132976827D01*
X159773029Y-133071320D01*
X159539466Y-133165475D01*
X159309792Y-133257947D01*
X159087328Y-133347397D01*
X158875395Y-133432480D01*
X158677314Y-133511855D01*
X158496406Y-133584181D01*
X158335993Y-133648114D01*
X158199396Y-133702312D01*
X158114587Y-133735761D01*
X158007132Y-133777987D01*
X157723004Y-133097984D01*
X157647215Y-132916312D01*
X157586193Y-132768811D01*
X157538283Y-132650631D01*
X157501832Y-132556923D01*
X157475187Y-132482839D01*
X157456695Y-132423528D01*
X157444702Y-132374143D01*
X157437554Y-132329835D01*
X157433599Y-132285753D01*
X157431427Y-132242837D01*
X157429164Y-132150282D01*
X157433807Y-132083155D01*
X157448354Y-132024727D01*
X157475807Y-131958275D01*
X157486639Y-131935054D01*
X157576243Y-131789423D01*
X157703432Y-131653905D01*
X157851626Y-131538728D01*
X157895882Y-131508915D01*
X157938389Y-131481823D01*
X157983138Y-131455661D01*
X158034120Y-131428638D01*
X158095326Y-131398964D01*
X158170748Y-131364848D01*
X158264377Y-131324499D01*
X158380203Y-131276128D01*
X158522219Y-131217943D01*
X158694416Y-131148153D01*
X158900784Y-131064969D01*
X158967192Y-131038246D01*
X159145974Y-130965736D01*
X159314712Y-130896191D01*
X159468850Y-130831569D01*
X159603828Y-130773831D01*
X159715090Y-130724936D01*
X159798076Y-130686844D01*
X159848229Y-130661514D01*
X159858616Y-130654996D01*
X159920038Y-130601845D01*
X159952424Y-130550584D01*
X159957841Y-130490496D01*
X159938355Y-130410863D01*
X159916901Y-130352629D01*
X159873541Y-130248768D01*
X159835810Y-130179031D01*
X159797366Y-130136936D01*
X159751864Y-130116000D01*
X159692961Y-130109744D01*
X159679121Y-130109683D01*
X159651239Y-130112319D01*
X159612254Y-130120667D01*
X159559300Y-130135791D01*
X159489509Y-130158758D01*
X159400014Y-130190635D01*
X159287948Y-130232488D01*
X159150442Y-130285384D01*
X158984631Y-130350388D01*
X158787647Y-130428567D01*
X158556621Y-130520987D01*
X158351655Y-130603362D01*
X158135909Y-130689823D01*
X157931754Y-130770912D01*
X157742569Y-130845333D01*
X157571736Y-130911791D01*
X157422636Y-130968992D01*
X157298647Y-131015639D01*
X157203153Y-131050439D01*
X157139532Y-131072096D01*
X157111165Y-131079314D01*
X157110090Y-131079010D01*
X157093821Y-131051081D01*
X157067428Y-130994282D01*
X157034308Y-130917186D01*
X156997859Y-130828364D01*
X156961478Y-130736391D01*
X156928561Y-130649838D01*
X156902506Y-130577277D01*
X156886708Y-130527283D01*
X156884086Y-130508649D01*
X156907128Y-130497191D01*
X156965586Y-130471880D01*
X157055461Y-130434308D01*
X157172755Y-130386067D01*
X157313469Y-130328750D01*
X157473604Y-130263950D01*
X157649161Y-130193259D01*
X157836141Y-130118270D01*
X158030546Y-130040573D01*
X158228377Y-129961764D01*
X158425634Y-129883432D01*
X158618320Y-129807172D01*
X158802435Y-129734575D01*
X158973980Y-129667234D01*
X159128957Y-129606741D01*
X159263367Y-129554689D01*
X159373211Y-129512670D01*
X159454491Y-129482277D01*
X159503207Y-129465101D01*
X159509431Y-129463174D01*
X159603289Y-129441224D01*
X159718527Y-129421975D01*
X159834199Y-129408766D01*
X159864919Y-129406537D01*
X160050540Y-129407300D01*
G36*
X148085103Y-133278316D02*
G01*
X148092547Y-133217210D01*
X148105746Y-133163239D01*
X148124293Y-133112611D01*
X148132603Y-133093581D01*
X148216834Y-132957133D01*
X148339123Y-132833101D01*
X148496388Y-132723913D01*
X148685548Y-132631992D01*
X148749960Y-132607463D01*
X148802227Y-132591987D01*
X148891289Y-132569407D01*
X149012398Y-132540779D01*
X149160808Y-132507159D01*
X149331775Y-132469602D01*
X149520552Y-132429165D01*
X149722393Y-132386904D01*
X149932552Y-132343873D01*
X149956460Y-132339040D01*
X150237769Y-132282749D01*
X150481465Y-132235242D01*
X150691246Y-132196052D01*
X150870807Y-132164709D01*
X151023846Y-132140747D01*
X151154061Y-132123696D01*
X151265147Y-132113089D01*
X151360801Y-132108458D01*
X151444722Y-132109334D01*
X151520605Y-132115250D01*
X151592148Y-132125737D01*
X151611927Y-132129433D01*
X151767739Y-132173745D01*
X151909315Y-132240710D01*
X152023456Y-132324028D01*
X152027417Y-132327757D01*
X152063572Y-132364271D01*
X152095562Y-132402790D01*
X152124576Y-132447134D01*
X152151804Y-132501121D01*
X152178434Y-132568571D01*
X152205655Y-132653303D01*
X152234655Y-132759134D01*
X152266624Y-132889885D01*
X152302750Y-133049375D01*
X152344223Y-133241422D01*
X152392230Y-133469846D01*
X152410949Y-133559830D01*
X152451591Y-133756851D01*
X152489879Y-133944970D01*
X152524859Y-134119314D01*
X152555573Y-134275005D01*
X152581068Y-134407168D01*
X152600388Y-134510927D01*
X152612576Y-134581405D01*
X152616277Y-134607583D01*
X152612168Y-134756756D01*
X152572778Y-134908747D01*
X152502632Y-135051971D01*
X152406257Y-135174844D01*
X152387583Y-135192882D01*
X152296520Y-135262413D01*
X152176057Y-135333003D01*
X152038457Y-135398209D01*
X151895984Y-135451593D01*
X151893382Y-135452428D01*
X151834100Y-135468876D01*
X151738265Y-135492334D01*
X151610875Y-135521707D01*
X151456928Y-135555901D01*
X151281423Y-135593821D01*
X151089356Y-135634374D01*
X150885726Y-135676466D01*
X150676126Y-135718884D01*
X150431873Y-135767550D01*
X150224794Y-135808231D01*
X150050632Y-135841641D01*
X149905131Y-135868491D01*
X149784032Y-135889496D01*
X149683081Y-135905366D01*
X149598020Y-135916815D01*
X149524592Y-135924555D01*
X149458541Y-135929298D01*
X149406126Y-135931474D01*
X149297823Y-135932622D01*
X149194989Y-135930176D01*
X149110926Y-135924643D01*
X149067460Y-135918618D01*
X148958950Y-135885824D01*
X148845128Y-135834908D01*
X148740370Y-135773533D01*
X148659056Y-135709360D01*
X148642786Y-135692321D01*
X148610630Y-135653217D01*
X148581729Y-135611144D01*
X148554926Y-135562216D01*
X148529063Y-135502542D01*
X148502983Y-135428236D01*
X148475529Y-135335408D01*
X148445544Y-135220170D01*
X148411871Y-135078635D01*
X148373353Y-134906914D01*
X148328831Y-134701118D01*
X148281749Y-134479172D01*
X148228450Y-134224445D01*
X148184173Y-134007194D01*
X148148509Y-133823627D01*
X148121050Y-133669952D01*
X148101389Y-133542377D01*
X148089116Y-133437107D01*
X148084541Y-133362118D01*
X148978904Y-133362118D01*
X148985136Y-133432680D01*
X148998669Y-133525249D01*
X149019704Y-133643561D01*
X149048445Y-133791357D01*
X149085095Y-133972374D01*
X149129858Y-134190353D01*
X149140512Y-134242164D01*
X149180294Y-134433547D01*
X149218501Y-134613276D01*
X149254115Y-134776848D01*
X149286115Y-134919758D01*
X149313484Y-135037499D01*
X149335200Y-135125567D01*
X149350246Y-135179457D01*
X149355819Y-135193796D01*
X149403739Y-135236638D01*
X149476208Y-135265034D01*
X149556301Y-135273023D01*
X149575460Y-135271144D01*
X149606782Y-135265586D01*
X149675176Y-135252764D01*
X149776170Y-135233539D01*
X149905287Y-135208771D01*
X150058055Y-135179319D01*
X150230000Y-135146044D01*
X150416646Y-135109805D01*
X150559710Y-135081955D01*
X150755963Y-135043229D01*
X150942095Y-135005584D01*
X151113404Y-134970037D01*
X151265188Y-134937604D01*
X151392746Y-134909303D01*
X151491374Y-134886150D01*
X151556372Y-134869161D01*
X151579216Y-134861537D01*
X151642354Y-134825117D01*
X151692748Y-134781507D01*
X151702895Y-134768436D01*
X151711045Y-134754109D01*
X151716650Y-134736746D01*
X151719106Y-134712553D01*
X151717809Y-134677735D01*
X151712155Y-134628497D01*
X151701539Y-134561045D01*
X151685357Y-134471584D01*
X151663006Y-134356320D01*
X151633880Y-134211459D01*
X151597376Y-134033206D01*
X151552889Y-133817766D01*
X151546961Y-133789116D01*
X151497941Y-133553920D01*
X151456160Y-133357397D01*
X151420918Y-133196635D01*
X151391518Y-133068725D01*
X151367260Y-132970756D01*
X151347447Y-132899818D01*
X151331379Y-132853001D01*
X151318359Y-132827394D01*
X151315263Y-132823728D01*
X151267664Y-132794260D01*
X151203110Y-132774241D01*
X151192524Y-132772570D01*
X151152484Y-132774251D01*
X151076229Y-132783959D01*
X150968899Y-132800671D01*
X150835636Y-132823367D01*
X150681579Y-132851026D01*
X150511870Y-132882627D01*
X150331648Y-132917149D01*
X150146055Y-132953571D01*
X149960230Y-132990871D01*
X149779315Y-133028029D01*
X149608449Y-133064024D01*
X149452773Y-133097835D01*
X149317429Y-133128441D01*
X149207555Y-133154820D01*
X149128293Y-133175952D01*
X149084784Y-133190816D01*
X149083428Y-133191483D01*
X149050128Y-133208528D01*
X149022908Y-133225146D01*
X149001973Y-133245075D01*
X148987525Y-133272054D01*
X148979768Y-133309822D01*
X148978904Y-133362118D01*
X148084541Y-133362118D01*
X148083823Y-133350351D01*
X148085103Y-133278316D01*
G37*
X148085103Y-133278316D02*
X148092547Y-133217210D01*
X148105746Y-133163239D01*
X148124293Y-133112611D01*
X148132603Y-133093581D01*
X148216834Y-132957133D01*
X148339123Y-132833101D01*
X148496388Y-132723913D01*
X148685548Y-132631992D01*
X148749960Y-132607463D01*
X148802227Y-132591987D01*
X148891289Y-132569407D01*
X149012398Y-132540779D01*
X149160808Y-132507159D01*
X149331775Y-132469602D01*
X149520552Y-132429165D01*
X149722393Y-132386904D01*
X149932552Y-132343873D01*
X149956460Y-132339040D01*
X150237769Y-132282749D01*
X150481465Y-132235242D01*
X150691246Y-132196052D01*
X150870807Y-132164709D01*
X151023846Y-132140747D01*
X151154061Y-132123696D01*
X151265147Y-132113089D01*
X151360801Y-132108458D01*
X151444722Y-132109334D01*
X151520605Y-132115250D01*
X151592148Y-132125737D01*
X151611927Y-132129433D01*
X151767739Y-132173745D01*
X151909315Y-132240710D01*
X152023456Y-132324028D01*
X152027417Y-132327757D01*
X152063572Y-132364271D01*
X152095562Y-132402790D01*
X152124576Y-132447134D01*
X152151804Y-132501121D01*
X152178434Y-132568571D01*
X152205655Y-132653303D01*
X152234655Y-132759134D01*
X152266624Y-132889885D01*
X152302750Y-133049375D01*
X152344223Y-133241422D01*
X152392230Y-133469846D01*
X152410949Y-133559830D01*
X152451591Y-133756851D01*
X152489879Y-133944970D01*
X152524859Y-134119314D01*
X152555573Y-134275005D01*
X152581068Y-134407168D01*
X152600388Y-134510927D01*
X152612576Y-134581405D01*
X152616277Y-134607583D01*
X152612168Y-134756756D01*
X152572778Y-134908747D01*
X152502632Y-135051971D01*
X152406257Y-135174844D01*
X152387583Y-135192882D01*
X152296520Y-135262413D01*
X152176057Y-135333003D01*
X152038457Y-135398209D01*
X151895984Y-135451593D01*
X151893382Y-135452428D01*
X151834100Y-135468876D01*
X151738265Y-135492334D01*
X151610875Y-135521707D01*
X151456928Y-135555901D01*
X151281423Y-135593821D01*
X151089356Y-135634374D01*
X150885726Y-135676466D01*
X150676126Y-135718884D01*
X150431873Y-135767550D01*
X150224794Y-135808231D01*
X150050632Y-135841641D01*
X149905131Y-135868491D01*
X149784032Y-135889496D01*
X149683081Y-135905366D01*
X149598020Y-135916815D01*
X149524592Y-135924555D01*
X149458541Y-135929298D01*
X149406126Y-135931474D01*
X149297823Y-135932622D01*
X149194989Y-135930176D01*
X149110926Y-135924643D01*
X149067460Y-135918618D01*
X148958950Y-135885824D01*
X148845128Y-135834908D01*
X148740370Y-135773533D01*
X148659056Y-135709360D01*
X148642786Y-135692321D01*
X148610630Y-135653217D01*
X148581729Y-135611144D01*
X148554926Y-135562216D01*
X148529063Y-135502542D01*
X148502983Y-135428236D01*
X148475529Y-135335408D01*
X148445544Y-135220170D01*
X148411871Y-135078635D01*
X148373353Y-134906914D01*
X148328831Y-134701118D01*
X148281749Y-134479172D01*
X148228450Y-134224445D01*
X148184173Y-134007194D01*
X148148509Y-133823627D01*
X148121050Y-133669952D01*
X148101389Y-133542377D01*
X148089116Y-133437107D01*
X148084541Y-133362118D01*
X148978904Y-133362118D01*
X148985136Y-133432680D01*
X148998669Y-133525249D01*
X149019704Y-133643561D01*
X149048445Y-133791357D01*
X149085095Y-133972374D01*
X149129858Y-134190353D01*
X149140512Y-134242164D01*
X149180294Y-134433547D01*
X149218501Y-134613276D01*
X149254115Y-134776848D01*
X149286115Y-134919758D01*
X149313484Y-135037499D01*
X149335200Y-135125567D01*
X149350246Y-135179457D01*
X149355819Y-135193796D01*
X149403739Y-135236638D01*
X149476208Y-135265034D01*
X149556301Y-135273023D01*
X149575460Y-135271144D01*
X149606782Y-135265586D01*
X149675176Y-135252764D01*
X149776170Y-135233539D01*
X149905287Y-135208771D01*
X150058055Y-135179319D01*
X150230000Y-135146044D01*
X150416646Y-135109805D01*
X150559710Y-135081955D01*
X150755963Y-135043229D01*
X150942095Y-135005584D01*
X151113404Y-134970037D01*
X151265188Y-134937604D01*
X151392746Y-134909303D01*
X151491374Y-134886150D01*
X151556372Y-134869161D01*
X151579216Y-134861537D01*
X151642354Y-134825117D01*
X151692748Y-134781507D01*
X151702895Y-134768436D01*
X151711045Y-134754109D01*
X151716650Y-134736746D01*
X151719106Y-134712553D01*
X151717809Y-134677735D01*
X151712155Y-134628497D01*
X151701539Y-134561045D01*
X151685357Y-134471584D01*
X151663006Y-134356320D01*
X151633880Y-134211459D01*
X151597376Y-134033206D01*
X151552889Y-133817766D01*
X151546961Y-133789116D01*
X151497941Y-133553920D01*
X151456160Y-133357397D01*
X151420918Y-133196635D01*
X151391518Y-133068725D01*
X151367260Y-132970756D01*
X151347447Y-132899818D01*
X151331379Y-132853001D01*
X151318359Y-132827394D01*
X151315263Y-132823728D01*
X151267664Y-132794260D01*
X151203110Y-132774241D01*
X151192524Y-132772570D01*
X151152484Y-132774251D01*
X151076229Y-132783959D01*
X150968899Y-132800671D01*
X150835636Y-132823367D01*
X150681579Y-132851026D01*
X150511870Y-132882627D01*
X150331648Y-132917149D01*
X150146055Y-132953571D01*
X149960230Y-132990871D01*
X149779315Y-133028029D01*
X149608449Y-133064024D01*
X149452773Y-133097835D01*
X149317429Y-133128441D01*
X149207555Y-133154820D01*
X149128293Y-133175952D01*
X149084784Y-133190816D01*
X149083428Y-133191483D01*
X149050128Y-133208528D01*
X149022908Y-133225146D01*
X149001973Y-133245075D01*
X148987525Y-133272054D01*
X148979768Y-133309822D01*
X148978904Y-133362118D01*
X148084541Y-133362118D01*
X148083823Y-133350351D01*
X148085103Y-133278316D01*
G36*
X146854476Y-97575297D02*
G01*
X146968915Y-97685188D01*
X147052685Y-97770355D01*
X147107779Y-97833006D01*
X147136190Y-97875349D01*
X147141293Y-97893125D01*
X147137641Y-97917942D01*
X147127048Y-97981114D01*
X147110060Y-98079599D01*
X147087224Y-98210351D01*
X147059085Y-98370328D01*
X147026189Y-98556484D01*
X146989083Y-98765776D01*
X146948312Y-98995161D01*
X146904423Y-99241593D01*
X146857960Y-99502030D01*
X146809471Y-99773426D01*
X146759502Y-100052739D01*
X146708598Y-100336924D01*
X146657305Y-100622937D01*
X146606169Y-100907734D01*
X146555736Y-101188272D01*
X146506553Y-101461505D01*
X146459165Y-101724392D01*
X146414119Y-101973886D01*
X146371959Y-102206945D01*
X146333233Y-102420524D01*
X146298486Y-102611580D01*
X146268265Y-102777068D01*
X146243114Y-102913944D01*
X146223581Y-103019166D01*
X146210211Y-103089687D01*
X146203551Y-103122466D01*
X146202949Y-103124479D01*
X146187528Y-103111051D01*
X146145662Y-103071623D01*
X146081132Y-103009835D01*
X145997719Y-102929327D01*
X145899204Y-102833740D01*
X145789366Y-102726713D01*
X145757146Y-102695239D01*
X145314916Y-102263009D01*
X145706354Y-100305754D01*
X145762441Y-100024642D01*
X145815861Y-99755604D01*
X145866061Y-99501501D01*
X145912485Y-99265193D01*
X145954582Y-99049543D01*
X145991797Y-98857411D01*
X146023577Y-98691659D01*
X146049369Y-98555148D01*
X146068618Y-98450740D01*
X146080772Y-98381296D01*
X146085276Y-98349676D01*
X146085084Y-98347990D01*
X146062857Y-98351397D01*
X146001772Y-98361443D01*
X145904700Y-98377641D01*
X145774515Y-98399506D01*
X145614087Y-98426552D01*
X145426288Y-98458295D01*
X145213991Y-98494247D01*
X144980066Y-98533924D01*
X144727385Y-98576840D01*
X144458822Y-98622509D01*
X144177246Y-98670446D01*
X144064699Y-98689621D01*
X142057023Y-99031761D01*
X141625096Y-98600219D01*
X141499903Y-98474791D01*
X141402151Y-98375781D01*
X141329058Y-98299960D01*
X141277846Y-98244098D01*
X141245736Y-98204969D01*
X141229947Y-98179341D01*
X141227702Y-98163987D01*
X141236219Y-98155678D01*
X141240939Y-98153925D01*
X141267473Y-98148833D01*
X141333273Y-98137568D01*
X141435788Y-98120539D01*
X141572464Y-98098157D01*
X141740751Y-98070832D01*
X141938096Y-98038974D01*
X142161948Y-98002993D01*
X142409754Y-97963300D01*
X142678962Y-97920304D01*
X142967021Y-97874416D01*
X143271378Y-97826046D01*
X143589481Y-97775605D01*
X143918779Y-97723501D01*
X143928184Y-97722015D01*
X146567659Y-97304857D01*
X146854476Y-97575297D01*
G37*
X146854476Y-97575297D02*
X146968915Y-97685188D01*
X147052685Y-97770355D01*
X147107779Y-97833006D01*
X147136190Y-97875349D01*
X147141293Y-97893125D01*
X147137641Y-97917942D01*
X147127048Y-97981114D01*
X147110060Y-98079599D01*
X147087224Y-98210351D01*
X147059085Y-98370328D01*
X147026189Y-98556484D01*
X146989083Y-98765776D01*
X146948312Y-98995161D01*
X146904423Y-99241593D01*
X146857960Y-99502030D01*
X146809471Y-99773426D01*
X146759502Y-100052739D01*
X146708598Y-100336924D01*
X146657305Y-100622937D01*
X146606169Y-100907734D01*
X146555736Y-101188272D01*
X146506553Y-101461505D01*
X146459165Y-101724392D01*
X146414119Y-101973886D01*
X146371959Y-102206945D01*
X146333233Y-102420524D01*
X146298486Y-102611580D01*
X146268265Y-102777068D01*
X146243114Y-102913944D01*
X146223581Y-103019166D01*
X146210211Y-103089687D01*
X146203551Y-103122466D01*
X146202949Y-103124479D01*
X146187528Y-103111051D01*
X146145662Y-103071623D01*
X146081132Y-103009835D01*
X145997719Y-102929327D01*
X145899204Y-102833740D01*
X145789366Y-102726713D01*
X145757146Y-102695239D01*
X145314916Y-102263009D01*
X145706354Y-100305754D01*
X145762441Y-100024642D01*
X145815861Y-99755604D01*
X145866061Y-99501501D01*
X145912485Y-99265193D01*
X145954582Y-99049543D01*
X145991797Y-98857411D01*
X146023577Y-98691659D01*
X146049369Y-98555148D01*
X146068618Y-98450740D01*
X146080772Y-98381296D01*
X146085276Y-98349676D01*
X146085084Y-98347990D01*
X146062857Y-98351397D01*
X146001772Y-98361443D01*
X145904700Y-98377641D01*
X145774515Y-98399506D01*
X145614087Y-98426552D01*
X145426288Y-98458295D01*
X145213991Y-98494247D01*
X144980066Y-98533924D01*
X144727385Y-98576840D01*
X144458822Y-98622509D01*
X144177246Y-98670446D01*
X144064699Y-98689621D01*
X142057023Y-99031761D01*
X141625096Y-98600219D01*
X141499903Y-98474791D01*
X141402151Y-98375781D01*
X141329058Y-98299960D01*
X141277846Y-98244098D01*
X141245736Y-98204969D01*
X141229947Y-98179341D01*
X141227702Y-98163987D01*
X141236219Y-98155678D01*
X141240939Y-98153925D01*
X141267473Y-98148833D01*
X141333273Y-98137568D01*
X141435788Y-98120539D01*
X141572464Y-98098157D01*
X141740751Y-98070832D01*
X141938096Y-98038974D01*
X142161948Y-98002993D01*
X142409754Y-97963300D01*
X142678962Y-97920304D01*
X142967021Y-97874416D01*
X143271378Y-97826046D01*
X143589481Y-97775605D01*
X143918779Y-97723501D01*
X143928184Y-97722015D01*
X146567659Y-97304857D01*
X146854476Y-97575297D01*
G36*
X161696246Y-112307672D02*
G01*
X162025768Y-112634853D01*
X162347318Y-112954330D01*
X162659605Y-113264811D01*
X162961338Y-113565008D01*
X163251228Y-113853629D01*
X163527985Y-114129386D01*
X163790318Y-114390987D01*
X164036936Y-114637143D01*
X164266550Y-114866564D01*
X164477869Y-115077959D01*
X164669603Y-115270040D01*
X164840462Y-115441514D01*
X164989155Y-115591094D01*
X165114391Y-115717487D01*
X165214882Y-115819406D01*
X165289336Y-115895558D01*
X165336462Y-115944655D01*
X165354972Y-115965406D01*
X165355210Y-115965945D01*
X165340649Y-115988443D01*
X165300169Y-116034959D01*
X165238573Y-116100386D01*
X165160666Y-116179618D01*
X165073659Y-116265218D01*
X164792109Y-116538000D01*
X163429237Y-115176684D01*
X162066364Y-113815367D01*
X161758162Y-114107671D01*
X161664544Y-114196740D01*
X161582370Y-114275457D01*
X161516247Y-114339366D01*
X161470777Y-114384012D01*
X161450566Y-114404940D01*
X161449960Y-114405886D01*
X161464609Y-114421354D01*
X161507113Y-114464503D01*
X161575304Y-114533169D01*
X161667019Y-114625184D01*
X161780088Y-114738384D01*
X161912348Y-114870602D01*
X162061631Y-115019672D01*
X162225771Y-115183430D01*
X162402603Y-115359708D01*
X162589959Y-115546341D01*
X162741811Y-115697513D01*
X164033662Y-116983227D01*
X163900686Y-117118403D01*
X163822990Y-117195429D01*
X163729480Y-117285265D01*
X163636074Y-117372698D01*
X163602098Y-117403779D01*
X163436487Y-117553979D01*
X162148732Y-116266353D01*
X160860976Y-114978727D01*
X160467558Y-115357821D01*
X160361448Y-115460583D01*
X160266178Y-115553837D01*
X160185790Y-115633546D01*
X160124323Y-115695674D01*
X160085817Y-115736186D01*
X160074133Y-115750798D01*
X160088729Y-115768326D01*
X160130221Y-115811907D01*
X160195162Y-115878076D01*
X160280103Y-115963367D01*
X160381596Y-116064315D01*
X160496194Y-116177454D01*
X160600660Y-116279965D01*
X160672868Y-116350858D01*
X160773161Y-116449675D01*
X160899601Y-116574496D01*
X161050249Y-116723400D01*
X161223167Y-116894467D01*
X161416417Y-117085775D01*
X161628061Y-117295403D01*
X161856160Y-117521433D01*
X162098776Y-117761941D01*
X162353971Y-118015009D01*
X162619807Y-118278714D01*
X162894346Y-118551137D01*
X163175649Y-118830357D01*
X163461777Y-119114453D01*
X163750794Y-119401504D01*
X163780951Y-119431462D01*
X164162436Y-119810178D01*
X164515864Y-120160531D01*
X164841093Y-120482382D01*
X165137981Y-120775593D01*
X165406386Y-121040024D01*
X165646167Y-121275537D01*
X165857181Y-121481994D01*
X166039287Y-121659254D01*
X166192343Y-121807181D01*
X166316206Y-121925634D01*
X166410735Y-122014476D01*
X166475789Y-122073567D01*
X166511224Y-122102769D01*
X166515878Y-122105598D01*
X166589894Y-122129657D01*
X166649632Y-122130322D01*
X166681832Y-122111539D01*
X166737476Y-122068275D01*
X166810381Y-122006293D01*
X166894368Y-121931352D01*
X166983255Y-121849215D01*
X167070862Y-121765642D01*
X167151007Y-121686394D01*
X167217510Y-121617232D01*
X167264191Y-121563918D01*
X167279026Y-121543672D01*
X167303269Y-121497622D01*
X167307562Y-121454919D01*
X167293873Y-121394593D01*
X167293220Y-121392343D01*
X167285195Y-121372597D01*
X167270114Y-121347295D01*
X167246053Y-121314410D01*
X167211094Y-121271918D01*
X167163314Y-121217792D01*
X167100793Y-121150008D01*
X167021611Y-121066539D01*
X166923845Y-120965361D01*
X166805576Y-120844448D01*
X166664882Y-120701775D01*
X166499843Y-120535316D01*
X166308538Y-120343046D01*
X166095093Y-120128998D01*
X165908121Y-119941340D01*
X165728275Y-119760249D01*
X165558037Y-119588262D01*
X165399893Y-119427917D01*
X165256327Y-119281749D01*
X165129823Y-119152295D01*
X165022866Y-119042092D01*
X164937939Y-118953677D01*
X164877527Y-118889586D01*
X164844115Y-118852356D01*
X164840936Y-118848415D01*
X164717104Y-118676095D01*
X164625498Y-118518508D01*
X164562810Y-118367379D01*
X164525730Y-118214432D01*
X164510950Y-118051394D01*
X164510415Y-118021891D01*
X164510394Y-117922514D01*
X164514343Y-117851379D01*
X164525161Y-117794404D01*
X164545746Y-117737512D01*
X164578996Y-117666623D01*
X164586820Y-117650744D01*
X164623328Y-117582346D01*
X164664230Y-117519397D01*
X164715803Y-117454195D01*
X164784320Y-117379037D01*
X164876057Y-117286221D01*
X164914903Y-117248049D01*
X165051517Y-117120003D01*
X165170804Y-117021744D01*
X165280188Y-116948718D01*
X165387094Y-116896369D01*
X165498948Y-116860142D01*
X165573769Y-116843830D01*
X165738304Y-116832584D01*
X165919986Y-116855451D01*
X166112104Y-116911577D01*
X166115410Y-116912809D01*
X166261207Y-116981591D01*
X166425776Y-117085300D01*
X166606729Y-117222199D01*
X166801676Y-117390550D01*
X166902765Y-117485129D01*
X166942817Y-117524029D01*
X167011292Y-117591161D01*
X167106578Y-117684926D01*
X167227060Y-117803726D01*
X167371126Y-117945960D01*
X167537162Y-118110030D01*
X167723556Y-118294337D01*
X167928694Y-118497282D01*
X168150962Y-118717265D01*
X168388749Y-118952687D01*
X168640439Y-119201949D01*
X168904421Y-119463453D01*
X169179081Y-119735598D01*
X169462805Y-120016787D01*
X169753981Y-120305419D01*
X170050995Y-120599895D01*
X170352234Y-120898617D01*
X170656086Y-121199986D01*
X170960935Y-121502401D01*
X171265171Y-121804265D01*
X171567178Y-122103977D01*
X171865345Y-122399939D01*
X172158057Y-122690552D01*
X172443702Y-122974217D01*
X172720666Y-123249334D01*
X172987336Y-123514304D01*
X173242099Y-123767528D01*
X173483342Y-124007408D01*
X173709452Y-124232343D01*
X173716043Y-124238902D01*
X174308710Y-124828657D01*
X174016930Y-125118532D01*
X173725151Y-125408408D01*
X172884514Y-124569759D01*
X172043876Y-123731110D01*
X170149460Y-125581033D01*
X169910571Y-125814225D01*
X169678860Y-126040246D01*
X169456262Y-126257215D01*
X169244714Y-126463252D01*
X169046151Y-126656476D01*
X168862511Y-126835007D01*
X168695729Y-126996965D01*
X168547743Y-127140469D01*
X168420487Y-127263638D01*
X168315899Y-127364593D01*
X168235914Y-127441453D01*
X168182470Y-127492337D01*
X168158338Y-127514652D01*
X168061633Y-127598348D01*
X167671671Y-127207958D01*
X167281708Y-126817567D01*
X167514376Y-126586783D01*
X167560453Y-126541377D01*
X167634644Y-126468658D01*
X167734702Y-126370815D01*
X167858380Y-126250038D01*
X168003433Y-126108515D01*
X168167614Y-125948436D01*
X168348677Y-125771991D01*
X168544375Y-125581369D01*
X168752463Y-125378760D01*
X168970693Y-125166352D01*
X169196821Y-124946335D01*
X169428599Y-124720898D01*
X169493293Y-124657988D01*
X169720884Y-124436558D01*
X169939827Y-124223294D01*
X170148227Y-124020058D01*
X170344185Y-123828709D01*
X170525806Y-123651107D01*
X170691193Y-123489113D01*
X170838449Y-123344588D01*
X170965678Y-123219392D01*
X171070983Y-123115384D01*
X171152467Y-123034426D01*
X171208234Y-122978378D01*
X171236387Y-122949100D01*
X171239543Y-122945138D01*
X171224775Y-122927988D01*
X171181733Y-122883016D01*
X171112314Y-122812098D01*
X171018412Y-122717109D01*
X170901922Y-122599927D01*
X170764740Y-122462426D01*
X170608761Y-122306483D01*
X170435879Y-122133974D01*
X170247990Y-121946775D01*
X170046990Y-121746762D01*
X169834772Y-121535811D01*
X169613233Y-121315798D01*
X169384268Y-121088599D01*
X169149772Y-120856091D01*
X168911639Y-120620148D01*
X168671765Y-120382648D01*
X168432046Y-120145466D01*
X168194376Y-119910478D01*
X167960650Y-119679561D01*
X167732764Y-119454590D01*
X167512613Y-119237441D01*
X167302092Y-119029991D01*
X167103096Y-118834115D01*
X166917520Y-118651690D01*
X166747259Y-118484591D01*
X166594209Y-118334695D01*
X166460265Y-118203877D01*
X166347322Y-118094014D01*
X166257274Y-118006981D01*
X166192018Y-117944656D01*
X166153448Y-117908913D01*
X166144211Y-117901206D01*
X166044207Y-117852922D01*
X165973496Y-117842998D01*
X165935063Y-117845350D01*
X165900395Y-117855767D01*
X165861974Y-117879292D01*
X165812283Y-117920966D01*
X165743804Y-117985831D01*
X165707287Y-118021541D01*
X165629770Y-118098745D01*
X165577996Y-118154362D01*
X165546840Y-118195778D01*
X165531175Y-118230373D01*
X165525874Y-118265531D01*
X165525505Y-118283337D01*
X165543406Y-118376205D01*
X165585841Y-118453654D01*
X165610509Y-118482550D01*
X165662797Y-118538621D01*
X165740188Y-118619312D01*
X165840168Y-118722069D01*
X165960217Y-118844338D01*
X166097821Y-118983563D01*
X166250463Y-119137191D01*
X166415625Y-119302665D01*
X166590791Y-119477433D01*
X166761815Y-119647402D01*
X166993772Y-119877845D01*
X167197481Y-120081119D01*
X167375054Y-120259555D01*
X167528604Y-120415485D01*
X167660243Y-120551240D01*
X167772086Y-120669152D01*
X167866243Y-120771553D01*
X167944829Y-120860773D01*
X168009955Y-120939145D01*
X168063735Y-121009000D01*
X168108281Y-121072670D01*
X168145706Y-121132486D01*
X168178123Y-121190780D01*
X168200509Y-121235087D01*
X168281477Y-121439944D01*
X168321635Y-121637862D01*
X168320932Y-121827801D01*
X168279314Y-122008722D01*
X168243250Y-122095262D01*
X168215958Y-122146747D01*
X168182379Y-122198521D01*
X168138112Y-122255715D01*
X168078759Y-122323456D01*
X167999917Y-122406874D01*
X167897189Y-122511098D01*
X167823689Y-122584331D01*
X167704531Y-122700356D01*
X167593353Y-122804440D01*
X167495313Y-122891991D01*
X167415568Y-122958415D01*
X167359274Y-122999119D01*
X167355341Y-123001477D01*
X167173595Y-123084563D01*
X166984483Y-123126065D01*
X166788310Y-123126031D01*
X166585381Y-123084509D01*
X166376002Y-123001549D01*
X166160479Y-122877197D01*
X166043196Y-122794021D01*
X166005743Y-122762067D01*
X165938720Y-122700436D01*
X165842441Y-122609436D01*
X165717217Y-122489374D01*
X165563364Y-122340557D01*
X165381195Y-122163293D01*
X165171022Y-121957890D01*
X164933159Y-121724655D01*
X164667920Y-121463895D01*
X164375618Y-121175919D01*
X164056566Y-120861034D01*
X163711078Y-120519546D01*
X163339467Y-120151765D01*
X162942047Y-119757997D01*
X162519131Y-119338550D01*
X162286112Y-119107284D01*
X161960374Y-118783840D01*
X161642621Y-118468163D01*
X161334157Y-118161555D01*
X161036287Y-117865317D01*
X160750315Y-117580753D01*
X160477546Y-117309164D01*
X160219285Y-117051853D01*
X159976835Y-116810121D01*
X159751501Y-116585271D01*
X159544588Y-116378606D01*
X159357400Y-116191427D01*
X159191242Y-116025036D01*
X159047417Y-115880737D01*
X158927232Y-115759830D01*
X158831989Y-115663618D01*
X158762993Y-115593404D01*
X158721549Y-115550490D01*
X158708876Y-115536230D01*
X158723735Y-115518770D01*
X158766804Y-115474150D01*
X158835819Y-115404597D01*
X158928519Y-115312337D01*
X159042640Y-115199597D01*
X159175919Y-115068603D01*
X159326095Y-114921583D01*
X159490905Y-114760762D01*
X159668084Y-114588367D01*
X159855372Y-114406625D01*
X159947126Y-114317759D01*
X160139467Y-114131583D01*
X160323676Y-113953276D01*
X160497393Y-113785122D01*
X160658258Y-113629405D01*
X160803912Y-113488410D01*
X160931995Y-113364421D01*
X161040147Y-113259721D01*
X161126008Y-113176596D01*
X161187220Y-113117330D01*
X161221421Y-113084207D01*
X161227333Y-113078476D01*
X161238000Y-113066920D01*
X161243251Y-113054325D01*
X161240372Y-113037485D01*
X161226647Y-113013192D01*
X161199359Y-112978239D01*
X161155793Y-112929419D01*
X161093234Y-112863525D01*
X161008965Y-112777349D01*
X160900270Y-112667685D01*
X160764435Y-112531325D01*
X160761666Y-112528548D01*
X160653755Y-112420594D01*
X160520097Y-112287360D01*
X160365129Y-112133246D01*
X160193289Y-111962651D01*
X160009017Y-111779976D01*
X159816751Y-111589621D01*
X159620928Y-111395986D01*
X159425987Y-111203471D01*
X159245180Y-111025159D01*
X158236317Y-110030965D01*
X157869347Y-110390248D01*
X157502376Y-110749531D01*
X158768705Y-112017242D01*
X160035034Y-113284954D01*
X159743715Y-113564957D01*
X159452395Y-113844959D01*
X158720802Y-113118747D01*
X158549780Y-112949019D01*
X158366738Y-112767423D01*
X158178232Y-112580463D01*
X157990821Y-112394639D01*
X157811062Y-112216454D01*
X157645512Y-112052407D01*
X157500728Y-111909002D01*
X157448457Y-111857251D01*
X156907705Y-111321966D01*
X156284290Y-111925245D01*
X155660876Y-112528525D01*
X155274585Y-112143268D01*
X155170335Y-112038814D01*
X155076747Y-111944114D01*
X154997793Y-111863264D01*
X154937448Y-111800363D01*
X154899686Y-111759508D01*
X154888293Y-111745016D01*
X154903140Y-111728641D01*
X154946185Y-111685047D01*
X155015182Y-111616431D01*
X155107886Y-111524992D01*
X155222053Y-111412928D01*
X155355438Y-111282435D01*
X155505795Y-111135713D01*
X155670879Y-110974959D01*
X155848445Y-110802370D01*
X156036248Y-110620145D01*
X156142418Y-110517261D01*
X156344378Y-110321603D01*
X156544337Y-110127811D01*
X156739222Y-109938869D01*
X156925961Y-109757759D01*
X157101479Y-109587463D01*
X157262706Y-109430962D01*
X157406567Y-109291240D01*
X157529991Y-109171278D01*
X157629904Y-109074059D01*
X157703233Y-109002564D01*
X157716913Y-108989195D01*
X158037283Y-108675890D01*
X161696246Y-112307672D01*
G37*
X161696246Y-112307672D02*
X162025768Y-112634853D01*
X162347318Y-112954330D01*
X162659605Y-113264811D01*
X162961338Y-113565008D01*
X163251228Y-113853629D01*
X163527985Y-114129386D01*
X163790318Y-114390987D01*
X164036936Y-114637143D01*
X164266550Y-114866564D01*
X164477869Y-115077959D01*
X164669603Y-115270040D01*
X164840462Y-115441514D01*
X164989155Y-115591094D01*
X165114391Y-115717487D01*
X165214882Y-115819406D01*
X165289336Y-115895558D01*
X165336462Y-115944655D01*
X165354972Y-115965406D01*
X165355210Y-115965945D01*
X165340649Y-115988443D01*
X165300169Y-116034959D01*
X165238573Y-116100386D01*
X165160666Y-116179618D01*
X165073659Y-116265218D01*
X164792109Y-116538000D01*
X163429237Y-115176684D01*
X162066364Y-113815367D01*
X161758162Y-114107671D01*
X161664544Y-114196740D01*
X161582370Y-114275457D01*
X161516247Y-114339366D01*
X161470777Y-114384012D01*
X161450566Y-114404940D01*
X161449960Y-114405886D01*
X161464609Y-114421354D01*
X161507113Y-114464503D01*
X161575304Y-114533169D01*
X161667019Y-114625184D01*
X161780088Y-114738384D01*
X161912348Y-114870602D01*
X162061631Y-115019672D01*
X162225771Y-115183430D01*
X162402603Y-115359708D01*
X162589959Y-115546341D01*
X162741811Y-115697513D01*
X164033662Y-116983227D01*
X163900686Y-117118403D01*
X163822990Y-117195429D01*
X163729480Y-117285265D01*
X163636074Y-117372698D01*
X163602098Y-117403779D01*
X163436487Y-117553979D01*
X162148732Y-116266353D01*
X160860976Y-114978727D01*
X160467558Y-115357821D01*
X160361448Y-115460583D01*
X160266178Y-115553837D01*
X160185790Y-115633546D01*
X160124323Y-115695674D01*
X160085817Y-115736186D01*
X160074133Y-115750798D01*
X160088729Y-115768326D01*
X160130221Y-115811907D01*
X160195162Y-115878076D01*
X160280103Y-115963367D01*
X160381596Y-116064315D01*
X160496194Y-116177454D01*
X160600660Y-116279965D01*
X160672868Y-116350858D01*
X160773161Y-116449675D01*
X160899601Y-116574496D01*
X161050249Y-116723400D01*
X161223167Y-116894467D01*
X161416417Y-117085775D01*
X161628061Y-117295403D01*
X161856160Y-117521433D01*
X162098776Y-117761941D01*
X162353971Y-118015009D01*
X162619807Y-118278714D01*
X162894346Y-118551137D01*
X163175649Y-118830357D01*
X163461777Y-119114453D01*
X163750794Y-119401504D01*
X163780951Y-119431462D01*
X164162436Y-119810178D01*
X164515864Y-120160531D01*
X164841093Y-120482382D01*
X165137981Y-120775593D01*
X165406386Y-121040024D01*
X165646167Y-121275537D01*
X165857181Y-121481994D01*
X166039287Y-121659254D01*
X166192343Y-121807181D01*
X166316206Y-121925634D01*
X166410735Y-122014476D01*
X166475789Y-122073567D01*
X166511224Y-122102769D01*
X166515878Y-122105598D01*
X166589894Y-122129657D01*
X166649632Y-122130322D01*
X166681832Y-122111539D01*
X166737476Y-122068275D01*
X166810381Y-122006293D01*
X166894368Y-121931352D01*
X166983255Y-121849215D01*
X167070862Y-121765642D01*
X167151007Y-121686394D01*
X167217510Y-121617232D01*
X167264191Y-121563918D01*
X167279026Y-121543672D01*
X167303269Y-121497622D01*
X167307562Y-121454919D01*
X167293873Y-121394593D01*
X167293220Y-121392343D01*
X167285195Y-121372597D01*
X167270114Y-121347295D01*
X167246053Y-121314410D01*
X167211094Y-121271918D01*
X167163314Y-121217792D01*
X167100793Y-121150008D01*
X167021611Y-121066539D01*
X166923845Y-120965361D01*
X166805576Y-120844448D01*
X166664882Y-120701775D01*
X166499843Y-120535316D01*
X166308538Y-120343046D01*
X166095093Y-120128998D01*
X165908121Y-119941340D01*
X165728275Y-119760249D01*
X165558037Y-119588262D01*
X165399893Y-119427917D01*
X165256327Y-119281749D01*
X165129823Y-119152295D01*
X165022866Y-119042092D01*
X164937939Y-118953677D01*
X164877527Y-118889586D01*
X164844115Y-118852356D01*
X164840936Y-118848415D01*
X164717104Y-118676095D01*
X164625498Y-118518508D01*
X164562810Y-118367379D01*
X164525730Y-118214432D01*
X164510950Y-118051394D01*
X164510415Y-118021891D01*
X164510394Y-117922514D01*
X164514343Y-117851379D01*
X164525161Y-117794404D01*
X164545746Y-117737512D01*
X164578996Y-117666623D01*
X164586820Y-117650744D01*
X164623328Y-117582346D01*
X164664230Y-117519397D01*
X164715803Y-117454195D01*
X164784320Y-117379037D01*
X164876057Y-117286221D01*
X164914903Y-117248049D01*
X165051517Y-117120003D01*
X165170804Y-117021744D01*
X165280188Y-116948718D01*
X165387094Y-116896369D01*
X165498948Y-116860142D01*
X165573769Y-116843830D01*
X165738304Y-116832584D01*
X165919986Y-116855451D01*
X166112104Y-116911577D01*
X166115410Y-116912809D01*
X166261207Y-116981591D01*
X166425776Y-117085300D01*
X166606729Y-117222199D01*
X166801676Y-117390550D01*
X166902765Y-117485129D01*
X166942817Y-117524029D01*
X167011292Y-117591161D01*
X167106578Y-117684926D01*
X167227060Y-117803726D01*
X167371126Y-117945960D01*
X167537162Y-118110030D01*
X167723556Y-118294337D01*
X167928694Y-118497282D01*
X168150962Y-118717265D01*
X168388749Y-118952687D01*
X168640439Y-119201949D01*
X168904421Y-119463453D01*
X169179081Y-119735598D01*
X169462805Y-120016787D01*
X169753981Y-120305419D01*
X170050995Y-120599895D01*
X170352234Y-120898617D01*
X170656086Y-121199986D01*
X170960935Y-121502401D01*
X171265171Y-121804265D01*
X171567178Y-122103977D01*
X171865345Y-122399939D01*
X172158057Y-122690552D01*
X172443702Y-122974217D01*
X172720666Y-123249334D01*
X172987336Y-123514304D01*
X173242099Y-123767528D01*
X173483342Y-124007408D01*
X173709452Y-124232343D01*
X173716043Y-124238902D01*
X174308710Y-124828657D01*
X174016930Y-125118532D01*
X173725151Y-125408408D01*
X172884514Y-124569759D01*
X172043876Y-123731110D01*
X170149460Y-125581033D01*
X169910571Y-125814225D01*
X169678860Y-126040246D01*
X169456262Y-126257215D01*
X169244714Y-126463252D01*
X169046151Y-126656476D01*
X168862511Y-126835007D01*
X168695729Y-126996965D01*
X168547743Y-127140469D01*
X168420487Y-127263638D01*
X168315899Y-127364593D01*
X168235914Y-127441453D01*
X168182470Y-127492337D01*
X168158338Y-127514652D01*
X168061633Y-127598348D01*
X167671671Y-127207958D01*
X167281708Y-126817567D01*
X167514376Y-126586783D01*
X167560453Y-126541377D01*
X167634644Y-126468658D01*
X167734702Y-126370815D01*
X167858380Y-126250038D01*
X168003433Y-126108515D01*
X168167614Y-125948436D01*
X168348677Y-125771991D01*
X168544375Y-125581369D01*
X168752463Y-125378760D01*
X168970693Y-125166352D01*
X169196821Y-124946335D01*
X169428599Y-124720898D01*
X169493293Y-124657988D01*
X169720884Y-124436558D01*
X169939827Y-124223294D01*
X170148227Y-124020058D01*
X170344185Y-123828709D01*
X170525806Y-123651107D01*
X170691193Y-123489113D01*
X170838449Y-123344588D01*
X170965678Y-123219392D01*
X171070983Y-123115384D01*
X171152467Y-123034426D01*
X171208234Y-122978378D01*
X171236387Y-122949100D01*
X171239543Y-122945138D01*
X171224775Y-122927988D01*
X171181733Y-122883016D01*
X171112314Y-122812098D01*
X171018412Y-122717109D01*
X170901922Y-122599927D01*
X170764740Y-122462426D01*
X170608761Y-122306483D01*
X170435879Y-122133974D01*
X170247990Y-121946775D01*
X170046990Y-121746762D01*
X169834772Y-121535811D01*
X169613233Y-121315798D01*
X169384268Y-121088599D01*
X169149772Y-120856091D01*
X168911639Y-120620148D01*
X168671765Y-120382648D01*
X168432046Y-120145466D01*
X168194376Y-119910478D01*
X167960650Y-119679561D01*
X167732764Y-119454590D01*
X167512613Y-119237441D01*
X167302092Y-119029991D01*
X167103096Y-118834115D01*
X166917520Y-118651690D01*
X166747259Y-118484591D01*
X166594209Y-118334695D01*
X166460265Y-118203877D01*
X166347322Y-118094014D01*
X166257274Y-118006981D01*
X166192018Y-117944656D01*
X166153448Y-117908913D01*
X166144211Y-117901206D01*
X166044207Y-117852922D01*
X165973496Y-117842998D01*
X165935063Y-117845350D01*
X165900395Y-117855767D01*
X165861974Y-117879292D01*
X165812283Y-117920966D01*
X165743804Y-117985831D01*
X165707287Y-118021541D01*
X165629770Y-118098745D01*
X165577996Y-118154362D01*
X165546840Y-118195778D01*
X165531175Y-118230373D01*
X165525874Y-118265531D01*
X165525505Y-118283337D01*
X165543406Y-118376205D01*
X165585841Y-118453654D01*
X165610509Y-118482550D01*
X165662797Y-118538621D01*
X165740188Y-118619312D01*
X165840168Y-118722069D01*
X165960217Y-118844338D01*
X166097821Y-118983563D01*
X166250463Y-119137191D01*
X166415625Y-119302665D01*
X166590791Y-119477433D01*
X166761815Y-119647402D01*
X166993772Y-119877845D01*
X167197481Y-120081119D01*
X167375054Y-120259555D01*
X167528604Y-120415485D01*
X167660243Y-120551240D01*
X167772086Y-120669152D01*
X167866243Y-120771553D01*
X167944829Y-120860773D01*
X168009955Y-120939145D01*
X168063735Y-121009000D01*
X168108281Y-121072670D01*
X168145706Y-121132486D01*
X168178123Y-121190780D01*
X168200509Y-121235087D01*
X168281477Y-121439944D01*
X168321635Y-121637862D01*
X168320932Y-121827801D01*
X168279314Y-122008722D01*
X168243250Y-122095262D01*
X168215958Y-122146747D01*
X168182379Y-122198521D01*
X168138112Y-122255715D01*
X168078759Y-122323456D01*
X167999917Y-122406874D01*
X167897189Y-122511098D01*
X167823689Y-122584331D01*
X167704531Y-122700356D01*
X167593353Y-122804440D01*
X167495313Y-122891991D01*
X167415568Y-122958415D01*
X167359274Y-122999119D01*
X167355341Y-123001477D01*
X167173595Y-123084563D01*
X166984483Y-123126065D01*
X166788310Y-123126031D01*
X166585381Y-123084509D01*
X166376002Y-123001549D01*
X166160479Y-122877197D01*
X166043196Y-122794021D01*
X166005743Y-122762067D01*
X165938720Y-122700436D01*
X165842441Y-122609436D01*
X165717217Y-122489374D01*
X165563364Y-122340557D01*
X165381195Y-122163293D01*
X165171022Y-121957890D01*
X164933159Y-121724655D01*
X164667920Y-121463895D01*
X164375618Y-121175919D01*
X164056566Y-120861034D01*
X163711078Y-120519546D01*
X163339467Y-120151765D01*
X162942047Y-119757997D01*
X162519131Y-119338550D01*
X162286112Y-119107284D01*
X161960374Y-118783840D01*
X161642621Y-118468163D01*
X161334157Y-118161555D01*
X161036287Y-117865317D01*
X160750315Y-117580753D01*
X160477546Y-117309164D01*
X160219285Y-117051853D01*
X159976835Y-116810121D01*
X159751501Y-116585271D01*
X159544588Y-116378606D01*
X159357400Y-116191427D01*
X159191242Y-116025036D01*
X159047417Y-115880737D01*
X158927232Y-115759830D01*
X158831989Y-115663618D01*
X158762993Y-115593404D01*
X158721549Y-115550490D01*
X158708876Y-115536230D01*
X158723735Y-115518770D01*
X158766804Y-115474150D01*
X158835819Y-115404597D01*
X158928519Y-115312337D01*
X159042640Y-115199597D01*
X159175919Y-115068603D01*
X159326095Y-114921583D01*
X159490905Y-114760762D01*
X159668084Y-114588367D01*
X159855372Y-114406625D01*
X159947126Y-114317759D01*
X160139467Y-114131583D01*
X160323676Y-113953276D01*
X160497393Y-113785122D01*
X160658258Y-113629405D01*
X160803912Y-113488410D01*
X160931995Y-113364421D01*
X161040147Y-113259721D01*
X161126008Y-113176596D01*
X161187220Y-113117330D01*
X161221421Y-113084207D01*
X161227333Y-113078476D01*
X161238000Y-113066920D01*
X161243251Y-113054325D01*
X161240372Y-113037485D01*
X161226647Y-113013192D01*
X161199359Y-112978239D01*
X161155793Y-112929419D01*
X161093234Y-112863525D01*
X161008965Y-112777349D01*
X160900270Y-112667685D01*
X160764435Y-112531325D01*
X160761666Y-112528548D01*
X160653755Y-112420594D01*
X160520097Y-112287360D01*
X160365129Y-112133246D01*
X160193289Y-111962651D01*
X160009017Y-111779976D01*
X159816751Y-111589621D01*
X159620928Y-111395986D01*
X159425987Y-111203471D01*
X159245180Y-111025159D01*
X158236317Y-110030965D01*
X157869347Y-110390248D01*
X157502376Y-110749531D01*
X158768705Y-112017242D01*
X160035034Y-113284954D01*
X159743715Y-113564957D01*
X159452395Y-113844959D01*
X158720802Y-113118747D01*
X158549780Y-112949019D01*
X158366738Y-112767423D01*
X158178232Y-112580463D01*
X157990821Y-112394639D01*
X157811062Y-112216454D01*
X157645512Y-112052407D01*
X157500728Y-111909002D01*
X157448457Y-111857251D01*
X156907705Y-111321966D01*
X156284290Y-111925245D01*
X155660876Y-112528525D01*
X155274585Y-112143268D01*
X155170335Y-112038814D01*
X155076747Y-111944114D01*
X154997793Y-111863264D01*
X154937448Y-111800363D01*
X154899686Y-111759508D01*
X154888293Y-111745016D01*
X154903140Y-111728641D01*
X154946185Y-111685047D01*
X155015182Y-111616431D01*
X155107886Y-111524992D01*
X155222053Y-111412928D01*
X155355438Y-111282435D01*
X155505795Y-111135713D01*
X155670879Y-110974959D01*
X155848445Y-110802370D01*
X156036248Y-110620145D01*
X156142418Y-110517261D01*
X156344378Y-110321603D01*
X156544337Y-110127811D01*
X156739222Y-109938869D01*
X156925961Y-109757759D01*
X157101479Y-109587463D01*
X157262706Y-109430962D01*
X157406567Y-109291240D01*
X157529991Y-109171278D01*
X157629904Y-109074059D01*
X157703233Y-109002564D01*
X157716913Y-108989195D01*
X158037283Y-108675890D01*
X161696246Y-112307672D01*
G36*
X149658840Y-100761288D02*
G01*
X149852782Y-100810542D01*
X150056251Y-100899260D01*
X150271155Y-101027758D01*
X150290527Y-101040879D01*
X150322120Y-101064465D01*
X150365188Y-101100109D01*
X150420885Y-101148934D01*
X150490362Y-101212061D01*
X150574774Y-101290610D01*
X150675272Y-101385705D01*
X150793010Y-101498466D01*
X150929141Y-101630014D01*
X151084817Y-101781472D01*
X151261190Y-101953961D01*
X151459415Y-102148602D01*
X151680644Y-102366517D01*
X151926029Y-102608827D01*
X152196724Y-102876655D01*
X152493881Y-103171121D01*
X152818653Y-103493346D01*
X153163210Y-103835528D01*
X153438376Y-104108906D01*
X153152626Y-104382071D01*
X153061454Y-104468210D01*
X152980004Y-104543243D01*
X152913439Y-104602568D01*
X152866918Y-104641587D01*
X152845608Y-104655700D01*
X152827092Y-104641214D01*
X152781538Y-104599383D01*
X152711719Y-104532918D01*
X152620411Y-104444529D01*
X152510389Y-104336924D01*
X152384428Y-104212813D01*
X152245303Y-104074905D01*
X152095788Y-103925912D01*
X151998941Y-103829007D01*
X151818104Y-103648156D01*
X151624672Y-103455372D01*
X151424795Y-103256745D01*
X151224625Y-103058363D01*
X151030310Y-102866314D01*
X150848003Y-102686686D01*
X150683854Y-102525568D01*
X150557291Y-102401968D01*
X150397826Y-102247201D01*
X150265332Y-102119778D01*
X150156868Y-102017084D01*
X150069495Y-101936506D01*
X150000272Y-101875430D01*
X149946259Y-101831241D01*
X149904515Y-101801325D01*
X149872102Y-101783068D01*
X149852866Y-101775668D01*
X149787913Y-101760766D01*
X149739692Y-101764623D01*
X149703397Y-101779249D01*
X149678912Y-101798330D01*
X149627577Y-101843670D01*
X149552841Y-101911964D01*
X149458156Y-101999908D01*
X149346970Y-102104196D01*
X149222733Y-102221525D01*
X149088896Y-102348589D01*
X148948909Y-102482083D01*
X148806221Y-102618704D01*
X148664282Y-102755146D01*
X148526543Y-102888105D01*
X148396453Y-103014275D01*
X148277463Y-103130353D01*
X148173022Y-103233033D01*
X148086580Y-103319011D01*
X148021587Y-103384982D01*
X147981493Y-103427641D01*
X147976332Y-103433599D01*
X147932647Y-103514748D01*
X147930034Y-103604410D01*
X147968482Y-103700889D01*
X147978274Y-103716586D01*
X148000898Y-103743215D01*
X148051456Y-103797371D01*
X148127760Y-103876839D01*
X148227618Y-103979403D01*
X148348841Y-104102847D01*
X148489239Y-104244958D01*
X148646622Y-104403518D01*
X148818800Y-104576312D01*
X149003583Y-104761126D01*
X149198782Y-104955743D01*
X149402207Y-105157948D01*
X149444065Y-105199481D01*
X150856043Y-106600048D01*
X150654960Y-106804380D01*
X150570752Y-106888708D01*
X150487547Y-106969874D01*
X150414609Y-107038973D01*
X150361201Y-107087096D01*
X150358626Y-107089286D01*
X150263376Y-107169859D01*
X148769769Y-105685470D01*
X148512274Y-105429436D01*
X148283081Y-105201157D01*
X148080366Y-104998649D01*
X147902307Y-104819924D01*
X147747079Y-104662999D01*
X147612860Y-104525886D01*
X147497826Y-104406600D01*
X147400153Y-104303156D01*
X147318018Y-104213567D01*
X147249598Y-104135849D01*
X147193069Y-104068015D01*
X147146607Y-104008079D01*
X147108389Y-103954056D01*
X147076591Y-103903960D01*
X147049391Y-103855806D01*
X147024965Y-103807607D01*
X147003724Y-103762283D01*
X146928698Y-103560631D01*
X146893551Y-103370709D01*
X146898048Y-103190716D01*
X146917068Y-103096298D01*
X146933576Y-103039427D01*
X146953069Y-102986113D01*
X146978176Y-102933238D01*
X147011528Y-102877687D01*
X147055754Y-102816343D01*
X147113483Y-102746089D01*
X147187344Y-102663809D01*
X147279966Y-102566386D01*
X147393980Y-102450704D01*
X147532015Y-102313645D01*
X147696700Y-102152094D01*
X147792898Y-102058195D01*
X148009251Y-101847334D01*
X148197658Y-101664008D01*
X148360408Y-101506121D01*
X148499788Y-101371576D01*
X148618087Y-101258277D01*
X148717594Y-101164129D01*
X148800597Y-101087036D01*
X148869385Y-101024901D01*
X148926245Y-100975628D01*
X148973467Y-100937122D01*
X149013339Y-100907287D01*
X149048149Y-100884026D01*
X149080187Y-100865243D01*
X149111739Y-100848843D01*
X149115118Y-100847174D01*
X149291915Y-100779918D01*
X149472520Y-100751185D01*
X149658840Y-100761288D01*
G37*
X149658840Y-100761288D02*
X149852782Y-100810542D01*
X150056251Y-100899260D01*
X150271155Y-101027758D01*
X150290527Y-101040879D01*
X150322120Y-101064465D01*
X150365188Y-101100109D01*
X150420885Y-101148934D01*
X150490362Y-101212061D01*
X150574774Y-101290610D01*
X150675272Y-101385705D01*
X150793010Y-101498466D01*
X150929141Y-101630014D01*
X151084817Y-101781472D01*
X151261190Y-101953961D01*
X151459415Y-102148602D01*
X151680644Y-102366517D01*
X151926029Y-102608827D01*
X152196724Y-102876655D01*
X152493881Y-103171121D01*
X152818653Y-103493346D01*
X153163210Y-103835528D01*
X153438376Y-104108906D01*
X153152626Y-104382071D01*
X153061454Y-104468210D01*
X152980004Y-104543243D01*
X152913439Y-104602568D01*
X152866918Y-104641587D01*
X152845608Y-104655700D01*
X152827092Y-104641214D01*
X152781538Y-104599383D01*
X152711719Y-104532918D01*
X152620411Y-104444529D01*
X152510389Y-104336924D01*
X152384428Y-104212813D01*
X152245303Y-104074905D01*
X152095788Y-103925912D01*
X151998941Y-103829007D01*
X151818104Y-103648156D01*
X151624672Y-103455372D01*
X151424795Y-103256745D01*
X151224625Y-103058363D01*
X151030310Y-102866314D01*
X150848003Y-102686686D01*
X150683854Y-102525568D01*
X150557291Y-102401968D01*
X150397826Y-102247201D01*
X150265332Y-102119778D01*
X150156868Y-102017084D01*
X150069495Y-101936506D01*
X150000272Y-101875430D01*
X149946259Y-101831241D01*
X149904515Y-101801325D01*
X149872102Y-101783068D01*
X149852866Y-101775668D01*
X149787913Y-101760766D01*
X149739692Y-101764623D01*
X149703397Y-101779249D01*
X149678912Y-101798330D01*
X149627577Y-101843670D01*
X149552841Y-101911964D01*
X149458156Y-101999908D01*
X149346970Y-102104196D01*
X149222733Y-102221525D01*
X149088896Y-102348589D01*
X148948909Y-102482083D01*
X148806221Y-102618704D01*
X148664282Y-102755146D01*
X148526543Y-102888105D01*
X148396453Y-103014275D01*
X148277463Y-103130353D01*
X148173022Y-103233033D01*
X148086580Y-103319011D01*
X148021587Y-103384982D01*
X147981493Y-103427641D01*
X147976332Y-103433599D01*
X147932647Y-103514748D01*
X147930034Y-103604410D01*
X147968482Y-103700889D01*
X147978274Y-103716586D01*
X148000898Y-103743215D01*
X148051456Y-103797371D01*
X148127760Y-103876839D01*
X148227618Y-103979403D01*
X148348841Y-104102847D01*
X148489239Y-104244958D01*
X148646622Y-104403518D01*
X148818800Y-104576312D01*
X149003583Y-104761126D01*
X149198782Y-104955743D01*
X149402207Y-105157948D01*
X149444065Y-105199481D01*
X150856043Y-106600048D01*
X150654960Y-106804380D01*
X150570752Y-106888708D01*
X150487547Y-106969874D01*
X150414609Y-107038973D01*
X150361201Y-107087096D01*
X150358626Y-107089286D01*
X150263376Y-107169859D01*
X148769769Y-105685470D01*
X148512274Y-105429436D01*
X148283081Y-105201157D01*
X148080366Y-104998649D01*
X147902307Y-104819924D01*
X147747079Y-104662999D01*
X147612860Y-104525886D01*
X147497826Y-104406600D01*
X147400153Y-104303156D01*
X147318018Y-104213567D01*
X147249598Y-104135849D01*
X147193069Y-104068015D01*
X147146607Y-104008079D01*
X147108389Y-103954056D01*
X147076591Y-103903960D01*
X147049391Y-103855806D01*
X147024965Y-103807607D01*
X147003724Y-103762283D01*
X146928698Y-103560631D01*
X146893551Y-103370709D01*
X146898048Y-103190716D01*
X146917068Y-103096298D01*
X146933576Y-103039427D01*
X146953069Y-102986113D01*
X146978176Y-102933238D01*
X147011528Y-102877687D01*
X147055754Y-102816343D01*
X147113483Y-102746089D01*
X147187344Y-102663809D01*
X147279966Y-102566386D01*
X147393980Y-102450704D01*
X147532015Y-102313645D01*
X147696700Y-102152094D01*
X147792898Y-102058195D01*
X148009251Y-101847334D01*
X148197658Y-101664008D01*
X148360408Y-101506121D01*
X148499788Y-101371576D01*
X148618087Y-101258277D01*
X148717594Y-101164129D01*
X148800597Y-101087036D01*
X148869385Y-101024901D01*
X148926245Y-100975628D01*
X148973467Y-100937122D01*
X149013339Y-100907287D01*
X149048149Y-100884026D01*
X149080187Y-100865243D01*
X149111739Y-100848843D01*
X149115118Y-100847174D01*
X149291915Y-100779918D01*
X149472520Y-100751185D01*
X149658840Y-100761288D01*
G36*
X146591804Y-132934145D02*
G01*
X146825346Y-132947157D01*
X147025512Y-132985436D01*
X147193595Y-133049958D01*
X147330891Y-133141700D01*
X147438694Y-133261636D01*
X147518298Y-133410745D01*
X147570997Y-133590002D01*
X147586788Y-133684550D01*
X147605525Y-133900970D01*
X147600103Y-134085485D01*
X147570615Y-134236988D01*
X147533128Y-134327615D01*
X147445631Y-134455375D01*
X147331321Y-134564127D01*
X147187707Y-134655048D01*
X147012295Y-134729315D01*
X146802595Y-134788104D01*
X146556112Y-134832592D01*
X146429757Y-134848571D01*
X146330637Y-134859439D01*
X146198093Y-134873619D01*
X146040820Y-134890200D01*
X145867516Y-134908272D01*
X145686877Y-134926922D01*
X145507601Y-134945241D01*
X145490293Y-134946998D01*
X145281566Y-134968765D01*
X145111073Y-134988198D01*
X144974841Y-135006250D01*
X144868901Y-135023877D01*
X144789279Y-135042032D01*
X144732003Y-135061670D01*
X144693104Y-135083745D01*
X144668608Y-135109210D01*
X144654544Y-135139021D01*
X144651897Y-135148426D01*
X144650271Y-135182010D01*
X144652354Y-135247552D01*
X144657436Y-135336656D01*
X144664809Y-135440928D01*
X144673763Y-135551975D01*
X144683590Y-135661401D01*
X144693581Y-135760814D01*
X144703027Y-135841818D01*
X144711218Y-135896020D01*
X144716616Y-135914700D01*
X144738106Y-135913563D01*
X144798382Y-135908388D01*
X144894124Y-135899501D01*
X145022009Y-135887229D01*
X145178717Y-135871900D01*
X145360926Y-135853841D01*
X145565315Y-135833377D01*
X145788562Y-135810838D01*
X146027347Y-135786548D01*
X146254718Y-135763265D01*
X146504661Y-135737640D01*
X146742025Y-135713400D01*
X146963497Y-135690880D01*
X147165761Y-135670410D01*
X147345503Y-135652325D01*
X147499407Y-135636955D01*
X147624159Y-135624634D01*
X147716444Y-135615694D01*
X147772948Y-135610467D01*
X147790476Y-135609218D01*
X147794588Y-135630817D01*
X147801686Y-135685385D01*
X147810842Y-135764011D01*
X147821130Y-135857783D01*
X147831623Y-135957789D01*
X147841394Y-136055117D01*
X147849517Y-136140856D01*
X147855065Y-136206095D01*
X147857111Y-136241922D01*
X147856705Y-136246053D01*
X147835143Y-136248828D01*
X147774795Y-136255505D01*
X147678993Y-136265740D01*
X147551070Y-136279185D01*
X147394358Y-136295496D01*
X147212191Y-136314327D01*
X147007900Y-136335332D01*
X146784820Y-136358164D01*
X146546283Y-136382480D01*
X146326376Y-136404814D01*
X146062349Y-136431597D01*
X145799793Y-136458256D01*
X145543460Y-136484306D01*
X145298101Y-136509263D01*
X145068468Y-136532644D01*
X144859311Y-136553964D01*
X144675383Y-136572740D01*
X144521434Y-136588488D01*
X144402217Y-136600724D01*
X144352806Y-136605819D01*
X143903236Y-136652303D01*
X143892888Y-136587442D01*
X143884311Y-136525328D01*
X143872952Y-136430783D01*
X143859487Y-136310592D01*
X143844587Y-136171542D01*
X143828928Y-136020416D01*
X143813182Y-135864002D01*
X143798024Y-135709085D01*
X143784127Y-135562451D01*
X143772165Y-135430885D01*
X143762812Y-135321172D01*
X143756741Y-135240099D01*
X143754626Y-135194950D01*
X143774021Y-135024581D01*
X143831554Y-134871330D01*
X143926247Y-134736126D01*
X144057123Y-134619898D01*
X144223202Y-134523577D01*
X144423507Y-134448091D01*
X144582080Y-134408451D01*
X144637857Y-134399165D01*
X144730202Y-134386430D01*
X144853548Y-134370903D01*
X145002330Y-134353240D01*
X145170981Y-134334098D01*
X145353936Y-134314134D01*
X145545629Y-134294003D01*
X145596126Y-134288832D01*
X145785451Y-134269242D01*
X145964318Y-134250150D01*
X146127725Y-134232132D01*
X146270673Y-134215764D01*
X146388159Y-134201625D01*
X146475184Y-134190290D01*
X146526746Y-134182336D01*
X146535184Y-134180537D01*
X146604461Y-134152296D01*
X146665138Y-134111148D01*
X146670458Y-134106091D01*
X146696868Y-134076926D01*
X146711735Y-134047527D01*
X146717126Y-134006418D01*
X146715107Y-133942122D01*
X146710784Y-133882247D01*
X146700378Y-133792887D01*
X146685124Y-133716472D01*
X146667861Y-133666768D01*
X146665555Y-133662892D01*
X146650214Y-133640803D01*
X146633310Y-133622202D01*
X146611718Y-133607154D01*
X146582314Y-133595724D01*
X146541973Y-133587980D01*
X146487569Y-133583985D01*
X146415979Y-133583808D01*
X146324077Y-133587512D01*
X146208738Y-133595164D01*
X146066838Y-133606830D01*
X145895252Y-133622576D01*
X145690855Y-133642467D01*
X145450522Y-133666569D01*
X145178333Y-133694215D01*
X144948347Y-133717546D01*
X144730100Y-133739525D01*
X144527365Y-133759784D01*
X144343918Y-133777951D01*
X144183535Y-133793658D01*
X144049991Y-133806536D01*
X143947059Y-133816214D01*
X143878517Y-133822322D01*
X143848138Y-133824492D01*
X143847723Y-133824491D01*
X143829978Y-133821587D01*
X143816509Y-133809215D01*
X143805702Y-133780981D01*
X143795949Y-133730489D01*
X143785637Y-133651341D01*
X143773156Y-133537144D01*
X143771586Y-133522206D01*
X143761125Y-133413696D01*
X143753909Y-133320672D01*
X143750412Y-133250997D01*
X143751110Y-133212531D01*
X143752572Y-133207733D01*
X143777070Y-133201782D01*
X143839497Y-133192574D01*
X143935609Y-133180519D01*
X144061160Y-133166025D01*
X144211907Y-133149502D01*
X144383604Y-133131359D01*
X144572007Y-133112004D01*
X144772871Y-133091847D01*
X144981950Y-133071296D01*
X145195001Y-133050761D01*
X145407778Y-133030651D01*
X145616037Y-133011375D01*
X145815532Y-132993341D01*
X146002019Y-132976959D01*
X146171254Y-132962638D01*
X146318991Y-132950787D01*
X146440986Y-132941815D01*
X146532993Y-132936131D01*
X146590768Y-132934143D01*
X146591804Y-132934145D01*
G37*
X146591804Y-132934145D02*
X146825346Y-132947157D01*
X147025512Y-132985436D01*
X147193595Y-133049958D01*
X147330891Y-133141700D01*
X147438694Y-133261636D01*
X147518298Y-133410745D01*
X147570997Y-133590002D01*
X147586788Y-133684550D01*
X147605525Y-133900970D01*
X147600103Y-134085485D01*
X147570615Y-134236988D01*
X147533128Y-134327615D01*
X147445631Y-134455375D01*
X147331321Y-134564127D01*
X147187707Y-134655048D01*
X147012295Y-134729315D01*
X146802595Y-134788104D01*
X146556112Y-134832592D01*
X146429757Y-134848571D01*
X146330637Y-134859439D01*
X146198093Y-134873619D01*
X146040820Y-134890200D01*
X145867516Y-134908272D01*
X145686877Y-134926922D01*
X145507601Y-134945241D01*
X145490293Y-134946998D01*
X145281566Y-134968765D01*
X145111073Y-134988198D01*
X144974841Y-135006250D01*
X144868901Y-135023877D01*
X144789279Y-135042032D01*
X144732003Y-135061670D01*
X144693104Y-135083745D01*
X144668608Y-135109210D01*
X144654544Y-135139021D01*
X144651897Y-135148426D01*
X144650271Y-135182010D01*
X144652354Y-135247552D01*
X144657436Y-135336656D01*
X144664809Y-135440928D01*
X144673763Y-135551975D01*
X144683590Y-135661401D01*
X144693581Y-135760814D01*
X144703027Y-135841818D01*
X144711218Y-135896020D01*
X144716616Y-135914700D01*
X144738106Y-135913563D01*
X144798382Y-135908388D01*
X144894124Y-135899501D01*
X145022009Y-135887229D01*
X145178717Y-135871900D01*
X145360926Y-135853841D01*
X145565315Y-135833377D01*
X145788562Y-135810838D01*
X146027347Y-135786548D01*
X146254718Y-135763265D01*
X146504661Y-135737640D01*
X146742025Y-135713400D01*
X146963497Y-135690880D01*
X147165761Y-135670410D01*
X147345503Y-135652325D01*
X147499407Y-135636955D01*
X147624159Y-135624634D01*
X147716444Y-135615694D01*
X147772948Y-135610467D01*
X147790476Y-135609218D01*
X147794588Y-135630817D01*
X147801686Y-135685385D01*
X147810842Y-135764011D01*
X147821130Y-135857783D01*
X147831623Y-135957789D01*
X147841394Y-136055117D01*
X147849517Y-136140856D01*
X147855065Y-136206095D01*
X147857111Y-136241922D01*
X147856705Y-136246053D01*
X147835143Y-136248828D01*
X147774795Y-136255505D01*
X147678993Y-136265740D01*
X147551070Y-136279185D01*
X147394358Y-136295496D01*
X147212191Y-136314327D01*
X147007900Y-136335332D01*
X146784820Y-136358164D01*
X146546283Y-136382480D01*
X146326376Y-136404814D01*
X146062349Y-136431597D01*
X145799793Y-136458256D01*
X145543460Y-136484306D01*
X145298101Y-136509263D01*
X145068468Y-136532644D01*
X144859311Y-136553964D01*
X144675383Y-136572740D01*
X144521434Y-136588488D01*
X144402217Y-136600724D01*
X144352806Y-136605819D01*
X143903236Y-136652303D01*
X143892888Y-136587442D01*
X143884311Y-136525328D01*
X143872952Y-136430783D01*
X143859487Y-136310592D01*
X143844587Y-136171542D01*
X143828928Y-136020416D01*
X143813182Y-135864002D01*
X143798024Y-135709085D01*
X143784127Y-135562451D01*
X143772165Y-135430885D01*
X143762812Y-135321172D01*
X143756741Y-135240099D01*
X143754626Y-135194950D01*
X143774021Y-135024581D01*
X143831554Y-134871330D01*
X143926247Y-134736126D01*
X144057123Y-134619898D01*
X144223202Y-134523577D01*
X144423507Y-134448091D01*
X144582080Y-134408451D01*
X144637857Y-134399165D01*
X144730202Y-134386430D01*
X144853548Y-134370903D01*
X145002330Y-134353240D01*
X145170981Y-134334098D01*
X145353936Y-134314134D01*
X145545629Y-134294003D01*
X145596126Y-134288832D01*
X145785451Y-134269242D01*
X145964318Y-134250150D01*
X146127725Y-134232132D01*
X146270673Y-134215764D01*
X146388159Y-134201625D01*
X146475184Y-134190290D01*
X146526746Y-134182336D01*
X146535184Y-134180537D01*
X146604461Y-134152296D01*
X146665138Y-134111148D01*
X146670458Y-134106091D01*
X146696868Y-134076926D01*
X146711735Y-134047527D01*
X146717126Y-134006418D01*
X146715107Y-133942122D01*
X146710784Y-133882247D01*
X146700378Y-133792887D01*
X146685124Y-133716472D01*
X146667861Y-133666768D01*
X146665555Y-133662892D01*
X146650214Y-133640803D01*
X146633310Y-133622202D01*
X146611718Y-133607154D01*
X146582314Y-133595724D01*
X146541973Y-133587980D01*
X146487569Y-133583985D01*
X146415979Y-133583808D01*
X146324077Y-133587512D01*
X146208738Y-133595164D01*
X146066838Y-133606830D01*
X145895252Y-133622576D01*
X145690855Y-133642467D01*
X145450522Y-133666569D01*
X145178333Y-133694215D01*
X144948347Y-133717546D01*
X144730100Y-133739525D01*
X144527365Y-133759784D01*
X144343918Y-133777951D01*
X144183535Y-133793658D01*
X144049991Y-133806536D01*
X143947059Y-133816214D01*
X143878517Y-133822322D01*
X143848138Y-133824492D01*
X143847723Y-133824491D01*
X143829978Y-133821587D01*
X143816509Y-133809215D01*
X143805702Y-133780981D01*
X143795949Y-133730489D01*
X143785637Y-133651341D01*
X143773156Y-133537144D01*
X143771586Y-133522206D01*
X143761125Y-133413696D01*
X143753909Y-133320672D01*
X143750412Y-133250997D01*
X143751110Y-133212531D01*
X143752572Y-133207733D01*
X143777070Y-133201782D01*
X143839497Y-133192574D01*
X143935609Y-133180519D01*
X144061160Y-133166025D01*
X144211907Y-133149502D01*
X144383604Y-133131359D01*
X144572007Y-133112004D01*
X144772871Y-133091847D01*
X144981950Y-133071296D01*
X145195001Y-133050761D01*
X145407778Y-133030651D01*
X145616037Y-133011375D01*
X145815532Y-132993341D01*
X146002019Y-132976959D01*
X146171254Y-132962638D01*
X146318991Y-132950787D01*
X146440986Y-132941815D01*
X146532993Y-132936131D01*
X146590768Y-132934143D01*
X146591804Y-132934145D01*
G36*
X141083973Y-89758453D02*
G01*
X141129108Y-89798440D01*
X141195956Y-89860268D01*
X141280302Y-89939998D01*
X141377930Y-90033687D01*
X141469977Y-90123081D01*
X141857991Y-90501914D01*
X141097100Y-91243951D01*
X140931888Y-91405204D01*
X140762737Y-91570551D01*
X140594709Y-91735027D01*
X140432866Y-91893665D01*
X140282272Y-92041503D01*
X140147987Y-92173574D01*
X140035075Y-92284915D01*
X139965793Y-92353485D01*
X139595376Y-92720982D01*
X140852653Y-93967973D01*
X142109929Y-95214964D01*
X142705036Y-94635724D01*
X143300143Y-94056483D01*
X144101429Y-94843301D01*
X143824941Y-95108941D01*
X143776930Y-95155269D01*
X143700585Y-95229204D01*
X143597894Y-95328813D01*
X143470847Y-95452162D01*
X143321430Y-95597319D01*
X143151633Y-95762349D01*
X142963445Y-95945319D01*
X142758852Y-96144296D01*
X142539844Y-96357346D01*
X142308410Y-96582536D01*
X142066537Y-96817932D01*
X141816214Y-97061600D01*
X141559429Y-97311608D01*
X141364084Y-97501831D01*
X141109022Y-97750155D01*
X140862186Y-97990337D01*
X140625285Y-98220720D01*
X140400024Y-98439651D01*
X140188112Y-98645474D01*
X139991255Y-98836536D01*
X139811161Y-99011180D01*
X139649536Y-99167753D01*
X139508089Y-99304599D01*
X139388525Y-99420064D01*
X139292553Y-99512494D01*
X139221880Y-99580232D01*
X139178212Y-99621625D01*
X139163319Y-99635032D01*
X139144304Y-99622514D01*
X139099338Y-99584185D01*
X139032648Y-99523919D01*
X138948464Y-99445590D01*
X138851011Y-99353075D01*
X138761637Y-99266889D01*
X138657001Y-99164038D01*
X138563658Y-99069874D01*
X138485612Y-98988639D01*
X138426871Y-98924571D01*
X138391440Y-98881909D01*
X138382614Y-98865756D01*
X138398334Y-98847541D01*
X138442393Y-98801814D01*
X138512772Y-98730570D01*
X138607454Y-98635803D01*
X138724420Y-98519508D01*
X138861653Y-98383679D01*
X139017134Y-98230312D01*
X139188846Y-98061399D01*
X139374771Y-97878936D01*
X139572891Y-97684917D01*
X139781188Y-97481337D01*
X139944626Y-97321871D01*
X140159187Y-97112586D01*
X140365095Y-96911567D01*
X140560337Y-96720788D01*
X140742898Y-96542227D01*
X140910765Y-96377858D01*
X141061922Y-96229658D01*
X141194357Y-96099602D01*
X141306054Y-95989666D01*
X141395001Y-95901826D01*
X141459182Y-95838058D01*
X141496584Y-95800338D01*
X141505864Y-95790299D01*
X141492001Y-95773527D01*
X141450171Y-95729262D01*
X141382574Y-95659712D01*
X141291408Y-95567086D01*
X141178873Y-95453592D01*
X141047167Y-95321439D01*
X140898488Y-95172833D01*
X140735037Y-95009985D01*
X140559012Y-94835102D01*
X140372611Y-94650392D01*
X140254175Y-94533268D01*
X138996999Y-93290964D01*
X138314416Y-93951773D01*
X138173317Y-94088095D01*
X138041628Y-94214798D01*
X137922436Y-94328948D01*
X137818831Y-94427611D01*
X137733902Y-94507852D01*
X137670739Y-94566738D01*
X137632430Y-94601335D01*
X137621792Y-94609572D01*
X137604682Y-94594436D01*
X137561703Y-94553375D01*
X137496938Y-94490379D01*
X137414470Y-94409438D01*
X137318385Y-94314542D01*
X137225046Y-94221903D01*
X136838340Y-93837243D01*
X138942954Y-91790745D01*
X139193319Y-91547413D01*
X139435438Y-91312325D01*
X139667572Y-91087162D01*
X139887979Y-90873602D01*
X140094915Y-90673326D01*
X140286641Y-90488014D01*
X140461414Y-90319346D01*
X140617492Y-90169001D01*
X140753135Y-90038659D01*
X140866599Y-89930001D01*
X140956144Y-89844707D01*
X141020027Y-89784455D01*
X141056508Y-89750926D01*
X141064766Y-89744248D01*
X141083973Y-89758453D01*
G37*
X141083973Y-89758453D02*
X141129108Y-89798440D01*
X141195956Y-89860268D01*
X141280302Y-89939998D01*
X141377930Y-90033687D01*
X141469977Y-90123081D01*
X141857991Y-90501914D01*
X141097100Y-91243951D01*
X140931888Y-91405204D01*
X140762737Y-91570551D01*
X140594709Y-91735027D01*
X140432866Y-91893665D01*
X140282272Y-92041503D01*
X140147987Y-92173574D01*
X140035075Y-92284915D01*
X139965793Y-92353485D01*
X139595376Y-92720982D01*
X140852653Y-93967973D01*
X142109929Y-95214964D01*
X142705036Y-94635724D01*
X143300143Y-94056483D01*
X144101429Y-94843301D01*
X143824941Y-95108941D01*
X143776930Y-95155269D01*
X143700585Y-95229204D01*
X143597894Y-95328813D01*
X143470847Y-95452162D01*
X143321430Y-95597319D01*
X143151633Y-95762349D01*
X142963445Y-95945319D01*
X142758852Y-96144296D01*
X142539844Y-96357346D01*
X142308410Y-96582536D01*
X142066537Y-96817932D01*
X141816214Y-97061600D01*
X141559429Y-97311608D01*
X141364084Y-97501831D01*
X141109022Y-97750155D01*
X140862186Y-97990337D01*
X140625285Y-98220720D01*
X140400024Y-98439651D01*
X140188112Y-98645474D01*
X139991255Y-98836536D01*
X139811161Y-99011180D01*
X139649536Y-99167753D01*
X139508089Y-99304599D01*
X139388525Y-99420064D01*
X139292553Y-99512494D01*
X139221880Y-99580232D01*
X139178212Y-99621625D01*
X139163319Y-99635032D01*
X139144304Y-99622514D01*
X139099338Y-99584185D01*
X139032648Y-99523919D01*
X138948464Y-99445590D01*
X138851011Y-99353075D01*
X138761637Y-99266889D01*
X138657001Y-99164038D01*
X138563658Y-99069874D01*
X138485612Y-98988639D01*
X138426871Y-98924571D01*
X138391440Y-98881909D01*
X138382614Y-98865756D01*
X138398334Y-98847541D01*
X138442393Y-98801814D01*
X138512772Y-98730570D01*
X138607454Y-98635803D01*
X138724420Y-98519508D01*
X138861653Y-98383679D01*
X139017134Y-98230312D01*
X139188846Y-98061399D01*
X139374771Y-97878936D01*
X139572891Y-97684917D01*
X139781188Y-97481337D01*
X139944626Y-97321871D01*
X140159187Y-97112586D01*
X140365095Y-96911567D01*
X140560337Y-96720788D01*
X140742898Y-96542227D01*
X140910765Y-96377858D01*
X141061922Y-96229658D01*
X141194357Y-96099602D01*
X141306054Y-95989666D01*
X141395001Y-95901826D01*
X141459182Y-95838058D01*
X141496584Y-95800338D01*
X141505864Y-95790299D01*
X141492001Y-95773527D01*
X141450171Y-95729262D01*
X141382574Y-95659712D01*
X141291408Y-95567086D01*
X141178873Y-95453592D01*
X141047167Y-95321439D01*
X140898488Y-95172833D01*
X140735037Y-95009985D01*
X140559012Y-94835102D01*
X140372611Y-94650392D01*
X140254175Y-94533268D01*
X138996999Y-93290964D01*
X138314416Y-93951773D01*
X138173317Y-94088095D01*
X138041628Y-94214798D01*
X137922436Y-94328948D01*
X137818831Y-94427611D01*
X137733902Y-94507852D01*
X137670739Y-94566738D01*
X137632430Y-94601335D01*
X137621792Y-94609572D01*
X137604682Y-94594436D01*
X137561703Y-94553375D01*
X137496938Y-94490379D01*
X137414470Y-94409438D01*
X137318385Y-94314542D01*
X137225046Y-94221903D01*
X136838340Y-93837243D01*
X138942954Y-91790745D01*
X139193319Y-91547413D01*
X139435438Y-91312325D01*
X139667572Y-91087162D01*
X139887979Y-90873602D01*
X140094915Y-90673326D01*
X140286641Y-90488014D01*
X140461414Y-90319346D01*
X140617492Y-90169001D01*
X140753135Y-90038659D01*
X140866599Y-89930001D01*
X140956144Y-89844707D01*
X141020027Y-89784455D01*
X141056508Y-89750926D01*
X141064766Y-89744248D01*
X141083973Y-89758453D01*
G36*
X130615779Y-83737862D02*
G01*
X130682373Y-83413842D01*
X130751878Y-83074336D01*
X130823802Y-82721707D01*
X130897651Y-82358320D01*
X130934961Y-82174231D01*
X131596556Y-78906915D01*
X132093149Y-78901252D01*
X132589741Y-78895589D01*
X133559875Y-84082165D01*
X134864626Y-84082165D01*
X135224460Y-84082165D01*
X136071126Y-84082165D01*
X136255783Y-84081973D01*
X136426552Y-84081425D01*
X136578952Y-84080564D01*
X136708503Y-84079432D01*
X136810724Y-84078070D01*
X136881135Y-84076521D01*
X136915254Y-84074827D01*
X136917793Y-84074210D01*
X136909378Y-84054171D01*
X136884908Y-83998083D01*
X136845545Y-83908571D01*
X136792452Y-83788258D01*
X136726793Y-83639771D01*
X136649728Y-83465733D01*
X136562421Y-83268769D01*
X136466034Y-83051503D01*
X136361730Y-82816562D01*
X136250671Y-82566568D01*
X136134020Y-82304148D01*
X136071658Y-82163918D01*
X135225523Y-80261581D01*
X135224991Y-82171873D01*
X135224460Y-84082165D01*
X134864626Y-84082165D01*
X134864626Y-79150331D01*
X134335460Y-79150331D01*
X134335460Y-78896331D01*
X135134501Y-78896712D01*
X135933543Y-78897092D01*
X136833126Y-80964573D01*
X136957008Y-81249254D01*
X137077528Y-81526141D01*
X137193440Y-81792378D01*
X137303498Y-82045108D01*
X137406459Y-82281474D01*
X137501078Y-82498619D01*
X137586108Y-82693687D01*
X137660305Y-82863820D01*
X137722424Y-83006161D01*
X137771220Y-83117854D01*
X137805448Y-83196041D01*
X137822288Y-83234318D01*
X137911866Y-83436581D01*
X137906521Y-81605665D01*
X137905569Y-81272547D01*
X137904647Y-80978972D01*
X137903558Y-80722148D01*
X137902102Y-80499286D01*
X137900081Y-80307596D01*
X137897299Y-80144285D01*
X137893556Y-80006565D01*
X137888656Y-79891645D01*
X137882398Y-79796734D01*
X137874587Y-79719042D01*
X137865022Y-79655778D01*
X137853508Y-79604153D01*
X137839845Y-79561375D01*
X137823835Y-79524654D01*
X137805280Y-79491201D01*
X137783983Y-79458223D01*
X137759745Y-79422932D01*
X137750662Y-79409710D01*
X137655293Y-79306064D01*
X137530379Y-79225781D01*
X137384271Y-79173360D01*
X137279863Y-79156170D01*
X137150626Y-79144452D01*
X137150626Y-78896331D01*
X138886293Y-78896331D01*
X138886293Y-79144535D01*
X138750070Y-79155470D01*
X138614151Y-79179102D01*
X138498803Y-79224507D01*
X138411796Y-79288031D01*
X138378303Y-79330231D01*
X138362066Y-79357212D01*
X138347593Y-79384292D01*
X138334782Y-79413940D01*
X138323532Y-79448626D01*
X138313741Y-79490818D01*
X138305307Y-79542985D01*
X138298127Y-79607598D01*
X138292101Y-79687126D01*
X138287126Y-79784038D01*
X138283100Y-79900803D01*
X138279921Y-80039890D01*
X138277487Y-80203770D01*
X138275698Y-80394910D01*
X138274449Y-80615782D01*
X138273641Y-80868853D01*
X138273170Y-81156594D01*
X138272935Y-81481473D01*
X138272834Y-81845960D01*
X138272827Y-81886123D01*
X138272460Y-84082165D01*
X139246126Y-84082165D01*
X139246126Y-83764665D01*
X139500126Y-83764665D01*
X139500415Y-83875790D01*
X139502995Y-83949591D01*
X139509233Y-84012524D01*
X139513467Y-84034540D01*
X139526230Y-84082165D01*
X140254012Y-84082165D01*
X140424758Y-84081840D01*
X140581264Y-84080918D01*
X140718697Y-84079475D01*
X140832225Y-84077588D01*
X140917015Y-84075335D01*
X140968233Y-84072792D01*
X140981793Y-84070564D01*
X140969683Y-84043724D01*
X140934702Y-83985700D01*
X140878868Y-83899548D01*
X140804202Y-83788325D01*
X140712723Y-83655088D01*
X140610589Y-83508779D01*
X140400653Y-83206822D01*
X140216132Y-82933719D01*
X140055217Y-82685906D01*
X139916100Y-82459816D01*
X139796974Y-82251886D01*
X139696028Y-82058550D01*
X139611456Y-81876242D01*
X139541449Y-81701399D01*
X139484198Y-81530454D01*
X139437894Y-81359843D01*
X139400731Y-81186002D01*
X139384026Y-81090752D01*
X139346022Y-80772382D01*
X139337110Y-80465594D01*
X139356580Y-80173932D01*
X139403724Y-79900937D01*
X139477833Y-79650152D01*
X139578199Y-79425117D01*
X139704112Y-79229376D01*
X139772858Y-79147475D01*
X139924568Y-79002838D01*
X140080498Y-78897809D01*
X140246476Y-78829693D01*
X140428333Y-78795793D01*
X140544470Y-78790749D01*
X140719160Y-78801392D01*
X140874064Y-78835513D01*
X141027046Y-78897233D01*
X141045293Y-78906271D01*
X141119107Y-78948702D01*
X141203757Y-79005409D01*
X141290058Y-79069254D01*
X141368822Y-79133095D01*
X141430865Y-79189792D01*
X141466999Y-79232206D01*
X141468919Y-79235545D01*
X141493162Y-79268673D01*
X141507886Y-79277331D01*
X141522526Y-79259224D01*
X141550583Y-79209760D01*
X141588190Y-79136229D01*
X141631478Y-79045919D01*
X141637049Y-79033915D01*
X141749609Y-78790498D01*
X141997793Y-78790498D01*
X141997793Y-81330498D01*
X141750695Y-81330498D01*
X141724942Y-81092373D01*
X141678761Y-80753642D01*
X141616574Y-80438619D01*
X141539394Y-80149414D01*
X141448237Y-79888142D01*
X141344119Y-79656915D01*
X141228054Y-79457845D01*
X141101059Y-79293046D01*
X140964147Y-79164629D01*
X140818336Y-79074709D01*
X140740771Y-79044321D01*
X140646072Y-79027680D01*
X140530698Y-79026732D01*
X140412380Y-79040034D01*
X140308848Y-79066141D01*
X140269864Y-79082667D01*
X140138611Y-79172233D01*
X140038665Y-79290228D01*
X139970127Y-79436473D01*
X139933100Y-79610790D01*
X139927445Y-79681578D01*
X139928185Y-79795330D01*
X139942472Y-79911891D01*
X139971861Y-80034318D01*
X140017905Y-80165664D01*
X140082156Y-80308986D01*
X140166168Y-80467338D01*
X140271494Y-80643776D01*
X140399687Y-80841355D01*
X140552301Y-81063130D01*
X140730888Y-81312156D01*
X140814116Y-81425748D01*
X141051251Y-81751435D01*
X141261798Y-82049031D01*
X141447608Y-82321799D01*
X141610531Y-82573007D01*
X141752418Y-82805919D01*
X141875121Y-83023801D01*
X141980491Y-83229919D01*
X142070378Y-83427538D01*
X142146633Y-83619924D01*
X142211108Y-83810341D01*
X142258031Y-83973086D01*
X142279373Y-84054473D01*
X142295522Y-84122641D01*
X142307204Y-84185550D01*
X142315148Y-84251162D01*
X142320080Y-84327436D01*
X142322729Y-84422336D01*
X142323821Y-84543822D01*
X142324081Y-84695998D01*
X142323692Y-84858725D01*
X142321981Y-84986901D01*
X142318420Y-85088303D01*
X142312484Y-85170705D01*
X142303647Y-85241883D01*
X142291383Y-85309612D01*
X142278697Y-85366768D01*
X142200982Y-85631870D01*
X142099363Y-85870346D01*
X141975690Y-86079938D01*
X141831815Y-86258387D01*
X141669589Y-86403436D01*
X141490863Y-86512826D01*
X141297489Y-86584299D01*
X141276156Y-86589572D01*
X141141401Y-86610767D01*
X140984514Y-86618878D01*
X140823629Y-86613886D01*
X140676880Y-86595770D01*
X140649326Y-86590246D01*
X140440526Y-86523635D01*
X140234028Y-86415304D01*
X140030851Y-86265846D01*
X139920403Y-86165860D01*
X139855204Y-86105204D01*
X139812606Y-86072483D01*
X139786954Y-86064109D01*
X139774401Y-86073207D01*
X139757343Y-86102541D01*
X139724314Y-86160769D01*
X139679890Y-86239776D01*
X139628650Y-86331446D01*
X139622565Y-86342365D01*
X139489543Y-86581150D01*
X139373126Y-86575199D01*
X139256710Y-86569248D01*
X139251227Y-85473873D01*
X139245745Y-84378498D01*
X138272460Y-84378498D01*
X138272460Y-86516331D01*
X138003243Y-86516331D01*
X137529953Y-85447415D01*
X137056663Y-84378498D01*
X135218862Y-84378498D01*
X135230594Y-84944706D01*
X135235599Y-85146493D01*
X135241957Y-85311809D01*
X135250487Y-85446513D01*
X135262006Y-85556463D01*
X135277329Y-85647518D01*
X135297275Y-85725538D01*
X135322661Y-85796381D01*
X135354303Y-85865905D01*
X135360890Y-85879056D01*
X135449030Y-86006953D01*
X135570480Y-86111051D01*
X135722453Y-86189667D01*
X135902161Y-86241117D01*
X135981168Y-86253711D01*
X136092293Y-86267785D01*
X136092293Y-86516331D01*
X132134126Y-86516331D01*
X132134126Y-86262331D01*
X132697110Y-86262331D01*
X132376034Y-84389081D01*
X131642988Y-84383517D01*
X130981746Y-84378498D01*
X133611204Y-84378498D01*
X133622784Y-84426123D01*
X133629051Y-84456702D01*
X133642143Y-84524271D01*
X133661186Y-84624194D01*
X133685304Y-84751834D01*
X133713623Y-84902554D01*
X133745269Y-85071717D01*
X133779365Y-85254687D01*
X133795514Y-85341581D01*
X133830315Y-85528440D01*
X133862996Y-85702864D01*
X133892698Y-85860343D01*
X133918561Y-85996369D01*
X133939727Y-86106433D01*
X133955336Y-86186024D01*
X133964529Y-86230635D01*
X133966399Y-86238264D01*
X133980343Y-86251566D01*
X134015570Y-86259162D01*
X134078734Y-86261661D01*
X134176487Y-86259676D01*
X134193103Y-86259082D01*
X134300732Y-86253490D01*
X134379606Y-86244265D01*
X134443294Y-86228685D01*
X134505366Y-86204029D01*
X134533058Y-86190880D01*
X134641104Y-86123423D01*
X134721439Y-86037014D01*
X134779847Y-85923835D01*
X134814057Y-85811324D01*
X134825382Y-85756918D01*
X134834579Y-85693100D01*
X134841957Y-85614492D01*
X134847830Y-85515714D01*
X134852506Y-85391388D01*
X134856297Y-85236135D01*
X134859515Y-85044576D01*
X134859879Y-85018790D01*
X134868764Y-84378498D01*
X133611204Y-84378498D01*
X130981746Y-84378498D01*
X130916136Y-84378000D01*
X139541528Y-84378000D01*
X139551457Y-84425874D01*
X139559472Y-84465645D01*
X139573478Y-84536221D01*
X139591349Y-84626857D01*
X139606998Y-84706581D01*
X139678080Y-85008538D01*
X139767252Y-85285340D01*
X139872928Y-85535322D01*
X139993523Y-85756817D01*
X140127454Y-85948160D01*
X140273136Y-86107682D01*
X140428983Y-86233719D01*
X140593412Y-86324603D01*
X140764836Y-86378669D01*
X140941673Y-86394249D01*
X141122336Y-86369678D01*
X141174606Y-86354996D01*
X141249792Y-86321962D01*
X141329008Y-86273142D01*
X141361502Y-86247942D01*
X141474771Y-86128198D01*
X141553606Y-85990693D01*
X141599359Y-85831791D01*
X141613377Y-85647854D01*
X141610966Y-85575677D01*
X141592014Y-85406258D01*
X141553407Y-85233314D01*
X141492769Y-85049248D01*
X141407723Y-84846467D01*
X141335728Y-84695998D01*
X141182876Y-84389081D01*
X140362202Y-84383541D01*
X139541528Y-84378000D01*
X130916136Y-84378000D01*
X130909943Y-84377953D01*
X130897897Y-84436434D01*
X130868190Y-84587001D01*
X130837619Y-84753237D01*
X130807380Y-84927549D01*
X130778666Y-85102339D01*
X130752672Y-85270013D01*
X130730593Y-85422975D01*
X130713623Y-85553629D01*
X130702956Y-85654379D01*
X130700259Y-85693221D01*
X130697161Y-85829803D01*
X130704096Y-85933195D01*
X130723199Y-86011798D01*
X130756600Y-86074010D01*
X130806432Y-86128232D01*
X130811923Y-86133118D01*
X130882574Y-86183237D01*
X130967895Y-86218762D01*
X131077976Y-86243077D01*
X131176335Y-86255356D01*
X131308626Y-86268453D01*
X131308626Y-86516331D01*
X129615293Y-86516331D01*
X129615293Y-86272268D01*
X129719339Y-86235314D01*
X129844952Y-86169255D01*
X129962177Y-86065221D01*
X130067809Y-85927250D01*
X130158645Y-85759382D01*
X130218622Y-85605928D01*
X130228941Y-85566862D01*
X130247110Y-85488658D01*
X130272634Y-85373681D01*
X130305019Y-85224296D01*
X130343772Y-85042868D01*
X130388400Y-84831762D01*
X130438408Y-84593344D01*
X130493303Y-84329977D01*
X130550227Y-84055429D01*
X130977186Y-84055429D01*
X130984341Y-84063629D01*
X131003688Y-84069964D01*
X131039466Y-84074671D01*
X131095918Y-84077990D01*
X131177282Y-84080160D01*
X131287801Y-84081419D01*
X131431714Y-84082008D01*
X131613261Y-84082163D01*
X131635283Y-84082165D01*
X131829587Y-84081808D01*
X131985077Y-84080646D01*
X132105268Y-84078538D01*
X132193673Y-84075347D01*
X132253806Y-84070933D01*
X132289183Y-84065157D01*
X132303316Y-84057880D01*
X132303946Y-84055706D01*
X132300469Y-84030927D01*
X132290289Y-83968537D01*
X132274041Y-83872147D01*
X132252360Y-83745366D01*
X132225883Y-83591806D01*
X132195245Y-83415077D01*
X132161082Y-83218789D01*
X132124029Y-83006553D01*
X132084724Y-82781979D01*
X132043801Y-82548679D01*
X132001896Y-82310261D01*
X131959645Y-82070338D01*
X131917684Y-81832519D01*
X131876648Y-81600414D01*
X131837174Y-81377635D01*
X131799897Y-81167792D01*
X131765453Y-80974495D01*
X131734478Y-80801355D01*
X131707607Y-80651982D01*
X131685477Y-80529987D01*
X131668722Y-80438981D01*
X131657980Y-80382573D01*
X131653907Y-80364328D01*
X131649491Y-80385397D01*
X131638087Y-80445128D01*
X131620246Y-80540527D01*
X131596516Y-80668601D01*
X131567448Y-80826356D01*
X131533592Y-81010796D01*
X131495496Y-81218927D01*
X131453712Y-81447757D01*
X131408788Y-81694289D01*
X131361275Y-81955531D01*
X131318951Y-82188636D01*
X131269494Y-82460978D01*
X131222038Y-82721809D01*
X131177144Y-82968062D01*
X131135376Y-83196672D01*
X131097297Y-83404575D01*
X131063470Y-83588704D01*
X131034457Y-83745996D01*
X131010822Y-83873385D01*
X130993127Y-83967807D01*
X130981936Y-84026194D01*
X130977982Y-84045123D01*
X130977186Y-84055429D01*
X130550227Y-84055429D01*
X130552591Y-84044028D01*
X130615779Y-83737862D01*
G37*
X130615779Y-83737862D02*
X130682373Y-83413842D01*
X130751878Y-83074336D01*
X130823802Y-82721707D01*
X130897651Y-82358320D01*
X130934961Y-82174231D01*
X131596556Y-78906915D01*
X132093149Y-78901252D01*
X132589741Y-78895589D01*
X133559875Y-84082165D01*
X134864626Y-84082165D01*
X135224460Y-84082165D01*
X136071126Y-84082165D01*
X136255783Y-84081973D01*
X136426552Y-84081425D01*
X136578952Y-84080564D01*
X136708503Y-84079432D01*
X136810724Y-84078070D01*
X136881135Y-84076521D01*
X136915254Y-84074827D01*
X136917793Y-84074210D01*
X136909378Y-84054171D01*
X136884908Y-83998083D01*
X136845545Y-83908571D01*
X136792452Y-83788258D01*
X136726793Y-83639771D01*
X136649728Y-83465733D01*
X136562421Y-83268769D01*
X136466034Y-83051503D01*
X136361730Y-82816562D01*
X136250671Y-82566568D01*
X136134020Y-82304148D01*
X136071658Y-82163918D01*
X135225523Y-80261581D01*
X135224991Y-82171873D01*
X135224460Y-84082165D01*
X134864626Y-84082165D01*
X134864626Y-79150331D01*
X134335460Y-79150331D01*
X134335460Y-78896331D01*
X135134501Y-78896712D01*
X135933543Y-78897092D01*
X136833126Y-80964573D01*
X136957008Y-81249254D01*
X137077528Y-81526141D01*
X137193440Y-81792378D01*
X137303498Y-82045108D01*
X137406459Y-82281474D01*
X137501078Y-82498619D01*
X137586108Y-82693687D01*
X137660305Y-82863820D01*
X137722424Y-83006161D01*
X137771220Y-83117854D01*
X137805448Y-83196041D01*
X137822288Y-83234318D01*
X137911866Y-83436581D01*
X137906521Y-81605665D01*
X137905569Y-81272547D01*
X137904647Y-80978972D01*
X137903558Y-80722148D01*
X137902102Y-80499286D01*
X137900081Y-80307596D01*
X137897299Y-80144285D01*
X137893556Y-80006565D01*
X137888656Y-79891645D01*
X137882398Y-79796734D01*
X137874587Y-79719042D01*
X137865022Y-79655778D01*
X137853508Y-79604153D01*
X137839845Y-79561375D01*
X137823835Y-79524654D01*
X137805280Y-79491201D01*
X137783983Y-79458223D01*
X137759745Y-79422932D01*
X137750662Y-79409710D01*
X137655293Y-79306064D01*
X137530379Y-79225781D01*
X137384271Y-79173360D01*
X137279863Y-79156170D01*
X137150626Y-79144452D01*
X137150626Y-78896331D01*
X138886293Y-78896331D01*
X138886293Y-79144535D01*
X138750070Y-79155470D01*
X138614151Y-79179102D01*
X138498803Y-79224507D01*
X138411796Y-79288031D01*
X138378303Y-79330231D01*
X138362066Y-79357212D01*
X138347593Y-79384292D01*
X138334782Y-79413940D01*
X138323532Y-79448626D01*
X138313741Y-79490818D01*
X138305307Y-79542985D01*
X138298127Y-79607598D01*
X138292101Y-79687126D01*
X138287126Y-79784038D01*
X138283100Y-79900803D01*
X138279921Y-80039890D01*
X138277487Y-80203770D01*
X138275698Y-80394910D01*
X138274449Y-80615782D01*
X138273641Y-80868853D01*
X138273170Y-81156594D01*
X138272935Y-81481473D01*
X138272834Y-81845960D01*
X138272827Y-81886123D01*
X138272460Y-84082165D01*
X139246126Y-84082165D01*
X139246126Y-83764665D01*
X139500126Y-83764665D01*
X139500415Y-83875790D01*
X139502995Y-83949591D01*
X139509233Y-84012524D01*
X139513467Y-84034540D01*
X139526230Y-84082165D01*
X140254012Y-84082165D01*
X140424758Y-84081840D01*
X140581264Y-84080918D01*
X140718697Y-84079475D01*
X140832225Y-84077588D01*
X140917015Y-84075335D01*
X140968233Y-84072792D01*
X140981793Y-84070564D01*
X140969683Y-84043724D01*
X140934702Y-83985700D01*
X140878868Y-83899548D01*
X140804202Y-83788325D01*
X140712723Y-83655088D01*
X140610589Y-83508779D01*
X140400653Y-83206822D01*
X140216132Y-82933719D01*
X140055217Y-82685906D01*
X139916100Y-82459816D01*
X139796974Y-82251886D01*
X139696028Y-82058550D01*
X139611456Y-81876242D01*
X139541449Y-81701399D01*
X139484198Y-81530454D01*
X139437894Y-81359843D01*
X139400731Y-81186002D01*
X139384026Y-81090752D01*
X139346022Y-80772382D01*
X139337110Y-80465594D01*
X139356580Y-80173932D01*
X139403724Y-79900937D01*
X139477833Y-79650152D01*
X139578199Y-79425117D01*
X139704112Y-79229376D01*
X139772858Y-79147475D01*
X139924568Y-79002838D01*
X140080498Y-78897809D01*
X140246476Y-78829693D01*
X140428333Y-78795793D01*
X140544470Y-78790749D01*
X140719160Y-78801392D01*
X140874064Y-78835513D01*
X141027046Y-78897233D01*
X141045293Y-78906271D01*
X141119107Y-78948702D01*
X141203757Y-79005409D01*
X141290058Y-79069254D01*
X141368822Y-79133095D01*
X141430865Y-79189792D01*
X141466999Y-79232206D01*
X141468919Y-79235545D01*
X141493162Y-79268673D01*
X141507886Y-79277331D01*
X141522526Y-79259224D01*
X141550583Y-79209760D01*
X141588190Y-79136229D01*
X141631478Y-79045919D01*
X141637049Y-79033915D01*
X141749609Y-78790498D01*
X141997793Y-78790498D01*
X141997793Y-81330498D01*
X141750695Y-81330498D01*
X141724942Y-81092373D01*
X141678761Y-80753642D01*
X141616574Y-80438619D01*
X141539394Y-80149414D01*
X141448237Y-79888142D01*
X141344119Y-79656915D01*
X141228054Y-79457845D01*
X141101059Y-79293046D01*
X140964147Y-79164629D01*
X140818336Y-79074709D01*
X140740771Y-79044321D01*
X140646072Y-79027680D01*
X140530698Y-79026732D01*
X140412380Y-79040034D01*
X140308848Y-79066141D01*
X140269864Y-79082667D01*
X140138611Y-79172233D01*
X140038665Y-79290228D01*
X139970127Y-79436473D01*
X139933100Y-79610790D01*
X139927445Y-79681578D01*
X139928185Y-79795330D01*
X139942472Y-79911891D01*
X139971861Y-80034318D01*
X140017905Y-80165664D01*
X140082156Y-80308986D01*
X140166168Y-80467338D01*
X140271494Y-80643776D01*
X140399687Y-80841355D01*
X140552301Y-81063130D01*
X140730888Y-81312156D01*
X140814116Y-81425748D01*
X141051251Y-81751435D01*
X141261798Y-82049031D01*
X141447608Y-82321799D01*
X141610531Y-82573007D01*
X141752418Y-82805919D01*
X141875121Y-83023801D01*
X141980491Y-83229919D01*
X142070378Y-83427538D01*
X142146633Y-83619924D01*
X142211108Y-83810341D01*
X142258031Y-83973086D01*
X142279373Y-84054473D01*
X142295522Y-84122641D01*
X142307204Y-84185550D01*
X142315148Y-84251162D01*
X142320080Y-84327436D01*
X142322729Y-84422336D01*
X142323821Y-84543822D01*
X142324081Y-84695998D01*
X142323692Y-84858725D01*
X142321981Y-84986901D01*
X142318420Y-85088303D01*
X142312484Y-85170705D01*
X142303647Y-85241883D01*
X142291383Y-85309612D01*
X142278697Y-85366768D01*
X142200982Y-85631870D01*
X142099363Y-85870346D01*
X141975690Y-86079938D01*
X141831815Y-86258387D01*
X141669589Y-86403436D01*
X141490863Y-86512826D01*
X141297489Y-86584299D01*
X141276156Y-86589572D01*
X141141401Y-86610767D01*
X140984514Y-86618878D01*
X140823629Y-86613886D01*
X140676880Y-86595770D01*
X140649326Y-86590246D01*
X140440526Y-86523635D01*
X140234028Y-86415304D01*
X140030851Y-86265846D01*
X139920403Y-86165860D01*
X139855204Y-86105204D01*
X139812606Y-86072483D01*
X139786954Y-86064109D01*
X139774401Y-86073207D01*
X139757343Y-86102541D01*
X139724314Y-86160769D01*
X139679890Y-86239776D01*
X139628650Y-86331446D01*
X139622565Y-86342365D01*
X139489543Y-86581150D01*
X139373126Y-86575199D01*
X139256710Y-86569248D01*
X139251227Y-85473873D01*
X139245745Y-84378498D01*
X138272460Y-84378498D01*
X138272460Y-86516331D01*
X138003243Y-86516331D01*
X137529953Y-85447415D01*
X137056663Y-84378498D01*
X135218862Y-84378498D01*
X135230594Y-84944706D01*
X135235599Y-85146493D01*
X135241957Y-85311809D01*
X135250487Y-85446513D01*
X135262006Y-85556463D01*
X135277329Y-85647518D01*
X135297275Y-85725538D01*
X135322661Y-85796381D01*
X135354303Y-85865905D01*
X135360890Y-85879056D01*
X135449030Y-86006953D01*
X135570480Y-86111051D01*
X135722453Y-86189667D01*
X135902161Y-86241117D01*
X135981168Y-86253711D01*
X136092293Y-86267785D01*
X136092293Y-86516331D01*
X132134126Y-86516331D01*
X132134126Y-86262331D01*
X132697110Y-86262331D01*
X132376034Y-84389081D01*
X131642988Y-84383517D01*
X130981746Y-84378498D01*
X133611204Y-84378498D01*
X133622784Y-84426123D01*
X133629051Y-84456702D01*
X133642143Y-84524271D01*
X133661186Y-84624194D01*
X133685304Y-84751834D01*
X133713623Y-84902554D01*
X133745269Y-85071717D01*
X133779365Y-85254687D01*
X133795514Y-85341581D01*
X133830315Y-85528440D01*
X133862996Y-85702864D01*
X133892698Y-85860343D01*
X133918561Y-85996369D01*
X133939727Y-86106433D01*
X133955336Y-86186024D01*
X133964529Y-86230635D01*
X133966399Y-86238264D01*
X133980343Y-86251566D01*
X134015570Y-86259162D01*
X134078734Y-86261661D01*
X134176487Y-86259676D01*
X134193103Y-86259082D01*
X134300732Y-86253490D01*
X134379606Y-86244265D01*
X134443294Y-86228685D01*
X134505366Y-86204029D01*
X134533058Y-86190880D01*
X134641104Y-86123423D01*
X134721439Y-86037014D01*
X134779847Y-85923835D01*
X134814057Y-85811324D01*
X134825382Y-85756918D01*
X134834579Y-85693100D01*
X134841957Y-85614492D01*
X134847830Y-85515714D01*
X134852506Y-85391388D01*
X134856297Y-85236135D01*
X134859515Y-85044576D01*
X134859879Y-85018790D01*
X134868764Y-84378498D01*
X133611204Y-84378498D01*
X130981746Y-84378498D01*
X130916136Y-84378000D01*
X139541528Y-84378000D01*
X139551457Y-84425874D01*
X139559472Y-84465645D01*
X139573478Y-84536221D01*
X139591349Y-84626857D01*
X139606998Y-84706581D01*
X139678080Y-85008538D01*
X139767252Y-85285340D01*
X139872928Y-85535322D01*
X139993523Y-85756817D01*
X140127454Y-85948160D01*
X140273136Y-86107682D01*
X140428983Y-86233719D01*
X140593412Y-86324603D01*
X140764836Y-86378669D01*
X140941673Y-86394249D01*
X141122336Y-86369678D01*
X141174606Y-86354996D01*
X141249792Y-86321962D01*
X141329008Y-86273142D01*
X141361502Y-86247942D01*
X141474771Y-86128198D01*
X141553606Y-85990693D01*
X141599359Y-85831791D01*
X141613377Y-85647854D01*
X141610966Y-85575677D01*
X141592014Y-85406258D01*
X141553407Y-85233314D01*
X141492769Y-85049248D01*
X141407723Y-84846467D01*
X141335728Y-84695998D01*
X141182876Y-84389081D01*
X140362202Y-84383541D01*
X139541528Y-84378000D01*
X130916136Y-84378000D01*
X130909943Y-84377953D01*
X130897897Y-84436434D01*
X130868190Y-84587001D01*
X130837619Y-84753237D01*
X130807380Y-84927549D01*
X130778666Y-85102339D01*
X130752672Y-85270013D01*
X130730593Y-85422975D01*
X130713623Y-85553629D01*
X130702956Y-85654379D01*
X130700259Y-85693221D01*
X130697161Y-85829803D01*
X130704096Y-85933195D01*
X130723199Y-86011798D01*
X130756600Y-86074010D01*
X130806432Y-86128232D01*
X130811923Y-86133118D01*
X130882574Y-86183237D01*
X130967895Y-86218762D01*
X131077976Y-86243077D01*
X131176335Y-86255356D01*
X131308626Y-86268453D01*
X131308626Y-86516331D01*
X129615293Y-86516331D01*
X129615293Y-86272268D01*
X129719339Y-86235314D01*
X129844952Y-86169255D01*
X129962177Y-86065221D01*
X130067809Y-85927250D01*
X130158645Y-85759382D01*
X130218622Y-85605928D01*
X130228941Y-85566862D01*
X130247110Y-85488658D01*
X130272634Y-85373681D01*
X130305019Y-85224296D01*
X130343772Y-85042868D01*
X130388400Y-84831762D01*
X130438408Y-84593344D01*
X130493303Y-84329977D01*
X130550227Y-84055429D01*
X130977186Y-84055429D01*
X130984341Y-84063629D01*
X131003688Y-84069964D01*
X131039466Y-84074671D01*
X131095918Y-84077990D01*
X131177282Y-84080160D01*
X131287801Y-84081419D01*
X131431714Y-84082008D01*
X131613261Y-84082163D01*
X131635283Y-84082165D01*
X131829587Y-84081808D01*
X131985077Y-84080646D01*
X132105268Y-84078538D01*
X132193673Y-84075347D01*
X132253806Y-84070933D01*
X132289183Y-84065157D01*
X132303316Y-84057880D01*
X132303946Y-84055706D01*
X132300469Y-84030927D01*
X132290289Y-83968537D01*
X132274041Y-83872147D01*
X132252360Y-83745366D01*
X132225883Y-83591806D01*
X132195245Y-83415077D01*
X132161082Y-83218789D01*
X132124029Y-83006553D01*
X132084724Y-82781979D01*
X132043801Y-82548679D01*
X132001896Y-82310261D01*
X131959645Y-82070338D01*
X131917684Y-81832519D01*
X131876648Y-81600414D01*
X131837174Y-81377635D01*
X131799897Y-81167792D01*
X131765453Y-80974495D01*
X131734478Y-80801355D01*
X131707607Y-80651982D01*
X131685477Y-80529987D01*
X131668722Y-80438981D01*
X131657980Y-80382573D01*
X131653907Y-80364328D01*
X131649491Y-80385397D01*
X131638087Y-80445128D01*
X131620246Y-80540527D01*
X131596516Y-80668601D01*
X131567448Y-80826356D01*
X131533592Y-81010796D01*
X131495496Y-81218927D01*
X131453712Y-81447757D01*
X131408788Y-81694289D01*
X131361275Y-81955531D01*
X131318951Y-82188636D01*
X131269494Y-82460978D01*
X131222038Y-82721809D01*
X131177144Y-82968062D01*
X131135376Y-83196672D01*
X131097297Y-83404575D01*
X131063470Y-83588704D01*
X131034457Y-83745996D01*
X131010822Y-83873385D01*
X130993127Y-83967807D01*
X130981936Y-84026194D01*
X130977982Y-84045123D01*
X130977186Y-84055429D01*
X130550227Y-84055429D01*
X130552591Y-84044028D01*
X130615779Y-83737862D01*
G36*
X155906968Y-130964445D02*
G01*
X156034337Y-130985719D01*
X156097906Y-131005362D01*
X156230842Y-131073498D01*
X156343149Y-131166978D01*
X156437786Y-131289732D01*
X156517715Y-131445687D01*
X156585895Y-131638772D01*
X156592599Y-131661728D01*
X156635677Y-131863493D01*
X156642498Y-132045259D01*
X156612235Y-132208763D01*
X156544064Y-132355745D01*
X156437161Y-132487943D01*
X156290699Y-132607093D01*
X156103854Y-132714936D01*
X156089336Y-132722060D01*
X156022227Y-132752792D01*
X155943970Y-132784762D01*
X155850340Y-132819362D01*
X155737117Y-132857987D01*
X155600077Y-132902029D01*
X155434999Y-132952882D01*
X155237659Y-133011938D01*
X155003835Y-133080592D01*
X154994126Y-133083422D01*
X154806601Y-133138502D01*
X154629839Y-133191222D01*
X154468395Y-133240166D01*
X154326822Y-133283918D01*
X154209674Y-133321062D01*
X154121503Y-133350181D01*
X154066863Y-133369860D01*
X154052426Y-133376333D01*
X153998227Y-133418935D01*
X153958353Y-133468057D01*
X153947997Y-133490752D01*
X153943468Y-133517284D01*
X153945942Y-133554165D01*
X153956591Y-133607905D01*
X153976590Y-133685013D01*
X154007112Y-133792002D01*
X154032105Y-133877106D01*
X154067323Y-133992848D01*
X154100025Y-134093710D01*
X154127859Y-134172948D01*
X154148474Y-134223814D01*
X154158438Y-134239662D01*
X154181864Y-134235259D01*
X154242633Y-134219856D01*
X154337467Y-134194373D01*
X154463089Y-134159732D01*
X154616221Y-134116856D01*
X154793588Y-134066667D01*
X154991911Y-134010086D01*
X155207914Y-133948035D01*
X155438318Y-133881436D01*
X155635071Y-133824261D01*
X155874671Y-133754536D01*
X156102398Y-133688393D01*
X156314992Y-133626772D01*
X156509190Y-133570611D01*
X156681732Y-133520849D01*
X156829357Y-133478427D01*
X156948803Y-133444283D01*
X157036809Y-133419357D01*
X157090115Y-133404587D01*
X157105644Y-133400714D01*
X157116523Y-133419751D01*
X157136064Y-133470956D01*
X157161618Y-133545699D01*
X157190540Y-133635352D01*
X157220182Y-133731288D01*
X157247898Y-133824878D01*
X157271040Y-133907494D01*
X157286962Y-133970507D01*
X157293017Y-134005290D01*
X157292310Y-134009203D01*
X157271344Y-134016149D01*
X157213187Y-134033881D01*
X157121303Y-134061388D01*
X156999158Y-134097658D01*
X156850217Y-134141679D01*
X156677943Y-134192439D01*
X156485803Y-134248927D01*
X156277261Y-134310130D01*
X156055782Y-134375036D01*
X155824831Y-134442635D01*
X155587872Y-134511914D01*
X155348371Y-134581861D01*
X155109793Y-134651465D01*
X154875601Y-134719713D01*
X154649262Y-134785594D01*
X154434240Y-134848097D01*
X154233999Y-134906208D01*
X154052006Y-134958917D01*
X153891724Y-135005212D01*
X153756618Y-135044081D01*
X153650154Y-135074512D01*
X153575796Y-135095492D01*
X153537010Y-135106012D01*
X153533579Y-135106825D01*
X153519058Y-135109067D01*
X153506064Y-135106372D01*
X153493078Y-135094778D01*
X153478578Y-135070322D01*
X153461042Y-135029042D01*
X153438951Y-134966974D01*
X153410782Y-134880156D01*
X153375016Y-134764625D01*
X153330131Y-134616419D01*
X153275324Y-134433970D01*
X153225603Y-134266715D01*
X153179405Y-134108377D01*
X153138295Y-133964546D01*
X153103837Y-133840813D01*
X153077599Y-133742770D01*
X153061143Y-133676008D01*
X153056446Y-133652110D01*
X153055804Y-133546456D01*
X153076612Y-133425031D01*
X153114643Y-133305719D01*
X153159653Y-133215631D01*
X153231735Y-133123728D01*
X153330620Y-133028448D01*
X153443619Y-132941669D01*
X153472647Y-132922657D01*
X153526134Y-132890964D01*
X153586294Y-132859936D01*
X153657003Y-132828229D01*
X153742132Y-132794501D01*
X153845555Y-132757406D01*
X153971147Y-132715602D01*
X154122779Y-132667745D01*
X154304327Y-132612491D01*
X154519663Y-132548496D01*
X154723582Y-132488727D01*
X154954224Y-132421067D01*
X155147387Y-132363471D01*
X155306398Y-132314728D01*
X155434583Y-132273629D01*
X155535269Y-132238963D01*
X155611781Y-132209522D01*
X155667447Y-132184094D01*
X155705591Y-132161470D01*
X155729542Y-132140440D01*
X155742624Y-132119794D01*
X155743443Y-132117755D01*
X155753678Y-132048042D01*
X155745203Y-131956492D01*
X155721471Y-131857337D01*
X155685934Y-131764807D01*
X155642046Y-131693135D01*
X155639765Y-131690435D01*
X155615241Y-131666415D01*
X155585961Y-131649249D01*
X155548027Y-131639555D01*
X155497543Y-131637952D01*
X155430613Y-131645060D01*
X155343341Y-131661499D01*
X155231830Y-131687886D01*
X155092184Y-131724842D01*
X154920507Y-131772986D01*
X154712902Y-131832938D01*
X154676626Y-131843511D01*
X154364786Y-131934474D01*
X154091102Y-132014286D01*
X153853095Y-132083663D01*
X153648285Y-132143323D01*
X153474193Y-132193981D01*
X153328341Y-132236355D01*
X153208247Y-132271162D01*
X153111433Y-132299117D01*
X153035419Y-132320938D01*
X152977726Y-132337342D01*
X152935875Y-132349044D01*
X152907385Y-132356763D01*
X152889779Y-132361214D01*
X152880575Y-132363113D01*
X152878274Y-132363331D01*
X152867633Y-132344394D01*
X152848209Y-132293345D01*
X152822674Y-132218822D01*
X152793700Y-132129469D01*
X152763959Y-132033924D01*
X152736125Y-131940829D01*
X152712868Y-131858824D01*
X152696863Y-131796551D01*
X152690781Y-131762650D01*
X152691413Y-131759155D01*
X152712909Y-131751663D01*
X152770918Y-131733694D01*
X152861266Y-131706460D01*
X152979779Y-131671177D01*
X153122282Y-131629057D01*
X153284602Y-131581314D01*
X153462565Y-131529163D01*
X153651997Y-131473817D01*
X153848724Y-131416489D01*
X154048571Y-131358395D01*
X154247366Y-131300747D01*
X154440933Y-131244759D01*
X154625099Y-131191646D01*
X154795689Y-131142620D01*
X154948531Y-131098897D01*
X155079449Y-131061689D01*
X155184270Y-131032210D01*
X155258820Y-131011674D01*
X155290460Y-131003346D01*
X155437959Y-130974965D01*
X155597438Y-130959040D01*
X155757555Y-130955543D01*
X155906968Y-130964445D01*
G37*
X155906968Y-130964445D02*
X156034337Y-130985719D01*
X156097906Y-131005362D01*
X156230842Y-131073498D01*
X156343149Y-131166978D01*
X156437786Y-131289732D01*
X156517715Y-131445687D01*
X156585895Y-131638772D01*
X156592599Y-131661728D01*
X156635677Y-131863493D01*
X156642498Y-132045259D01*
X156612235Y-132208763D01*
X156544064Y-132355745D01*
X156437161Y-132487943D01*
X156290699Y-132607093D01*
X156103854Y-132714936D01*
X156089336Y-132722060D01*
X156022227Y-132752792D01*
X155943970Y-132784762D01*
X155850340Y-132819362D01*
X155737117Y-132857987D01*
X155600077Y-132902029D01*
X155434999Y-132952882D01*
X155237659Y-133011938D01*
X155003835Y-133080592D01*
X154994126Y-133083422D01*
X154806601Y-133138502D01*
X154629839Y-133191222D01*
X154468395Y-133240166D01*
X154326822Y-133283918D01*
X154209674Y-133321062D01*
X154121503Y-133350181D01*
X154066863Y-133369860D01*
X154052426Y-133376333D01*
X153998227Y-133418935D01*
X153958353Y-133468057D01*
X153947997Y-133490752D01*
X153943468Y-133517284D01*
X153945942Y-133554165D01*
X153956591Y-133607905D01*
X153976590Y-133685013D01*
X154007112Y-133792002D01*
X154032105Y-133877106D01*
X154067323Y-133992848D01*
X154100025Y-134093710D01*
X154127859Y-134172948D01*
X154148474Y-134223814D01*
X154158438Y-134239662D01*
X154181864Y-134235259D01*
X154242633Y-134219856D01*
X154337467Y-134194373D01*
X154463089Y-134159732D01*
X154616221Y-134116856D01*
X154793588Y-134066667D01*
X154991911Y-134010086D01*
X155207914Y-133948035D01*
X155438318Y-133881436D01*
X155635071Y-133824261D01*
X155874671Y-133754536D01*
X156102398Y-133688393D01*
X156314992Y-133626772D01*
X156509190Y-133570611D01*
X156681732Y-133520849D01*
X156829357Y-133478427D01*
X156948803Y-133444283D01*
X157036809Y-133419357D01*
X157090115Y-133404587D01*
X157105644Y-133400714D01*
X157116523Y-133419751D01*
X157136064Y-133470956D01*
X157161618Y-133545699D01*
X157190540Y-133635352D01*
X157220182Y-133731288D01*
X157247898Y-133824878D01*
X157271040Y-133907494D01*
X157286962Y-133970507D01*
X157293017Y-134005290D01*
X157292310Y-134009203D01*
X157271344Y-134016149D01*
X157213187Y-134033881D01*
X157121303Y-134061388D01*
X156999158Y-134097658D01*
X156850217Y-134141679D01*
X156677943Y-134192439D01*
X156485803Y-134248927D01*
X156277261Y-134310130D01*
X156055782Y-134375036D01*
X155824831Y-134442635D01*
X155587872Y-134511914D01*
X155348371Y-134581861D01*
X155109793Y-134651465D01*
X154875601Y-134719713D01*
X154649262Y-134785594D01*
X154434240Y-134848097D01*
X154233999Y-134906208D01*
X154052006Y-134958917D01*
X153891724Y-135005212D01*
X153756618Y-135044081D01*
X153650154Y-135074512D01*
X153575796Y-135095492D01*
X153537010Y-135106012D01*
X153533579Y-135106825D01*
X153519058Y-135109067D01*
X153506064Y-135106372D01*
X153493078Y-135094778D01*
X153478578Y-135070322D01*
X153461042Y-135029042D01*
X153438951Y-134966974D01*
X153410782Y-134880156D01*
X153375016Y-134764625D01*
X153330131Y-134616419D01*
X153275324Y-134433970D01*
X153225603Y-134266715D01*
X153179405Y-134108377D01*
X153138295Y-133964546D01*
X153103837Y-133840813D01*
X153077599Y-133742770D01*
X153061143Y-133676008D01*
X153056446Y-133652110D01*
X153055804Y-133546456D01*
X153076612Y-133425031D01*
X153114643Y-133305719D01*
X153159653Y-133215631D01*
X153231735Y-133123728D01*
X153330620Y-133028448D01*
X153443619Y-132941669D01*
X153472647Y-132922657D01*
X153526134Y-132890964D01*
X153586294Y-132859936D01*
X153657003Y-132828229D01*
X153742132Y-132794501D01*
X153845555Y-132757406D01*
X153971147Y-132715602D01*
X154122779Y-132667745D01*
X154304327Y-132612491D01*
X154519663Y-132548496D01*
X154723582Y-132488727D01*
X154954224Y-132421067D01*
X155147387Y-132363471D01*
X155306398Y-132314728D01*
X155434583Y-132273629D01*
X155535269Y-132238963D01*
X155611781Y-132209522D01*
X155667447Y-132184094D01*
X155705591Y-132161470D01*
X155729542Y-132140440D01*
X155742624Y-132119794D01*
X155743443Y-132117755D01*
X155753678Y-132048042D01*
X155745203Y-131956492D01*
X155721471Y-131857337D01*
X155685934Y-131764807D01*
X155642046Y-131693135D01*
X155639765Y-131690435D01*
X155615241Y-131666415D01*
X155585961Y-131649249D01*
X155548027Y-131639555D01*
X155497543Y-131637952D01*
X155430613Y-131645060D01*
X155343341Y-131661499D01*
X155231830Y-131687886D01*
X155092184Y-131724842D01*
X154920507Y-131772986D01*
X154712902Y-131832938D01*
X154676626Y-131843511D01*
X154364786Y-131934474D01*
X154091102Y-132014286D01*
X153853095Y-132083663D01*
X153648285Y-132143323D01*
X153474193Y-132193981D01*
X153328341Y-132236355D01*
X153208247Y-132271162D01*
X153111433Y-132299117D01*
X153035419Y-132320938D01*
X152977726Y-132337342D01*
X152935875Y-132349044D01*
X152907385Y-132356763D01*
X152889779Y-132361214D01*
X152880575Y-132363113D01*
X152878274Y-132363331D01*
X152867633Y-132344394D01*
X152848209Y-132293345D01*
X152822674Y-132218822D01*
X152793700Y-132129469D01*
X152763959Y-132033924D01*
X152736125Y-131940829D01*
X152712868Y-131858824D01*
X152696863Y-131796551D01*
X152690781Y-131762650D01*
X152691413Y-131759155D01*
X152712909Y-131751663D01*
X152770918Y-131733694D01*
X152861266Y-131706460D01*
X152979779Y-131671177D01*
X153122282Y-131629057D01*
X153284602Y-131581314D01*
X153462565Y-131529163D01*
X153651997Y-131473817D01*
X153848724Y-131416489D01*
X154048571Y-131358395D01*
X154247366Y-131300747D01*
X154440933Y-131244759D01*
X154625099Y-131191646D01*
X154795689Y-131142620D01*
X154948531Y-131098897D01*
X155079449Y-131061689D01*
X155184270Y-131032210D01*
X155258820Y-131011674D01*
X155290460Y-131003346D01*
X155437959Y-130974965D01*
X155597438Y-130959040D01*
X155757555Y-130955543D01*
X155906968Y-130964445D01*
G36*
X154311914Y-104979510D02*
G01*
X154704431Y-105372027D01*
X154283070Y-105780946D01*
X154159980Y-105900410D01*
X154035230Y-106021499D01*
X153915506Y-106137723D01*
X153807494Y-106242590D01*
X153717881Y-106329609D01*
X153664369Y-106381587D01*
X153467029Y-106573308D01*
X153973002Y-107063325D01*
X154478976Y-107553343D01*
X155640448Y-107500835D01*
X156801921Y-107448328D01*
X157265256Y-107911663D01*
X157728591Y-108374999D01*
X156980484Y-108388939D01*
X156764551Y-108392995D01*
X156525113Y-108397546D01*
X156274894Y-108402348D01*
X156026618Y-108407154D01*
X155793009Y-108411720D01*
X155586792Y-108415800D01*
X155554692Y-108416441D01*
X154877008Y-108430003D01*
X154720837Y-109924459D01*
X154695022Y-110171229D01*
X154670475Y-110405383D01*
X154647550Y-110623567D01*
X154626603Y-110822422D01*
X154607988Y-110998594D01*
X154592062Y-111148726D01*
X154579178Y-111269461D01*
X154569693Y-111357444D01*
X154563960Y-111409318D01*
X154562320Y-111422559D01*
X154547152Y-111409358D01*
X154505370Y-111370245D01*
X154440726Y-111308806D01*
X154356972Y-111228625D01*
X154257861Y-111133287D01*
X154147144Y-111026378D01*
X154108156Y-110988642D01*
X153656337Y-110551081D01*
X153775814Y-109344581D01*
X153895290Y-108138081D01*
X153397433Y-107645956D01*
X153277743Y-107528133D01*
X153167414Y-107420461D01*
X153070085Y-107326420D01*
X152989395Y-107249486D01*
X152928983Y-107193140D01*
X152892487Y-107160859D01*
X152883226Y-107154426D01*
X152865050Y-107168817D01*
X152819733Y-107209718D01*
X152750469Y-107274111D01*
X152660452Y-107358975D01*
X152552874Y-107461291D01*
X152430928Y-107578040D01*
X152297808Y-107706203D01*
X152211728Y-107789426D01*
X152073461Y-107923046D01*
X151944562Y-108047094D01*
X151828200Y-108158558D01*
X151727547Y-108254424D01*
X151645771Y-108331680D01*
X151586045Y-108387312D01*
X151551538Y-108418308D01*
X151544203Y-108423831D01*
X151526287Y-108409689D01*
X151482255Y-108369869D01*
X151416266Y-108308283D01*
X151332477Y-108228845D01*
X151235048Y-108135466D01*
X151141018Y-108044564D01*
X150750210Y-107665296D01*
X150908960Y-107507608D01*
X150947337Y-107469860D01*
X151013701Y-107405020D01*
X151105626Y-107315446D01*
X151220686Y-107203494D01*
X151356455Y-107071520D01*
X151510507Y-106921881D01*
X151680416Y-106756933D01*
X151863756Y-106579032D01*
X152058100Y-106390535D01*
X152261024Y-106193799D01*
X152470100Y-105991180D01*
X152493553Y-105968456D01*
X153919396Y-104586993D01*
X154311914Y-104979510D01*
G37*
X154311914Y-104979510D02*
X154704431Y-105372027D01*
X154283070Y-105780946D01*
X154159980Y-105900410D01*
X154035230Y-106021499D01*
X153915506Y-106137723D01*
X153807494Y-106242590D01*
X153717881Y-106329609D01*
X153664369Y-106381587D01*
X153467029Y-106573308D01*
X153973002Y-107063325D01*
X154478976Y-107553343D01*
X155640448Y-107500835D01*
X156801921Y-107448328D01*
X157265256Y-107911663D01*
X157728591Y-108374999D01*
X156980484Y-108388939D01*
X156764551Y-108392995D01*
X156525113Y-108397546D01*
X156274894Y-108402348D01*
X156026618Y-108407154D01*
X155793009Y-108411720D01*
X155586792Y-108415800D01*
X155554692Y-108416441D01*
X154877008Y-108430003D01*
X154720837Y-109924459D01*
X154695022Y-110171229D01*
X154670475Y-110405383D01*
X154647550Y-110623567D01*
X154626603Y-110822422D01*
X154607988Y-110998594D01*
X154592062Y-111148726D01*
X154579178Y-111269461D01*
X154569693Y-111357444D01*
X154563960Y-111409318D01*
X154562320Y-111422559D01*
X154547152Y-111409358D01*
X154505370Y-111370245D01*
X154440726Y-111308806D01*
X154356972Y-111228625D01*
X154257861Y-111133287D01*
X154147144Y-111026378D01*
X154108156Y-110988642D01*
X153656337Y-110551081D01*
X153775814Y-109344581D01*
X153895290Y-108138081D01*
X153397433Y-107645956D01*
X153277743Y-107528133D01*
X153167414Y-107420461D01*
X153070085Y-107326420D01*
X152989395Y-107249486D01*
X152928983Y-107193140D01*
X152892487Y-107160859D01*
X152883226Y-107154426D01*
X152865050Y-107168817D01*
X152819733Y-107209718D01*
X152750469Y-107274111D01*
X152660452Y-107358975D01*
X152552874Y-107461291D01*
X152430928Y-107578040D01*
X152297808Y-107706203D01*
X152211728Y-107789426D01*
X152073461Y-107923046D01*
X151944562Y-108047094D01*
X151828200Y-108158558D01*
X151727547Y-108254424D01*
X151645771Y-108331680D01*
X151586045Y-108387312D01*
X151551538Y-108418308D01*
X151544203Y-108423831D01*
X151526287Y-108409689D01*
X151482255Y-108369869D01*
X151416266Y-108308283D01*
X151332477Y-108228845D01*
X151235048Y-108135466D01*
X151141018Y-108044564D01*
X150750210Y-107665296D01*
X150908960Y-107507608D01*
X150947337Y-107469860D01*
X151013701Y-107405020D01*
X151105626Y-107315446D01*
X151220686Y-107203494D01*
X151356455Y-107071520D01*
X151510507Y-106921881D01*
X151680416Y-106756933D01*
X151863756Y-106579032D01*
X152058100Y-106390535D01*
X152261024Y-106193799D01*
X152470100Y-105991180D01*
X152493553Y-105968456D01*
X153919396Y-104586993D01*
X154311914Y-104979510D01*
G36*
X129382460Y-81330498D02*
G01*
X129137337Y-81330498D01*
X129100827Y-81028873D01*
X129049345Y-80682884D01*
X128982431Y-80364585D01*
X128900912Y-80075658D01*
X128805614Y-79817787D01*
X128697365Y-79592656D01*
X128576993Y-79401947D01*
X128445325Y-79247344D01*
X128303188Y-79130531D01*
X128151410Y-79053190D01*
X128125437Y-79044321D01*
X128032088Y-79027871D01*
X127917998Y-79026675D01*
X127800744Y-79039331D01*
X127697903Y-79064434D01*
X127656256Y-79081787D01*
X127526168Y-79171262D01*
X127425445Y-79290152D01*
X127355455Y-79436116D01*
X127317569Y-79606815D01*
X127312271Y-79669572D01*
X127311615Y-79778562D01*
X127322291Y-79888048D01*
X127345892Y-80001162D01*
X127384013Y-80121038D01*
X127438245Y-80250807D01*
X127510183Y-80393602D01*
X127601419Y-80552554D01*
X127713547Y-80730796D01*
X127848160Y-80931460D01*
X128006852Y-81157679D01*
X128191216Y-81412585D01*
X128216361Y-81446915D01*
X128462450Y-81786967D01*
X128681138Y-82099170D01*
X128874021Y-82386514D01*
X129042696Y-82651993D01*
X129188762Y-82898598D01*
X129313814Y-83129320D01*
X129419450Y-83347152D01*
X129507266Y-83555086D01*
X129578861Y-83756112D01*
X129635830Y-83953223D01*
X129679771Y-84149411D01*
X129690712Y-84208880D01*
X129707542Y-84342542D01*
X129717805Y-84505216D01*
X129721521Y-84684098D01*
X129718709Y-84866380D01*
X129709387Y-85039259D01*
X129693576Y-85189927D01*
X129689215Y-85218902D01*
X129630600Y-85488228D01*
X129546072Y-85735397D01*
X129437677Y-85957680D01*
X129307464Y-86152349D01*
X129157481Y-86316672D01*
X128989776Y-86447921D01*
X128806397Y-86543366D01*
X128660823Y-86589572D01*
X128527401Y-86610606D01*
X128372011Y-86618856D01*
X128213051Y-86614287D01*
X128068920Y-86596865D01*
X128038376Y-86590723D01*
X127828423Y-86524899D01*
X127627115Y-86421422D01*
X127431267Y-86278465D01*
X127322814Y-86180507D01*
X127249673Y-86113689D01*
X127196910Y-86073625D01*
X127167703Y-86062622D01*
X127164064Y-86065243D01*
X127148699Y-86091819D01*
X127117051Y-86147683D01*
X127073454Y-86225149D01*
X127022243Y-86316532D01*
X127011793Y-86335223D01*
X126874210Y-86581386D01*
X126641376Y-86569248D01*
X126635933Y-85166956D01*
X126630491Y-83764665D01*
X126878993Y-83764665D01*
X126893786Y-83971040D01*
X126930536Y-84332751D01*
X126986817Y-84672794D01*
X127061624Y-84988908D01*
X127153955Y-85278830D01*
X127262805Y-85540300D01*
X127387170Y-85771055D01*
X127526048Y-85968834D01*
X127678433Y-86131375D01*
X127843322Y-86256417D01*
X127929050Y-86303640D01*
X128077166Y-86359139D01*
X128233882Y-86389169D01*
X128388337Y-86393233D01*
X128529672Y-86370835D01*
X128622497Y-86335361D01*
X128758817Y-86242404D01*
X128865191Y-86121501D01*
X128941055Y-85975182D01*
X128985841Y-85805977D01*
X128998986Y-85616419D01*
X128979924Y-85409038D01*
X128928088Y-85186364D01*
X128899180Y-85096823D01*
X128857991Y-84983845D01*
X128812686Y-84871799D01*
X128761380Y-84757508D01*
X128702188Y-84637792D01*
X128633226Y-84509475D01*
X128552609Y-84369378D01*
X128458453Y-84214323D01*
X128348873Y-84041132D01*
X128221984Y-83846627D01*
X128075903Y-83627630D01*
X127908743Y-83380963D01*
X127718622Y-83103448D01*
X127707533Y-83087331D01*
X127509063Y-82791968D01*
X127338356Y-82521817D01*
X127193363Y-82272031D01*
X127072036Y-82037764D01*
X126972325Y-81814172D01*
X126892183Y-81596408D01*
X126829561Y-81379626D01*
X126782410Y-81158982D01*
X126748681Y-80929629D01*
X126733901Y-80784277D01*
X126722231Y-80482850D01*
X126739580Y-80193864D01*
X126784873Y-79921452D01*
X126857034Y-79669748D01*
X126954987Y-79442886D01*
X127077657Y-79245000D01*
X127160651Y-79144101D01*
X127312796Y-78999689D01*
X127470267Y-78895056D01*
X127638618Y-78827650D01*
X127823403Y-78794915D01*
X127929137Y-78790749D01*
X128028220Y-78794626D01*
X128126989Y-78804597D01*
X128205269Y-78818574D01*
X128210091Y-78819815D01*
X128361698Y-78875080D01*
X128519532Y-78958691D01*
X128669024Y-79062120D01*
X128762390Y-79143178D01*
X128823738Y-79202001D01*
X128872283Y-79247708D01*
X128901019Y-79273741D01*
X128905775Y-79277331D01*
X128915806Y-79259290D01*
X128939965Y-79209997D01*
X128974771Y-79136699D01*
X129016746Y-79046645D01*
X129022626Y-79033915D01*
X129134949Y-78790498D01*
X129382460Y-78790498D01*
X129382460Y-81330498D01*
G37*
X129382460Y-81330498D02*
X129137337Y-81330498D01*
X129100827Y-81028873D01*
X129049345Y-80682884D01*
X128982431Y-80364585D01*
X128900912Y-80075658D01*
X128805614Y-79817787D01*
X128697365Y-79592656D01*
X128576993Y-79401947D01*
X128445325Y-79247344D01*
X128303188Y-79130531D01*
X128151410Y-79053190D01*
X128125437Y-79044321D01*
X128032088Y-79027871D01*
X127917998Y-79026675D01*
X127800744Y-79039331D01*
X127697903Y-79064434D01*
X127656256Y-79081787D01*
X127526168Y-79171262D01*
X127425445Y-79290152D01*
X127355455Y-79436116D01*
X127317569Y-79606815D01*
X127312271Y-79669572D01*
X127311615Y-79778562D01*
X127322291Y-79888048D01*
X127345892Y-80001162D01*
X127384013Y-80121038D01*
X127438245Y-80250807D01*
X127510183Y-80393602D01*
X127601419Y-80552554D01*
X127713547Y-80730796D01*
X127848160Y-80931460D01*
X128006852Y-81157679D01*
X128191216Y-81412585D01*
X128216361Y-81446915D01*
X128462450Y-81786967D01*
X128681138Y-82099170D01*
X128874021Y-82386514D01*
X129042696Y-82651993D01*
X129188762Y-82898598D01*
X129313814Y-83129320D01*
X129419450Y-83347152D01*
X129507266Y-83555086D01*
X129578861Y-83756112D01*
X129635830Y-83953223D01*
X129679771Y-84149411D01*
X129690712Y-84208880D01*
X129707542Y-84342542D01*
X129717805Y-84505216D01*
X129721521Y-84684098D01*
X129718709Y-84866380D01*
X129709387Y-85039259D01*
X129693576Y-85189927D01*
X129689215Y-85218902D01*
X129630600Y-85488228D01*
X129546072Y-85735397D01*
X129437677Y-85957680D01*
X129307464Y-86152349D01*
X129157481Y-86316672D01*
X128989776Y-86447921D01*
X128806397Y-86543366D01*
X128660823Y-86589572D01*
X128527401Y-86610606D01*
X128372011Y-86618856D01*
X128213051Y-86614287D01*
X128068920Y-86596865D01*
X128038376Y-86590723D01*
X127828423Y-86524899D01*
X127627115Y-86421422D01*
X127431267Y-86278465D01*
X127322814Y-86180507D01*
X127249673Y-86113689D01*
X127196910Y-86073625D01*
X127167703Y-86062622D01*
X127164064Y-86065243D01*
X127148699Y-86091819D01*
X127117051Y-86147683D01*
X127073454Y-86225149D01*
X127022243Y-86316532D01*
X127011793Y-86335223D01*
X126874210Y-86581386D01*
X126641376Y-86569248D01*
X126635933Y-85166956D01*
X126630491Y-83764665D01*
X126878993Y-83764665D01*
X126893786Y-83971040D01*
X126930536Y-84332751D01*
X126986817Y-84672794D01*
X127061624Y-84988908D01*
X127153955Y-85278830D01*
X127262805Y-85540300D01*
X127387170Y-85771055D01*
X127526048Y-85968834D01*
X127678433Y-86131375D01*
X127843322Y-86256417D01*
X127929050Y-86303640D01*
X128077166Y-86359139D01*
X128233882Y-86389169D01*
X128388337Y-86393233D01*
X128529672Y-86370835D01*
X128622497Y-86335361D01*
X128758817Y-86242404D01*
X128865191Y-86121501D01*
X128941055Y-85975182D01*
X128985841Y-85805977D01*
X128998986Y-85616419D01*
X128979924Y-85409038D01*
X128928088Y-85186364D01*
X128899180Y-85096823D01*
X128857991Y-84983845D01*
X128812686Y-84871799D01*
X128761380Y-84757508D01*
X128702188Y-84637792D01*
X128633226Y-84509475D01*
X128552609Y-84369378D01*
X128458453Y-84214323D01*
X128348873Y-84041132D01*
X128221984Y-83846627D01*
X128075903Y-83627630D01*
X127908743Y-83380963D01*
X127718622Y-83103448D01*
X127707533Y-83087331D01*
X127509063Y-82791968D01*
X127338356Y-82521817D01*
X127193363Y-82272031D01*
X127072036Y-82037764D01*
X126972325Y-81814172D01*
X126892183Y-81596408D01*
X126829561Y-81379626D01*
X126782410Y-81158982D01*
X126748681Y-80929629D01*
X126733901Y-80784277D01*
X126722231Y-80482850D01*
X126739580Y-80193864D01*
X126784873Y-79921452D01*
X126857034Y-79669748D01*
X126954987Y-79442886D01*
X127077657Y-79245000D01*
X127160651Y-79144101D01*
X127312796Y-78999689D01*
X127470267Y-78895056D01*
X127638618Y-78827650D01*
X127823403Y-78794915D01*
X127929137Y-78790749D01*
X128028220Y-78794626D01*
X128126989Y-78804597D01*
X128205269Y-78818574D01*
X128210091Y-78819815D01*
X128361698Y-78875080D01*
X128519532Y-78958691D01*
X128669024Y-79062120D01*
X128762390Y-79143178D01*
X128823738Y-79202001D01*
X128872283Y-79247708D01*
X128901019Y-79273741D01*
X128905775Y-79277331D01*
X128915806Y-79259290D01*
X128939965Y-79209997D01*
X128974771Y-79136699D01*
X129016746Y-79046645D01*
X129022626Y-79033915D01*
X129134949Y-78790498D01*
X129382460Y-78790498D01*
X129382460Y-81330498D01*
%TD*%
D11*
%TO.P,REF\u002A\u002A,*%
%TO.N,*%
X144430000Y-52360000D03*
%TD*%
D12*
%TO.P,X1,1,VCC*%
%TO.N,+3.3V*%
X175842700Y-71963700D03*
D13*
%TO.P,X1,2,GND*%
%TO.N,GND*%
X175842700Y-74503700D03*
D12*
%TO.P,X1,3,SDA*%
%TO.N,unconnected-(X1-Pad3)*%
X178382700Y-71963700D03*
%TO.P,X1,4,SCL*%
%TO.N,unconnected-(X1-Pad4)*%
X178382700Y-74503700D03*
D14*
%TO.P,X1,5,GPIO1*%
%TO.N,unconnected-(X1-Pad5)*%
X180922700Y-71963700D03*
%TO.P,X1,6,GPIO2*%
%TO.N,unconnected-(X1-Pad6)*%
X180922700Y-74503700D03*
%TD*%
D15*
%TO.N,GND*%
X171510000Y-116390000D03*
X167920000Y-125380000D03*
X165530000Y-114810000D03*
X169480000Y-114520000D03*
X149710000Y-70560000D03*
X125500000Y-83110000D03*
X145890000Y-77500000D03*
X141210000Y-98970000D03*
X138060000Y-87190000D03*
X157290000Y-106530000D03*
X149735000Y-73655000D03*
%TO.N,Net-(D1-Pad1)*%
X169970000Y-117110000D03*
X177113825Y-129830000D03*
X175560000Y-122720000D03*
X135030000Y-77940000D03*
X168730000Y-115920000D03*
X143600000Y-83500000D03*
%TO.N,Net-(D2-Pad2)*%
X168090000Y-116400000D03*
X169450000Y-117810000D03*
%TO.N,+3.3V*%
X167419500Y-114730000D03*
X149110000Y-71960000D03*
X144998100Y-76320000D03*
X168740000Y-118370000D03*
X153390000Y-89170000D03*
%TD*%
D16*
%TO.N,GND*%
X167920000Y-125380000D02*
X141510000Y-98970000D01*
D17*
X171350000Y-116390000D02*
X171510000Y-116390000D01*
X157290000Y-106550000D02*
X157290000Y-106530000D01*
X165530000Y-114810000D02*
X165530000Y-114790000D01*
D16*
X138060000Y-87190000D02*
X138050000Y-87200000D01*
X138050000Y-87200000D02*
X126670000Y-87200000D01*
D17*
X149735000Y-73655000D02*
X145890000Y-77500000D01*
X149710000Y-70560000D02*
X149710000Y-71676116D01*
X169480000Y-114520000D02*
X171350000Y-116390000D01*
D16*
X126670000Y-87200000D02*
X125500000Y-86030000D01*
X125500000Y-86030000D02*
X125500000Y-83110000D01*
D17*
X165530000Y-114790000D02*
X157290000Y-106550000D01*
D16*
X141510000Y-98970000D02*
X141210000Y-98970000D01*
D17*
X149710000Y-71676116D02*
X149735000Y-71701116D01*
X149735000Y-71701116D02*
X149735000Y-73655000D01*
%TO.N,Net-(D1-Pad1)*%
X168780000Y-115920000D02*
X168730000Y-115920000D01*
X169970000Y-117110000D02*
X168780000Y-115920000D01*
X141980000Y-77980000D02*
X135070000Y-77980000D01*
X175560000Y-128276175D02*
X177113825Y-129830000D01*
X143600000Y-83500000D02*
X143600000Y-79600000D01*
X175560000Y-122720000D02*
X175560000Y-128276175D01*
X143600000Y-79600000D02*
X141980000Y-77980000D01*
X135070000Y-77980000D02*
X135030000Y-77940000D01*
%TO.N,Net-(D2-Pad2)*%
X169450000Y-117760000D02*
X168090000Y-116400000D01*
X169450000Y-117810000D02*
X169450000Y-117760000D01*
%TO.N,+3.3V*%
X167375000Y-117005000D02*
X168740000Y-118370000D01*
X144998100Y-80778100D02*
X144998100Y-76320000D01*
X167375000Y-114774500D02*
X167375000Y-117005000D01*
X153390000Y-89170000D02*
X144998100Y-80778100D01*
X149110000Y-72090000D02*
X149110000Y-71960000D01*
X144998100Y-76320000D02*
X144998100Y-76201900D01*
X167419500Y-114730000D02*
X167375000Y-114774500D01*
X144998100Y-76201900D02*
X149110000Y-72090000D01*
%TD*%
M02*
