M48
; DRILL file {KiCad (6.0.7)} date Sat Oct 15 16:10:52 2022
; FORMAT={-:-/ absolute / inch / decimal}
; #@! TF.CreationDate,2022-10-15T16:10:52-05:00
; #@! TF.GenerationSoftware,Kicad,Pcbnew,(6.0.7)
; #@! TF.FileFunction,Plated,1,2,PTH
FMAT,2
INCH
; #@! TA.AperFunction,Plated,PTH,ViaDrill
T1C0.0157
; #@! TA.AperFunction,Plated,PTH,ComponentDrill
T2C0.0400
; #@! TA.AperFunction,Plated,PTH,ComponentDrill
T3C0.2165
%
G90
G05
T1
X4.9409Y-3.272
X5.3161Y-3.0685
X5.4354Y-3.4327
X5.5594Y-3.8965
X5.6535Y-3.2874
X5.7086Y-3.0047
X5.7437Y-3.0512
X5.8705Y-2.8331
X5.8941Y-2.778
X5.8951Y-2.8998
X6.039Y-3.5106
X6.1925Y-4.1941
X6.5169Y-4.5201
X6.5913Y-4.5169
X6.611Y-4.9362
X6.6177Y-4.5827
X6.6429Y-4.5638
X6.6433Y-4.6602
X6.6713Y-4.6382
X6.6724Y-4.5087
X6.6917Y-4.6106
X6.7524Y-4.5823
X6.9118Y-4.8315
X6.973Y-5.1114
T2
X6.9229Y-2.8332
X6.9229Y-2.9332
X7.0229Y-2.8332
X7.0229Y-2.9332
X7.1229Y-2.8332
X7.1229Y-2.9332
T3
X5.6862Y-2.0614
T0
M30
