%TF.GenerationSoftware,KiCad,Pcbnew,(6.0.7)*%
%TF.CreationDate,2022-10-15T16:11:04-05:00*%
%TF.ProjectId,Hackfest 2022 Badge,4861636b-6665-4737-9420-323032322042,Rev0*%
%TF.SameCoordinates,Original*%
%TF.FileFunction,Legend,Bot*%
%TF.FilePolarity,Positive*%
%FSLAX46Y46*%
G04 Gerber Fmt 4.6, Leading zero omitted, Abs format (unit mm)*
G04 Created by KiCad (PCBNEW (6.0.7)) date 2022-10-15 16:11:04*
%MOMM*%
%LPD*%
G01*
G04 APERTURE LIST*
%ADD10C,0.150000*%
%ADD11C,0.120000*%
%ADD12C,0.010000*%
%ADD13C,0.500000*%
%ADD14C,0.100000*%
%ADD15C,0.310000*%
G04 APERTURE END LIST*
D10*
X146170000Y-66340000D02*
X146170000Y-69500000D01*
%TO.C,BT2*%
X139738571Y-127364285D02*
X139786190Y-127507142D01*
X139833809Y-127554761D01*
X139929047Y-127602380D01*
X140071904Y-127602380D01*
X140167142Y-127554761D01*
X140214761Y-127507142D01*
X140262380Y-127411904D01*
X140262380Y-127030952D01*
X139262380Y-127030952D01*
X139262380Y-127364285D01*
X139310000Y-127459523D01*
X139357619Y-127507142D01*
X139452857Y-127554761D01*
X139548095Y-127554761D01*
X139643333Y-127507142D01*
X139690952Y-127459523D01*
X139738571Y-127364285D01*
X139738571Y-127030952D01*
X139262380Y-127888095D02*
X139262380Y-128459523D01*
X140262380Y-128173809D02*
X139262380Y-128173809D01*
X139357619Y-128745238D02*
X139310000Y-128792857D01*
X139262380Y-128888095D01*
X139262380Y-129126190D01*
X139310000Y-129221428D01*
X139357619Y-129269047D01*
X139452857Y-129316666D01*
X139548095Y-129316666D01*
X139690952Y-129269047D01*
X140262380Y-128697619D01*
X140262380Y-129316666D01*
X143303752Y-132114628D02*
X142541847Y-132114628D01*
X142922800Y-132495580D02*
X142922800Y-131733676D01*
X133036190Y-117477142D02*
X133083809Y-117524761D01*
X133226666Y-117572380D01*
X133321904Y-117572380D01*
X133464761Y-117524761D01*
X133560000Y-117429523D01*
X133607619Y-117334285D01*
X133655238Y-117143809D01*
X133655238Y-117000952D01*
X133607619Y-116810476D01*
X133560000Y-116715238D01*
X133464761Y-116620000D01*
X133321904Y-116572380D01*
X133226666Y-116572380D01*
X133083809Y-116620000D01*
X133036190Y-116667619D01*
X132036190Y-117572380D02*
X132369523Y-117096190D01*
X132607619Y-117572380D02*
X132607619Y-116572380D01*
X132226666Y-116572380D01*
X132131428Y-116620000D01*
X132083809Y-116667619D01*
X132036190Y-116762857D01*
X132036190Y-116905714D01*
X132083809Y-117000952D01*
X132131428Y-117048571D01*
X132226666Y-117096190D01*
X132607619Y-117096190D01*
X131845714Y-117667619D02*
X131083809Y-117667619D01*
X130893333Y-116667619D02*
X130845714Y-116620000D01*
X130750476Y-116572380D01*
X130512380Y-116572380D01*
X130417142Y-116620000D01*
X130369523Y-116667619D01*
X130321904Y-116762857D01*
X130321904Y-116858095D01*
X130369523Y-117000952D01*
X130940952Y-117572380D01*
X130321904Y-117572380D01*
X129702857Y-116572380D02*
X129607619Y-116572380D01*
X129512380Y-116620000D01*
X129464761Y-116667619D01*
X129417142Y-116762857D01*
X129369523Y-116953333D01*
X129369523Y-117191428D01*
X129417142Y-117381904D01*
X129464761Y-117477142D01*
X129512380Y-117524761D01*
X129607619Y-117572380D01*
X129702857Y-117572380D01*
X129798095Y-117524761D01*
X129845714Y-117477142D01*
X129893333Y-117381904D01*
X129940952Y-117191428D01*
X129940952Y-116953333D01*
X129893333Y-116762857D01*
X129845714Y-116667619D01*
X129798095Y-116620000D01*
X129702857Y-116572380D01*
X129036190Y-116572380D02*
X128417142Y-116572380D01*
X128750476Y-116953333D01*
X128607619Y-116953333D01*
X128512380Y-117000952D01*
X128464761Y-117048571D01*
X128417142Y-117143809D01*
X128417142Y-117381904D01*
X128464761Y-117477142D01*
X128512380Y-117524761D01*
X128607619Y-117572380D01*
X128893333Y-117572380D01*
X128988571Y-117524761D01*
X129036190Y-117477142D01*
X128036190Y-116667619D02*
X127988571Y-116620000D01*
X127893333Y-116572380D01*
X127655238Y-116572380D01*
X127560000Y-116620000D01*
X127512380Y-116667619D01*
X127464761Y-116762857D01*
X127464761Y-116858095D01*
X127512380Y-117000952D01*
X128083809Y-117572380D01*
X127464761Y-117572380D01*
X118995952Y-132114628D02*
X118234047Y-132114628D01*
X118615000Y-132495580D02*
X118615000Y-131733676D01*
X131010152Y-132114628D02*
X130248247Y-132114628D01*
%TO.C,BT1*%
X150238571Y-127694285D02*
X150286190Y-127837142D01*
X150333809Y-127884761D01*
X150429047Y-127932380D01*
X150571904Y-127932380D01*
X150667142Y-127884761D01*
X150714761Y-127837142D01*
X150762380Y-127741904D01*
X150762380Y-127360952D01*
X149762380Y-127360952D01*
X149762380Y-127694285D01*
X149810000Y-127789523D01*
X149857619Y-127837142D01*
X149952857Y-127884761D01*
X150048095Y-127884761D01*
X150143333Y-127837142D01*
X150190952Y-127789523D01*
X150238571Y-127694285D01*
X150238571Y-127360952D01*
X149762380Y-128218095D02*
X149762380Y-128789523D01*
X150762380Y-128503809D02*
X149762380Y-128503809D01*
X150762380Y-129646666D02*
X150762380Y-129075238D01*
X150762380Y-129360952D02*
X149762380Y-129360952D01*
X149905238Y-129265714D01*
X150000476Y-129170476D01*
X150048095Y-129075238D01*
X159700152Y-132114628D02*
X158938247Y-132114628D01*
X147685952Y-132114628D02*
X146924047Y-132114628D01*
X147305000Y-132495580D02*
X147305000Y-131733676D01*
X161936190Y-117437142D02*
X161983809Y-117484761D01*
X162126666Y-117532380D01*
X162221904Y-117532380D01*
X162364761Y-117484761D01*
X162460000Y-117389523D01*
X162507619Y-117294285D01*
X162555238Y-117103809D01*
X162555238Y-116960952D01*
X162507619Y-116770476D01*
X162460000Y-116675238D01*
X162364761Y-116580000D01*
X162221904Y-116532380D01*
X162126666Y-116532380D01*
X161983809Y-116580000D01*
X161936190Y-116627619D01*
X160936190Y-117532380D02*
X161269523Y-117056190D01*
X161507619Y-117532380D02*
X161507619Y-116532380D01*
X161126666Y-116532380D01*
X161031428Y-116580000D01*
X160983809Y-116627619D01*
X160936190Y-116722857D01*
X160936190Y-116865714D01*
X160983809Y-116960952D01*
X161031428Y-117008571D01*
X161126666Y-117056190D01*
X161507619Y-117056190D01*
X160745714Y-117627619D02*
X159983809Y-117627619D01*
X159793333Y-116627619D02*
X159745714Y-116580000D01*
X159650476Y-116532380D01*
X159412380Y-116532380D01*
X159317142Y-116580000D01*
X159269523Y-116627619D01*
X159221904Y-116722857D01*
X159221904Y-116818095D01*
X159269523Y-116960952D01*
X159840952Y-117532380D01*
X159221904Y-117532380D01*
X158602857Y-116532380D02*
X158507619Y-116532380D01*
X158412380Y-116580000D01*
X158364761Y-116627619D01*
X158317142Y-116722857D01*
X158269523Y-116913333D01*
X158269523Y-117151428D01*
X158317142Y-117341904D01*
X158364761Y-117437142D01*
X158412380Y-117484761D01*
X158507619Y-117532380D01*
X158602857Y-117532380D01*
X158698095Y-117484761D01*
X158745714Y-117437142D01*
X158793333Y-117341904D01*
X158840952Y-117151428D01*
X158840952Y-116913333D01*
X158793333Y-116722857D01*
X158745714Y-116627619D01*
X158698095Y-116580000D01*
X158602857Y-116532380D01*
X157936190Y-116532380D02*
X157317142Y-116532380D01*
X157650476Y-116913333D01*
X157507619Y-116913333D01*
X157412380Y-116960952D01*
X157364761Y-117008571D01*
X157317142Y-117103809D01*
X157317142Y-117341904D01*
X157364761Y-117437142D01*
X157412380Y-117484761D01*
X157507619Y-117532380D01*
X157793333Y-117532380D01*
X157888571Y-117484761D01*
X157936190Y-117437142D01*
X156936190Y-116627619D02*
X156888571Y-116580000D01*
X156793333Y-116532380D01*
X156555238Y-116532380D01*
X156460000Y-116580000D01*
X156412380Y-116627619D01*
X156364761Y-116722857D01*
X156364761Y-116818095D01*
X156412380Y-116960952D01*
X156983809Y-117532380D01*
X156364761Y-117532380D01*
X171993752Y-132114628D02*
X171231847Y-132114628D01*
X171612800Y-132495580D02*
X171612800Y-131733676D01*
%TO.C,D4*%
X174772095Y-138968180D02*
X174772095Y-137968180D01*
X174534000Y-137968180D01*
X174391142Y-138015800D01*
X174295904Y-138111038D01*
X174248285Y-138206276D01*
X174200666Y-138396752D01*
X174200666Y-138539609D01*
X174248285Y-138730085D01*
X174295904Y-138825323D01*
X174391142Y-138920561D01*
X174534000Y-138968180D01*
X174772095Y-138968180D01*
X173343523Y-138301514D02*
X173343523Y-138968180D01*
X173581619Y-137920561D02*
X173819714Y-138634847D01*
X173200666Y-138634847D01*
%TO.C,D3*%
X177112095Y-128027080D02*
X177112095Y-127027080D01*
X176874000Y-127027080D01*
X176731142Y-127074700D01*
X176635904Y-127169938D01*
X176588285Y-127265176D01*
X176540666Y-127455652D01*
X176540666Y-127598509D01*
X176588285Y-127788985D01*
X176635904Y-127884223D01*
X176731142Y-127979461D01*
X176874000Y-128027080D01*
X177112095Y-128027080D01*
X176207333Y-127027080D02*
X175588285Y-127027080D01*
X175921619Y-127408033D01*
X175778761Y-127408033D01*
X175683523Y-127455652D01*
X175635904Y-127503271D01*
X175588285Y-127598509D01*
X175588285Y-127836604D01*
X175635904Y-127931842D01*
X175683523Y-127979461D01*
X175778761Y-128027080D01*
X176064476Y-128027080D01*
X176159714Y-127979461D01*
X176207333Y-127931842D01*
%TO.C,D2*%
X130658095Y-105822380D02*
X130658095Y-104822380D01*
X130420000Y-104822380D01*
X130277142Y-104870000D01*
X130181904Y-104965238D01*
X130134285Y-105060476D01*
X130086666Y-105250952D01*
X130086666Y-105393809D01*
X130134285Y-105584285D01*
X130181904Y-105679523D01*
X130277142Y-105774761D01*
X130420000Y-105822380D01*
X130658095Y-105822380D01*
X129705714Y-104917619D02*
X129658095Y-104870000D01*
X129562857Y-104822380D01*
X129324761Y-104822380D01*
X129229523Y-104870000D01*
X129181904Y-104917619D01*
X129134285Y-105012857D01*
X129134285Y-105108095D01*
X129181904Y-105250952D01*
X129753333Y-105822380D01*
X129134285Y-105822380D01*
%TO.C,X1*%
X182871909Y-78266661D02*
X182729052Y-78314280D01*
X182490957Y-78314280D01*
X182395719Y-78266661D01*
X182348100Y-78219042D01*
X182300480Y-78123804D01*
X182300480Y-78028566D01*
X182348100Y-77933328D01*
X182395719Y-77885709D01*
X182490957Y-77838090D01*
X182681433Y-77790471D01*
X182776671Y-77742852D01*
X182824290Y-77695233D01*
X182871909Y-77599995D01*
X182871909Y-77504757D01*
X182824290Y-77409519D01*
X182776671Y-77361900D01*
X182681433Y-77314280D01*
X182443338Y-77314280D01*
X182300480Y-77361900D01*
X181919528Y-78028566D02*
X181443338Y-78028566D01*
X182014766Y-78314280D02*
X181681433Y-77314280D01*
X181348100Y-78314280D01*
X180824290Y-77314280D02*
X180633814Y-77314280D01*
X180538576Y-77361900D01*
X180443338Y-77457138D01*
X180395719Y-77647614D01*
X180395719Y-77980947D01*
X180443338Y-78171423D01*
X180538576Y-78266661D01*
X180633814Y-78314280D01*
X180824290Y-78314280D01*
X180919528Y-78266661D01*
X181014766Y-78171423D01*
X181062385Y-77980947D01*
X181062385Y-77647614D01*
X181014766Y-77457138D01*
X180919528Y-77361900D01*
X180824290Y-77314280D01*
X180205242Y-78409519D02*
X179443338Y-78409519D01*
X179300480Y-77647614D02*
X179062385Y-78314280D01*
X178824290Y-77647614D01*
X177919528Y-78314280D02*
X178490957Y-78314280D01*
X178205242Y-78314280D02*
X178205242Y-77314280D01*
X178300480Y-77457138D01*
X178395719Y-77552376D01*
X178490957Y-77599995D01*
X177062385Y-77314280D02*
X177252861Y-77314280D01*
X177348100Y-77361900D01*
X177395719Y-77409519D01*
X177490957Y-77552376D01*
X177538576Y-77742852D01*
X177538576Y-78123804D01*
X177490957Y-78219042D01*
X177443338Y-78266661D01*
X177348100Y-78314280D01*
X177157623Y-78314280D01*
X177062385Y-78266661D01*
X177014766Y-78219042D01*
X176967147Y-78123804D01*
X176967147Y-77885709D01*
X177014766Y-77790471D01*
X177062385Y-77742852D01*
X177157623Y-77695233D01*
X177348100Y-77695233D01*
X177443338Y-77742852D01*
X177490957Y-77790471D01*
X177538576Y-77885709D01*
X176490957Y-78314280D02*
X176300480Y-78314280D01*
X176205242Y-78266661D01*
X176157623Y-78219042D01*
X176062385Y-78076185D01*
X176014766Y-77885709D01*
X176014766Y-77504757D01*
X176062385Y-77409519D01*
X176110004Y-77361900D01*
X176205242Y-77314280D01*
X176395719Y-77314280D01*
X176490957Y-77361900D01*
X176538576Y-77409519D01*
X176586195Y-77504757D01*
X176586195Y-77742852D01*
X176538576Y-77838090D01*
X176490957Y-77885709D01*
X176395719Y-77933328D01*
X176205242Y-77933328D01*
X176110004Y-77885709D01*
X176062385Y-77838090D01*
X176014766Y-77742852D01*
X175586195Y-78314280D02*
X175586195Y-77314280D01*
X175586195Y-77695233D02*
X175490957Y-77647614D01*
X175300480Y-77647614D01*
X175205242Y-77695233D01*
X175157623Y-77742852D01*
X175110004Y-77838090D01*
X175110004Y-78123804D01*
X175157623Y-78219042D01*
X175205242Y-78266661D01*
X175300480Y-78314280D01*
X175490957Y-78314280D01*
X175586195Y-78266661D01*
X174681433Y-78314280D02*
X174681433Y-77647614D01*
X174681433Y-77314280D02*
X174729052Y-77361900D01*
X174681433Y-77409519D01*
X174633814Y-77361900D01*
X174681433Y-77314280D01*
X174681433Y-77409519D01*
X174252861Y-78266661D02*
X174157623Y-78314280D01*
X173967147Y-78314280D01*
X173871909Y-78266661D01*
X173824290Y-78171423D01*
X173824290Y-78123804D01*
X173871909Y-78028566D01*
X173967147Y-77980947D01*
X174110004Y-77980947D01*
X174205242Y-77933328D01*
X174252861Y-77838090D01*
X174252861Y-77790471D01*
X174205242Y-77695233D01*
X174110004Y-77647614D01*
X173967147Y-77647614D01*
X173871909Y-77695233D01*
X176049328Y-75607300D02*
X176120757Y-75571585D01*
X176227900Y-75571585D01*
X176335042Y-75607300D01*
X176406471Y-75678728D01*
X176442185Y-75750157D01*
X176477900Y-75893014D01*
X176477900Y-76000157D01*
X176442185Y-76143014D01*
X176406471Y-76214442D01*
X176335042Y-76285871D01*
X176227900Y-76321585D01*
X176156471Y-76321585D01*
X176049328Y-76285871D01*
X176013614Y-76250157D01*
X176013614Y-76000157D01*
X176156471Y-76000157D01*
X175692185Y-76321585D02*
X175692185Y-75571585D01*
X175263614Y-76321585D01*
X175263614Y-75571585D01*
X174906471Y-76321585D02*
X174906471Y-75571585D01*
X174727900Y-75571585D01*
X174620757Y-75607300D01*
X174549328Y-75678728D01*
X174513614Y-75750157D01*
X174477900Y-75893014D01*
X174477900Y-76000157D01*
X174513614Y-76143014D01*
X174549328Y-76214442D01*
X174620757Y-76285871D01*
X174727900Y-76321585D01*
X174906471Y-76321585D01*
X176427100Y-69932785D02*
X176177100Y-70682785D01*
X175927100Y-69932785D01*
X175248528Y-70611357D02*
X175284242Y-70647071D01*
X175391385Y-70682785D01*
X175462814Y-70682785D01*
X175569957Y-70647071D01*
X175641385Y-70575642D01*
X175677100Y-70504214D01*
X175712814Y-70361357D01*
X175712814Y-70254214D01*
X175677100Y-70111357D01*
X175641385Y-70039928D01*
X175569957Y-69968500D01*
X175462814Y-69932785D01*
X175391385Y-69932785D01*
X175284242Y-69968500D01*
X175248528Y-70004214D01*
X174498528Y-70611357D02*
X174534242Y-70647071D01*
X174641385Y-70682785D01*
X174712814Y-70682785D01*
X174819957Y-70647071D01*
X174891385Y-70575642D01*
X174927100Y-70504214D01*
X174962814Y-70361357D01*
X174962814Y-70254214D01*
X174927100Y-70111357D01*
X174891385Y-70039928D01*
X174819957Y-69968500D01*
X174712814Y-69932785D01*
X174641385Y-69932785D01*
X174534242Y-69968500D01*
X174498528Y-70004214D01*
X182274642Y-69943100D02*
X182346071Y-69907385D01*
X182453214Y-69907385D01*
X182560357Y-69943100D01*
X182631785Y-70014528D01*
X182667500Y-70085957D01*
X182703214Y-70228814D01*
X182703214Y-70335957D01*
X182667500Y-70478814D01*
X182631785Y-70550242D01*
X182560357Y-70621671D01*
X182453214Y-70657385D01*
X182381785Y-70657385D01*
X182274642Y-70621671D01*
X182238928Y-70585957D01*
X182238928Y-70335957D01*
X182381785Y-70335957D01*
X181917500Y-70657385D02*
X181917500Y-69907385D01*
X181631785Y-69907385D01*
X181560357Y-69943100D01*
X181524642Y-69978814D01*
X181488928Y-70050242D01*
X181488928Y-70157385D01*
X181524642Y-70228814D01*
X181560357Y-70264528D01*
X181631785Y-70300242D01*
X181917500Y-70300242D01*
X181167500Y-70657385D02*
X181167500Y-69907385D01*
X180667500Y-69907385D02*
X180524642Y-69907385D01*
X180453214Y-69943100D01*
X180381785Y-70014528D01*
X180346071Y-70157385D01*
X180346071Y-70407385D01*
X180381785Y-70550242D01*
X180453214Y-70621671D01*
X180524642Y-70657385D01*
X180667500Y-70657385D01*
X180738928Y-70621671D01*
X180810357Y-70550242D01*
X180846071Y-70407385D01*
X180846071Y-70157385D01*
X180810357Y-70014528D01*
X180738928Y-69943100D01*
X180667500Y-69907385D01*
X179631785Y-70657385D02*
X180060357Y-70657385D01*
X179846071Y-70657385D02*
X179846071Y-69907385D01*
X179917500Y-70014528D01*
X179988928Y-70085957D01*
X180060357Y-70121671D01*
X182401642Y-75581900D02*
X182473071Y-75546185D01*
X182580214Y-75546185D01*
X182687357Y-75581900D01*
X182758785Y-75653328D01*
X182794500Y-75724757D01*
X182830214Y-75867614D01*
X182830214Y-75974757D01*
X182794500Y-76117614D01*
X182758785Y-76189042D01*
X182687357Y-76260471D01*
X182580214Y-76296185D01*
X182508785Y-76296185D01*
X182401642Y-76260471D01*
X182365928Y-76224757D01*
X182365928Y-75974757D01*
X182508785Y-75974757D01*
X182044500Y-76296185D02*
X182044500Y-75546185D01*
X181758785Y-75546185D01*
X181687357Y-75581900D01*
X181651642Y-75617614D01*
X181615928Y-75689042D01*
X181615928Y-75796185D01*
X181651642Y-75867614D01*
X181687357Y-75903328D01*
X181758785Y-75939042D01*
X182044500Y-75939042D01*
X181294500Y-76296185D02*
X181294500Y-75546185D01*
X180794500Y-75546185D02*
X180651642Y-75546185D01*
X180580214Y-75581900D01*
X180508785Y-75653328D01*
X180473071Y-75796185D01*
X180473071Y-76046185D01*
X180508785Y-76189042D01*
X180580214Y-76260471D01*
X180651642Y-76296185D01*
X180794500Y-76296185D01*
X180865928Y-76260471D01*
X180937357Y-76189042D01*
X180973071Y-76046185D01*
X180973071Y-75796185D01*
X180937357Y-75653328D01*
X180865928Y-75581900D01*
X180794500Y-75546185D01*
X180187357Y-75617614D02*
X180151642Y-75581900D01*
X180080214Y-75546185D01*
X179901642Y-75546185D01*
X179830214Y-75581900D01*
X179794500Y-75617614D01*
X179758785Y-75689042D01*
X179758785Y-75760471D01*
X179794500Y-75867614D01*
X180223071Y-76296185D01*
X179758785Y-76296185D01*
X179131814Y-70621671D02*
X179024671Y-70657385D01*
X178846100Y-70657385D01*
X178774671Y-70621671D01*
X178738957Y-70585957D01*
X178703242Y-70514528D01*
X178703242Y-70443100D01*
X178738957Y-70371671D01*
X178774671Y-70335957D01*
X178846100Y-70300242D01*
X178988957Y-70264528D01*
X179060385Y-70228814D01*
X179096100Y-70193100D01*
X179131814Y-70121671D01*
X179131814Y-70050242D01*
X179096100Y-69978814D01*
X179060385Y-69943100D01*
X178988957Y-69907385D01*
X178810385Y-69907385D01*
X178703242Y-69943100D01*
X178381814Y-70657385D02*
X178381814Y-69907385D01*
X178203242Y-69907385D01*
X178096100Y-69943100D01*
X178024671Y-70014528D01*
X177988957Y-70085957D01*
X177953242Y-70228814D01*
X177953242Y-70335957D01*
X177988957Y-70478814D01*
X178024671Y-70550242D01*
X178096100Y-70621671D01*
X178203242Y-70657385D01*
X178381814Y-70657385D01*
X177667528Y-70443100D02*
X177310385Y-70443100D01*
X177738957Y-70657385D02*
X177488957Y-69907385D01*
X177238957Y-70657385D01*
X178859957Y-76285871D02*
X178752814Y-76321585D01*
X178574242Y-76321585D01*
X178502814Y-76285871D01*
X178467100Y-76250157D01*
X178431385Y-76178728D01*
X178431385Y-76107300D01*
X178467100Y-76035871D01*
X178502814Y-76000157D01*
X178574242Y-75964442D01*
X178717100Y-75928728D01*
X178788528Y-75893014D01*
X178824242Y-75857300D01*
X178859957Y-75785871D01*
X178859957Y-75714442D01*
X178824242Y-75643014D01*
X178788528Y-75607300D01*
X178717100Y-75571585D01*
X178538528Y-75571585D01*
X178431385Y-75607300D01*
X177681385Y-76250157D02*
X177717100Y-76285871D01*
X177824242Y-76321585D01*
X177895671Y-76321585D01*
X178002814Y-76285871D01*
X178074242Y-76214442D01*
X178109957Y-76143014D01*
X178145671Y-76000157D01*
X178145671Y-75893014D01*
X178109957Y-75750157D01*
X178074242Y-75678728D01*
X178002814Y-75607300D01*
X177895671Y-75571585D01*
X177824242Y-75571585D01*
X177717100Y-75607300D01*
X177681385Y-75643014D01*
X177002814Y-76321585D02*
X177359957Y-76321585D01*
X177359957Y-75571585D01*
%TO.C,D1*%
X154358095Y-92642380D02*
X154358095Y-91642380D01*
X154120000Y-91642380D01*
X153977142Y-91690000D01*
X153881904Y-91785238D01*
X153834285Y-91880476D01*
X153786666Y-92070952D01*
X153786666Y-92213809D01*
X153834285Y-92404285D01*
X153881904Y-92499523D01*
X153977142Y-92594761D01*
X154120000Y-92642380D01*
X154358095Y-92642380D01*
X152834285Y-92642380D02*
X153405714Y-92642380D01*
X153120000Y-92642380D02*
X153120000Y-91642380D01*
X153215238Y-91785238D01*
X153310476Y-91880476D01*
X153405714Y-91928095D01*
%TO.C,J1*%
X108537142Y-71971904D02*
X108584761Y-71924285D01*
X108632380Y-71781428D01*
X108632380Y-71686190D01*
X108584761Y-71543333D01*
X108489523Y-71448095D01*
X108394285Y-71400476D01*
X108203809Y-71352857D01*
X108060952Y-71352857D01*
X107870476Y-71400476D01*
X107775238Y-71448095D01*
X107680000Y-71543333D01*
X107632380Y-71686190D01*
X107632380Y-71781428D01*
X107680000Y-71924285D01*
X107727619Y-71971904D01*
X108632380Y-72543333D02*
X108584761Y-72448095D01*
X108537142Y-72400476D01*
X108441904Y-72352857D01*
X108156190Y-72352857D01*
X108060952Y-72400476D01*
X108013333Y-72448095D01*
X107965714Y-72543333D01*
X107965714Y-72686190D01*
X108013333Y-72781428D01*
X108060952Y-72829047D01*
X108156190Y-72876666D01*
X108441904Y-72876666D01*
X108537142Y-72829047D01*
X108584761Y-72781428D01*
X108632380Y-72686190D01*
X108632380Y-72543333D01*
X107965714Y-73305238D02*
X108632380Y-73305238D01*
X108060952Y-73305238D02*
X108013333Y-73352857D01*
X107965714Y-73448095D01*
X107965714Y-73590952D01*
X108013333Y-73686190D01*
X108108571Y-73733809D01*
X108632380Y-73733809D01*
X107965714Y-74210000D02*
X108632380Y-74210000D01*
X108060952Y-74210000D02*
X108013333Y-74257619D01*
X107965714Y-74352857D01*
X107965714Y-74495714D01*
X108013333Y-74590952D01*
X108108571Y-74638571D01*
X108632380Y-74638571D01*
X108727619Y-74876666D02*
X108727619Y-75638571D01*
X107632380Y-76067142D02*
X107632380Y-76162380D01*
X107680000Y-76257619D01*
X107727619Y-76305238D01*
X107822857Y-76352857D01*
X108013333Y-76400476D01*
X108251428Y-76400476D01*
X108441904Y-76352857D01*
X108537142Y-76305238D01*
X108584761Y-76257619D01*
X108632380Y-76162380D01*
X108632380Y-76067142D01*
X108584761Y-75971904D01*
X108537142Y-75924285D01*
X108441904Y-75876666D01*
X108251428Y-75829047D01*
X108013333Y-75829047D01*
X107822857Y-75876666D01*
X107727619Y-75924285D01*
X107680000Y-75971904D01*
X107632380Y-76067142D01*
X108632380Y-77352857D02*
X108632380Y-76781428D01*
X108632380Y-77067142D02*
X107632380Y-77067142D01*
X107775238Y-76971904D01*
X107870476Y-76876666D01*
X107918095Y-76781428D01*
X108632380Y-77686190D02*
X107965714Y-78210000D01*
X107965714Y-77686190D02*
X108632380Y-78210000D01*
X107632380Y-78781428D02*
X107632380Y-78876666D01*
X107680000Y-78971904D01*
X107727619Y-79019523D01*
X107822857Y-79067142D01*
X108013333Y-79114761D01*
X108251428Y-79114761D01*
X108441904Y-79067142D01*
X108537142Y-79019523D01*
X108584761Y-78971904D01*
X108632380Y-78876666D01*
X108632380Y-78781428D01*
X108584761Y-78686190D01*
X108537142Y-78638571D01*
X108441904Y-78590952D01*
X108251428Y-78543333D01*
X108013333Y-78543333D01*
X107822857Y-78590952D01*
X107727619Y-78638571D01*
X107680000Y-78686190D01*
X107632380Y-78781428D01*
X107727619Y-79495714D02*
X107680000Y-79543333D01*
X107632380Y-79638571D01*
X107632380Y-79876666D01*
X107680000Y-79971904D01*
X107727619Y-80019523D01*
X107822857Y-80067142D01*
X107918095Y-80067142D01*
X108060952Y-80019523D01*
X108632380Y-79448095D01*
X108632380Y-80067142D01*
%TO.C,SW1*%
X192773333Y-93304761D02*
X192630476Y-93352380D01*
X192392380Y-93352380D01*
X192297142Y-93304761D01*
X192249523Y-93257142D01*
X192201904Y-93161904D01*
X192201904Y-93066666D01*
X192249523Y-92971428D01*
X192297142Y-92923809D01*
X192392380Y-92876190D01*
X192582857Y-92828571D01*
X192678095Y-92780952D01*
X192725714Y-92733333D01*
X192773333Y-92638095D01*
X192773333Y-92542857D01*
X192725714Y-92447619D01*
X192678095Y-92400000D01*
X192582857Y-92352380D01*
X192344761Y-92352380D01*
X192201904Y-92400000D01*
X191868571Y-92352380D02*
X191630476Y-93352380D01*
X191440000Y-92638095D01*
X191249523Y-93352380D01*
X191011428Y-92352380D01*
X190106666Y-93352380D02*
X190678095Y-93352380D01*
X190392380Y-93352380D02*
X190392380Y-92352380D01*
X190487619Y-92495238D01*
X190582857Y-92590476D01*
X190678095Y-92638095D01*
%TO.C,C1*%
X153422380Y-79052380D02*
X153422380Y-78480952D01*
X153422380Y-78766666D02*
X152422380Y-78766666D01*
X152565238Y-78671428D01*
X152660476Y-78576190D01*
X152708095Y-78480952D01*
X152422380Y-79671428D02*
X152422380Y-79766666D01*
X152470000Y-79861904D01*
X152517619Y-79909523D01*
X152612857Y-79957142D01*
X152803333Y-80004761D01*
X153041428Y-80004761D01*
X153231904Y-79957142D01*
X153327142Y-79909523D01*
X153374761Y-79861904D01*
X153422380Y-79766666D01*
X153422380Y-79671428D01*
X153374761Y-79576190D01*
X153327142Y-79528571D01*
X153231904Y-79480952D01*
X153041428Y-79433333D01*
X152803333Y-79433333D01*
X152612857Y-79480952D01*
X152517619Y-79528571D01*
X152470000Y-79576190D01*
X152422380Y-79671428D01*
X152422380Y-80623809D02*
X152422380Y-80719047D01*
X152470000Y-80814285D01*
X152517619Y-80861904D01*
X152612857Y-80909523D01*
X152803333Y-80957142D01*
X153041428Y-80957142D01*
X153231904Y-80909523D01*
X153327142Y-80861904D01*
X153374761Y-80814285D01*
X153422380Y-80719047D01*
X153422380Y-80623809D01*
X153374761Y-80528571D01*
X153327142Y-80480952D01*
X153231904Y-80433333D01*
X153041428Y-80385714D01*
X152803333Y-80385714D01*
X152612857Y-80433333D01*
X152517619Y-80480952D01*
X152470000Y-80528571D01*
X152422380Y-80623809D01*
X152755714Y-81814285D02*
X153422380Y-81814285D01*
X152755714Y-81385714D02*
X153279523Y-81385714D01*
X153374761Y-81433333D01*
X153422380Y-81528571D01*
X153422380Y-81671428D01*
X153374761Y-81766666D01*
X153327142Y-81814285D01*
X152898571Y-82623809D02*
X152898571Y-82290476D01*
X153422380Y-82290476D02*
X152422380Y-82290476D01*
X152422380Y-82766666D01*
%TO.C,IC1*%
X144706190Y-68742380D02*
X144706190Y-67742380D01*
X143658571Y-68647142D02*
X143706190Y-68694761D01*
X143849047Y-68742380D01*
X143944285Y-68742380D01*
X144087142Y-68694761D01*
X144182380Y-68599523D01*
X144230000Y-68504285D01*
X144277619Y-68313809D01*
X144277619Y-68170952D01*
X144230000Y-67980476D01*
X144182380Y-67885238D01*
X144087142Y-67790000D01*
X143944285Y-67742380D01*
X143849047Y-67742380D01*
X143706190Y-67790000D01*
X143658571Y-67837619D01*
X142706190Y-68742380D02*
X143277619Y-68742380D01*
X142991904Y-68742380D02*
X142991904Y-67742380D01*
X143087142Y-67885238D01*
X143182380Y-67980476D01*
X143277619Y-68028095D01*
X147984761Y-65157142D02*
X148032380Y-65300000D01*
X148032380Y-65538095D01*
X147984761Y-65633333D01*
X147937142Y-65680952D01*
X147841904Y-65728571D01*
X147746666Y-65728571D01*
X147651428Y-65680952D01*
X147603809Y-65633333D01*
X147556190Y-65538095D01*
X147508571Y-65347619D01*
X147460952Y-65252380D01*
X147413333Y-65204761D01*
X147318095Y-65157142D01*
X147222857Y-65157142D01*
X147127619Y-65204761D01*
X147080000Y-65252380D01*
X147032380Y-65347619D01*
X147032380Y-65585714D01*
X147080000Y-65728571D01*
X147746666Y-66109523D02*
X147746666Y-66585714D01*
X148032380Y-66014285D02*
X147032380Y-66347619D01*
X148032380Y-66680952D01*
X147032380Y-67490476D02*
X147032380Y-67014285D01*
X147508571Y-66966666D01*
X147460952Y-67014285D01*
X147413333Y-67109523D01*
X147413333Y-67347619D01*
X147460952Y-67442857D01*
X147508571Y-67490476D01*
X147603809Y-67538095D01*
X147841904Y-67538095D01*
X147937142Y-67490476D01*
X147984761Y-67442857D01*
X148032380Y-67347619D01*
X148032380Y-67109523D01*
X147984761Y-67014285D01*
X147937142Y-66966666D01*
X147032380Y-68442857D02*
X147032380Y-67966666D01*
X147508571Y-67919047D01*
X147460952Y-67966666D01*
X147413333Y-68061904D01*
X147413333Y-68300000D01*
X147460952Y-68395238D01*
X147508571Y-68442857D01*
X147603809Y-68490476D01*
X147841904Y-68490476D01*
X147937142Y-68442857D01*
X147984761Y-68395238D01*
X148032380Y-68300000D01*
X148032380Y-68061904D01*
X147984761Y-67966666D01*
X147937142Y-67919047D01*
X147032380Y-69395238D02*
X147032380Y-68919047D01*
X147508571Y-68871428D01*
X147460952Y-68919047D01*
X147413333Y-69014285D01*
X147413333Y-69252380D01*
X147460952Y-69347619D01*
X147508571Y-69395238D01*
X147603809Y-69442857D01*
X147841904Y-69442857D01*
X147937142Y-69395238D01*
X147984761Y-69347619D01*
X148032380Y-69252380D01*
X148032380Y-69014285D01*
X147984761Y-68919047D01*
X147937142Y-68871428D01*
X148032380Y-69871428D02*
X147032380Y-69871428D01*
X147032380Y-70109523D01*
X147080000Y-70252380D01*
X147175238Y-70347619D01*
X147270476Y-70395238D01*
X147460952Y-70442857D01*
X147603809Y-70442857D01*
X147794285Y-70395238D01*
X147889523Y-70347619D01*
X147984761Y-70252380D01*
X148032380Y-70109523D01*
X148032380Y-69871428D01*
X148032380Y-71442857D02*
X147556190Y-71109523D01*
X148032380Y-70871428D02*
X147032380Y-70871428D01*
X147032380Y-71252380D01*
X147080000Y-71347619D01*
X147127619Y-71395238D01*
X147222857Y-71442857D01*
X147365714Y-71442857D01*
X147460952Y-71395238D01*
X147508571Y-71347619D01*
X147556190Y-71252380D01*
X147556190Y-70871428D01*
%TO.C,R2*%
X142480380Y-80005371D02*
X142480380Y-79433942D01*
X142480380Y-79719657D02*
X141480380Y-79719657D01*
X141623238Y-79624419D01*
X141718476Y-79529180D01*
X141766095Y-79433942D01*
X141480380Y-80624419D02*
X141480380Y-80719657D01*
X141528000Y-80814895D01*
X141575619Y-80862514D01*
X141670857Y-80910133D01*
X141861333Y-80957752D01*
X142099428Y-80957752D01*
X142289904Y-80910133D01*
X142385142Y-80862514D01*
X142432761Y-80814895D01*
X142480380Y-80719657D01*
X142480380Y-80624419D01*
X142432761Y-80529180D01*
X142385142Y-80481561D01*
X142289904Y-80433942D01*
X142099428Y-80386323D01*
X141861333Y-80386323D01*
X141670857Y-80433942D01*
X141575619Y-80481561D01*
X141528000Y-80529180D01*
X141480380Y-80624419D01*
X141480380Y-81576800D02*
X141480380Y-81672038D01*
X141528000Y-81767276D01*
X141575619Y-81814895D01*
X141670857Y-81862514D01*
X141861333Y-81910133D01*
X142099428Y-81910133D01*
X142289904Y-81862514D01*
X142385142Y-81814895D01*
X142432761Y-81767276D01*
X142480380Y-81672038D01*
X142480380Y-81576800D01*
X142432761Y-81481561D01*
X142385142Y-81433942D01*
X142289904Y-81386323D01*
X142099428Y-81338704D01*
X141861333Y-81338704D01*
X141670857Y-81386323D01*
X141575619Y-81433942D01*
X141528000Y-81481561D01*
X141480380Y-81576800D01*
X142480380Y-82338704D02*
X141480380Y-82338704D01*
X142099428Y-82433942D02*
X142480380Y-82719657D01*
X141813714Y-82719657D02*
X142194666Y-82338704D01*
%TO.C,R1*%
X147890580Y-79881371D02*
X147890580Y-79309942D01*
X147890580Y-79595657D02*
X146890580Y-79595657D01*
X147033438Y-79500419D01*
X147128676Y-79405180D01*
X147176295Y-79309942D01*
X146890580Y-80500419D02*
X146890580Y-80595657D01*
X146938200Y-80690895D01*
X146985819Y-80738514D01*
X147081057Y-80786133D01*
X147271533Y-80833752D01*
X147509628Y-80833752D01*
X147700104Y-80786133D01*
X147795342Y-80738514D01*
X147842961Y-80690895D01*
X147890580Y-80595657D01*
X147890580Y-80500419D01*
X147842961Y-80405180D01*
X147795342Y-80357561D01*
X147700104Y-80309942D01*
X147509628Y-80262323D01*
X147271533Y-80262323D01*
X147081057Y-80309942D01*
X146985819Y-80357561D01*
X146938200Y-80405180D01*
X146890580Y-80500419D01*
X146890580Y-81452800D02*
X146890580Y-81548038D01*
X146938200Y-81643276D01*
X146985819Y-81690895D01*
X147081057Y-81738514D01*
X147271533Y-81786133D01*
X147509628Y-81786133D01*
X147700104Y-81738514D01*
X147795342Y-81690895D01*
X147842961Y-81643276D01*
X147890580Y-81548038D01*
X147890580Y-81452800D01*
X147842961Y-81357561D01*
X147795342Y-81309942D01*
X147700104Y-81262323D01*
X147509628Y-81214704D01*
X147271533Y-81214704D01*
X147081057Y-81262323D01*
X146985819Y-81309942D01*
X146938200Y-81357561D01*
X146890580Y-81452800D01*
X147890580Y-82214704D02*
X146890580Y-82214704D01*
X147509628Y-82309942D02*
X147890580Y-82595657D01*
X147223914Y-82595657D02*
X147604866Y-82214704D01*
%TO.C,R3*%
X137298780Y-80732152D02*
X137298780Y-80160723D01*
X137298780Y-80446438D02*
X136298780Y-80446438D01*
X136441638Y-80351200D01*
X136536876Y-80255961D01*
X136584495Y-80160723D01*
X137298780Y-81160723D02*
X136298780Y-81160723D01*
X136917828Y-81255961D02*
X137298780Y-81541676D01*
X136632114Y-81541676D02*
X137013066Y-81160723D01*
%TO.C,R4*%
X132015580Y-81008552D02*
X132015580Y-80437123D01*
X132015580Y-80722838D02*
X131015580Y-80722838D01*
X131158438Y-80627600D01*
X131253676Y-80532361D01*
X131301295Y-80437123D01*
X132015580Y-81437123D02*
X131015580Y-81437123D01*
X131634628Y-81532361D02*
X132015580Y-81818076D01*
X131348914Y-81818076D02*
X131729866Y-81437123D01*
D11*
%TO.C,BT2*%
X139542910Y-123145000D02*
G75*
G03*
X121817090Y-123145000I-8862910J-4885000D01*
G01*
X121814979Y-132911168D02*
G75*
G03*
X139542910Y-132915000I8865021J4881167D01*
G01*
X120210000Y-125030000D02*
X120210000Y-123145000D01*
X120210000Y-132915000D02*
X121817090Y-132915000D01*
X120210000Y-123145000D02*
X121817090Y-123145000D01*
X141150000Y-125030000D02*
X141150000Y-123145000D01*
X141150000Y-132915000D02*
X139542910Y-132915000D01*
X141150000Y-131030000D02*
X141150000Y-132915000D01*
X120210000Y-131030000D02*
X120210000Y-132915000D01*
X141150000Y-123145000D02*
X139542910Y-123145000D01*
%TO.C,BT1*%
X169840000Y-123145000D02*
X168232910Y-123145000D01*
X148900000Y-131030000D02*
X148900000Y-132915000D01*
X169840000Y-131030000D02*
X169840000Y-132915000D01*
X169840000Y-132915000D02*
X168232910Y-132915000D01*
X169840000Y-125030000D02*
X169840000Y-123145000D01*
X148900000Y-123145000D02*
X150507090Y-123145000D01*
X148900000Y-132915000D02*
X150507090Y-132915000D01*
X148900000Y-125030000D02*
X148900000Y-123145000D01*
X150504979Y-132911168D02*
G75*
G03*
X168232910Y-132915000I8865021J4881167D01*
G01*
X168232910Y-123145000D02*
G75*
G03*
X150507090Y-123145000I-8862910J-4885000D01*
G01*
%TO.C,D4*%
X177424900Y-135239200D02*
X177424900Y-135747200D01*
X178110700Y-135467800D02*
X179583900Y-136001200D01*
X180053800Y-139415800D02*
X179910000Y-139415800D01*
X179609300Y-136026600D02*
X180218900Y-136026600D01*
X178110700Y-136534600D02*
X178110700Y-135467800D01*
X178085300Y-136001200D02*
X177374100Y-136001200D01*
X177678900Y-135493200D02*
X177196300Y-135493200D01*
X179609300Y-136026600D02*
X178110700Y-136534600D01*
X180422100Y-135593200D02*
X179939500Y-135593200D01*
X179609300Y-135417000D02*
X179609300Y-136585400D01*
X179928658Y-137638035D02*
G75*
G03*
X177810000Y-137615800I-1068658J-877765D01*
G01*
X177791342Y-139393565D02*
G75*
G03*
X179910000Y-139415800I1068658J877764D01*
G01*
%TO.C,D3*%
X182812900Y-124474300D02*
X182330300Y-124474300D01*
X180069700Y-124374300D02*
X179587100Y-124374300D01*
X179815700Y-124120300D02*
X179815700Y-124628300D01*
X180501500Y-124348900D02*
X181974700Y-124882300D01*
X182000100Y-124298100D02*
X182000100Y-125466500D01*
X182000100Y-124907700D02*
X180501500Y-125415700D01*
X180501500Y-125415700D02*
X180501500Y-124348900D01*
X180476100Y-124882300D02*
X179764900Y-124882300D01*
X182000100Y-124907700D02*
X182609700Y-124907700D01*
X182393800Y-128474700D02*
X182250000Y-128474700D01*
X182268658Y-126696935D02*
G75*
G03*
X180150000Y-126674700I-1068658J-877765D01*
G01*
X180131342Y-128452465D02*
G75*
G03*
X182250000Y-128474700I1068658J877764D01*
G01*
%TO.C,G\u002A\u002A\u002A*%
G36*
X124336250Y-96853888D02*
G01*
X124355073Y-96861449D01*
X124415625Y-97118303D01*
X124415116Y-97129461D01*
X124333647Y-97234690D01*
X124146563Y-97282437D01*
X123902112Y-97277815D01*
X123648542Y-97225935D01*
X123434101Y-97131909D01*
X123307037Y-97000848D01*
X123274573Y-96879513D01*
X123230499Y-96345455D01*
X123236702Y-95778905D01*
X123505536Y-95778905D01*
X123548086Y-96326551D01*
X123606034Y-96633849D01*
X123684199Y-96831608D01*
X123759527Y-96774500D01*
X123897858Y-96449402D01*
X123948841Y-96004624D01*
X123903827Y-95611854D01*
X123754167Y-95442777D01*
X123594398Y-95500699D01*
X123505536Y-95778905D01*
X123236702Y-95778905D01*
X123237329Y-95721683D01*
X123296924Y-95318041D01*
X123329862Y-95149648D01*
X123331093Y-94646670D01*
X123329888Y-94361531D01*
X123591501Y-94361531D01*
X123596106Y-94692633D01*
X123598028Y-94699377D01*
X123739134Y-94902844D01*
X123877182Y-94747575D01*
X123939375Y-94313888D01*
X123918709Y-93984655D01*
X123830032Y-93749444D01*
X123804071Y-93757458D01*
X123677779Y-93981437D01*
X123591501Y-94361531D01*
X123329888Y-94361531D01*
X123329685Y-94313567D01*
X123412437Y-93781905D01*
X123451345Y-93691618D01*
X123635220Y-93463404D01*
X123880750Y-93305130D01*
X124134122Y-93234973D01*
X124341524Y-93271111D01*
X124449142Y-93431722D01*
X124461102Y-93602218D01*
X124380622Y-93749444D01*
X124373835Y-93750015D01*
X124302827Y-93895124D01*
X124271405Y-94313888D01*
X124266856Y-94374519D01*
X124256875Y-95301666D01*
X124263951Y-95940473D01*
X124266761Y-96004624D01*
X124292782Y-96598715D01*
X124336250Y-96853888D01*
G37*
D12*
X124336250Y-96853888D02*
X124355073Y-96861449D01*
X124415625Y-97118303D01*
X124415116Y-97129461D01*
X124333647Y-97234690D01*
X124146563Y-97282437D01*
X123902112Y-97277815D01*
X123648542Y-97225935D01*
X123434101Y-97131909D01*
X123307037Y-97000848D01*
X123274573Y-96879513D01*
X123230499Y-96345455D01*
X123236702Y-95778905D01*
X123505536Y-95778905D01*
X123548086Y-96326551D01*
X123606034Y-96633849D01*
X123684199Y-96831608D01*
X123759527Y-96774500D01*
X123897858Y-96449402D01*
X123948841Y-96004624D01*
X123903827Y-95611854D01*
X123754167Y-95442777D01*
X123594398Y-95500699D01*
X123505536Y-95778905D01*
X123236702Y-95778905D01*
X123237329Y-95721683D01*
X123296924Y-95318041D01*
X123329862Y-95149648D01*
X123331093Y-94646670D01*
X123329888Y-94361531D01*
X123591501Y-94361531D01*
X123596106Y-94692633D01*
X123598028Y-94699377D01*
X123739134Y-94902844D01*
X123877182Y-94747575D01*
X123939375Y-94313888D01*
X123918709Y-93984655D01*
X123830032Y-93749444D01*
X123804071Y-93757458D01*
X123677779Y-93981437D01*
X123591501Y-94361531D01*
X123329888Y-94361531D01*
X123329685Y-94313567D01*
X123412437Y-93781905D01*
X123451345Y-93691618D01*
X123635220Y-93463404D01*
X123880750Y-93305130D01*
X124134122Y-93234973D01*
X124341524Y-93271111D01*
X124449142Y-93431722D01*
X124461102Y-93602218D01*
X124380622Y-93749444D01*
X124373835Y-93750015D01*
X124302827Y-93895124D01*
X124271405Y-94313888D01*
X124266856Y-94374519D01*
X124256875Y-95301666D01*
X124263951Y-95940473D01*
X124266761Y-96004624D01*
X124292782Y-96598715D01*
X124336250Y-96853888D01*
G36*
X118465720Y-95642211D02*
G01*
X118501481Y-96416383D01*
X118581563Y-96751829D01*
X118637458Y-96857784D01*
X118700625Y-97166305D01*
X118665712Y-97277474D01*
X118524202Y-97382375D01*
X118331385Y-97416621D01*
X118150041Y-97372831D01*
X118042947Y-97243624D01*
X118036557Y-97059167D01*
X118109822Y-96656427D01*
X118188676Y-96222782D01*
X118133949Y-95869818D01*
X117927913Y-95592464D01*
X117793776Y-95435889D01*
X117591879Y-94976193D01*
X117520221Y-94524702D01*
X117842289Y-94524702D01*
X117842461Y-94527862D01*
X117915859Y-94898509D01*
X118045634Y-95105251D01*
X118168998Y-95098184D01*
X118223160Y-94827406D01*
X118215974Y-94631917D01*
X118151796Y-94061097D01*
X118117475Y-93922721D01*
X117990811Y-93814561D01*
X117875967Y-94049845D01*
X117842289Y-94524702D01*
X117520221Y-94524702D01*
X117504174Y-94423592D01*
X117541226Y-93883226D01*
X117713605Y-93460236D01*
X117753526Y-93412433D01*
X117964145Y-93265405D01*
X118213040Y-93197716D01*
X118451337Y-93209020D01*
X118630157Y-93298970D01*
X118700625Y-93467222D01*
X118687193Y-93597052D01*
X118581563Y-93749444D01*
X118518756Y-93842359D01*
X118475098Y-94278914D01*
X118467338Y-94827406D01*
X118462500Y-95169413D01*
X118465720Y-95642211D01*
G37*
X118465720Y-95642211D02*
X118501481Y-96416383D01*
X118581563Y-96751829D01*
X118637458Y-96857784D01*
X118700625Y-97166305D01*
X118665712Y-97277474D01*
X118524202Y-97382375D01*
X118331385Y-97416621D01*
X118150041Y-97372831D01*
X118042947Y-97243624D01*
X118036557Y-97059167D01*
X118109822Y-96656427D01*
X118188676Y-96222782D01*
X118133949Y-95869818D01*
X117927913Y-95592464D01*
X117793776Y-95435889D01*
X117591879Y-94976193D01*
X117520221Y-94524702D01*
X117842289Y-94524702D01*
X117842461Y-94527862D01*
X117915859Y-94898509D01*
X118045634Y-95105251D01*
X118168998Y-95098184D01*
X118223160Y-94827406D01*
X118215974Y-94631917D01*
X118151796Y-94061097D01*
X118117475Y-93922721D01*
X117990811Y-93814561D01*
X117875967Y-94049845D01*
X117842289Y-94524702D01*
X117520221Y-94524702D01*
X117504174Y-94423592D01*
X117541226Y-93883226D01*
X117713605Y-93460236D01*
X117753526Y-93412433D01*
X117964145Y-93265405D01*
X118213040Y-93197716D01*
X118451337Y-93209020D01*
X118630157Y-93298970D01*
X118700625Y-93467222D01*
X118687193Y-93597052D01*
X118581563Y-93749444D01*
X118518756Y-93842359D01*
X118475098Y-94278914D01*
X118467338Y-94827406D01*
X118462500Y-95169413D01*
X118465720Y-95642211D01*
G36*
X120392192Y-94072172D02*
G01*
X120601713Y-94306444D01*
X120643530Y-94401621D01*
X120774591Y-95052167D01*
X120806026Y-95906425D01*
X120726480Y-96742662D01*
X120649921Y-97076561D01*
X120500449Y-97347347D01*
X120255861Y-97418333D01*
X120204489Y-97417438D01*
X120008623Y-97360427D01*
X119913494Y-97148652D01*
X119870627Y-96690533D01*
X119879334Y-96076112D01*
X119991215Y-95757939D01*
X120188907Y-95879592D01*
X120236228Y-95954498D01*
X120286225Y-96098280D01*
X120188907Y-96212703D01*
X120101163Y-96340464D01*
X120055297Y-96650929D01*
X120149219Y-96933345D01*
X120150055Y-96934405D01*
X120332352Y-96914954D01*
X120471101Y-96462106D01*
X120526250Y-95706212D01*
X120525626Y-95608139D01*
X120462530Y-94895695D01*
X120315230Y-94625330D01*
X120111132Y-94853347D01*
X119988987Y-95055924D01*
X119901425Y-94962937D01*
X119918641Y-94467171D01*
X119986548Y-94223259D01*
X120166746Y-94049242D01*
X120392192Y-94072172D01*
G37*
X120392192Y-94072172D02*
X120601713Y-94306444D01*
X120643530Y-94401621D01*
X120774591Y-95052167D01*
X120806026Y-95906425D01*
X120726480Y-96742662D01*
X120649921Y-97076561D01*
X120500449Y-97347347D01*
X120255861Y-97418333D01*
X120204489Y-97417438D01*
X120008623Y-97360427D01*
X119913494Y-97148652D01*
X119870627Y-96690533D01*
X119879334Y-96076112D01*
X119991215Y-95757939D01*
X120188907Y-95879592D01*
X120236228Y-95954498D01*
X120286225Y-96098280D01*
X120188907Y-96212703D01*
X120101163Y-96340464D01*
X120055297Y-96650929D01*
X120149219Y-96933345D01*
X120150055Y-96934405D01*
X120332352Y-96914954D01*
X120471101Y-96462106D01*
X120526250Y-95706212D01*
X120525626Y-95608139D01*
X120462530Y-94895695D01*
X120315230Y-94625330D01*
X120111132Y-94853347D01*
X119988987Y-95055924D01*
X119901425Y-94962937D01*
X119918641Y-94467171D01*
X119986548Y-94223259D01*
X120166746Y-94049242D01*
X120392192Y-94072172D01*
G36*
X115399293Y-96177020D02*
G01*
X115520038Y-96754474D01*
X115600751Y-96966777D01*
X115692861Y-96928024D01*
X115812208Y-96776140D01*
X115873034Y-96419398D01*
X115881230Y-96036888D01*
X115821995Y-95414432D01*
X115798269Y-95268204D01*
X115787014Y-95066613D01*
X116015899Y-95066613D01*
X116029890Y-95245067D01*
X116109669Y-95608495D01*
X116198180Y-95597847D01*
X116240000Y-95184074D01*
X116218165Y-94833511D01*
X116115118Y-94596111D01*
X116050092Y-94663823D01*
X116015899Y-95066613D01*
X115787014Y-95066613D01*
X115773726Y-94828592D01*
X115878140Y-94437811D01*
X116052612Y-94165066D01*
X116274911Y-94043880D01*
X116478188Y-94089739D01*
X116597188Y-94313888D01*
X116609591Y-94423211D01*
X116562185Y-94596111D01*
X116510817Y-94781002D01*
X116489512Y-95184074D01*
X116482147Y-95323435D01*
X116484612Y-96010625D01*
X116516811Y-96625053D01*
X116577344Y-96949200D01*
X116598128Y-97048719D01*
X116497969Y-97113830D01*
X116340760Y-97108719D01*
X116233147Y-96975162D01*
X116224175Y-96642222D01*
X116225913Y-96614367D01*
X116220781Y-96322001D01*
X116138823Y-96443969D01*
X115969404Y-96995000D01*
X115801409Y-97444871D01*
X115499886Y-97700555D01*
X115355419Y-97674936D01*
X115255777Y-97499767D01*
X115238309Y-97065555D01*
X115239136Y-96971933D01*
X115199094Y-96543006D01*
X115049375Y-96430555D01*
X114919939Y-96513411D01*
X114850938Y-96853888D01*
X114850911Y-96863434D01*
X114799249Y-97201036D01*
X114703065Y-97263047D01*
X114642727Y-96995000D01*
X114642260Y-96891989D01*
X114677774Y-96324883D01*
X114732331Y-95800351D01*
X115008193Y-95800351D01*
X115051867Y-96007222D01*
X115087211Y-95959531D01*
X115128750Y-95583888D01*
X115125303Y-95391013D01*
X115097555Y-95160555D01*
X115077011Y-95212550D01*
X115020671Y-95583888D01*
X115008193Y-95800351D01*
X114732331Y-95800351D01*
X114754522Y-95586995D01*
X114850047Y-94855355D01*
X114941889Y-94306997D01*
X115007589Y-94118950D01*
X115059279Y-94277271D01*
X115171862Y-94822283D01*
X115299866Y-95583888D01*
X115303095Y-95603104D01*
X115399293Y-96177020D01*
G37*
X115399293Y-96177020D02*
X115520038Y-96754474D01*
X115600751Y-96966777D01*
X115692861Y-96928024D01*
X115812208Y-96776140D01*
X115873034Y-96419398D01*
X115881230Y-96036888D01*
X115821995Y-95414432D01*
X115798269Y-95268204D01*
X115787014Y-95066613D01*
X116015899Y-95066613D01*
X116029890Y-95245067D01*
X116109669Y-95608495D01*
X116198180Y-95597847D01*
X116240000Y-95184074D01*
X116218165Y-94833511D01*
X116115118Y-94596111D01*
X116050092Y-94663823D01*
X116015899Y-95066613D01*
X115787014Y-95066613D01*
X115773726Y-94828592D01*
X115878140Y-94437811D01*
X116052612Y-94165066D01*
X116274911Y-94043880D01*
X116478188Y-94089739D01*
X116597188Y-94313888D01*
X116609591Y-94423211D01*
X116562185Y-94596111D01*
X116510817Y-94781002D01*
X116489512Y-95184074D01*
X116482147Y-95323435D01*
X116484612Y-96010625D01*
X116516811Y-96625053D01*
X116577344Y-96949200D01*
X116598128Y-97048719D01*
X116497969Y-97113830D01*
X116340760Y-97108719D01*
X116233147Y-96975162D01*
X116224175Y-96642222D01*
X116225913Y-96614367D01*
X116220781Y-96322001D01*
X116138823Y-96443969D01*
X115969404Y-96995000D01*
X115801409Y-97444871D01*
X115499886Y-97700555D01*
X115355419Y-97674936D01*
X115255777Y-97499767D01*
X115238309Y-97065555D01*
X115239136Y-96971933D01*
X115199094Y-96543006D01*
X115049375Y-96430555D01*
X114919939Y-96513411D01*
X114850938Y-96853888D01*
X114850911Y-96863434D01*
X114799249Y-97201036D01*
X114703065Y-97263047D01*
X114642727Y-96995000D01*
X114642260Y-96891989D01*
X114677774Y-96324883D01*
X114732331Y-95800351D01*
X115008193Y-95800351D01*
X115051867Y-96007222D01*
X115087211Y-95959531D01*
X115128750Y-95583888D01*
X115125303Y-95391013D01*
X115097555Y-95160555D01*
X115077011Y-95212550D01*
X115020671Y-95583888D01*
X115008193Y-95800351D01*
X114732331Y-95800351D01*
X114754522Y-95586995D01*
X114850047Y-94855355D01*
X114941889Y-94306997D01*
X115007589Y-94118950D01*
X115059279Y-94277271D01*
X115171862Y-94822283D01*
X115299866Y-95583888D01*
X115303095Y-95603104D01*
X115399293Y-96177020D01*
G36*
X119512686Y-95428952D02*
G01*
X119499541Y-96185615D01*
X119519119Y-96718483D01*
X119583495Y-96893937D01*
X119601337Y-96913133D01*
X119544886Y-97005699D01*
X119375313Y-97136111D01*
X119302998Y-97182970D01*
X119122978Y-97308574D01*
X119044461Y-97378284D01*
X119036825Y-97395994D01*
X118939820Y-97325450D01*
X118831374Y-97003880D01*
X118780000Y-96626138D01*
X118797903Y-96343585D01*
X118875250Y-96515222D01*
X118905459Y-96609448D01*
X119058814Y-96835345D01*
X119196509Y-96758333D01*
X119256250Y-96397639D01*
X119227566Y-96107812D01*
X119097500Y-96088995D01*
X118997093Y-96117011D01*
X118938750Y-95839689D01*
X118968776Y-95608103D01*
X119097500Y-95442777D01*
X119190076Y-95364205D01*
X119256250Y-95019444D01*
X119252040Y-94909347D01*
X119166858Y-94638615D01*
X119018273Y-94648089D01*
X118867546Y-94948888D01*
X118850733Y-95005055D01*
X118788220Y-95113048D01*
X118792854Y-94737222D01*
X118832210Y-94411555D01*
X118950634Y-94193447D01*
X119186155Y-94088396D01*
X119551194Y-94004015D01*
X119512686Y-95428952D01*
G37*
X119512686Y-95428952D02*
X119499541Y-96185615D01*
X119519119Y-96718483D01*
X119583495Y-96893937D01*
X119601337Y-96913133D01*
X119544886Y-97005699D01*
X119375313Y-97136111D01*
X119302998Y-97182970D01*
X119122978Y-97308574D01*
X119044461Y-97378284D01*
X119036825Y-97395994D01*
X118939820Y-97325450D01*
X118831374Y-97003880D01*
X118780000Y-96626138D01*
X118797903Y-96343585D01*
X118875250Y-96515222D01*
X118905459Y-96609448D01*
X119058814Y-96835345D01*
X119196509Y-96758333D01*
X119256250Y-96397639D01*
X119227566Y-96107812D01*
X119097500Y-96088995D01*
X118997093Y-96117011D01*
X118938750Y-95839689D01*
X118968776Y-95608103D01*
X119097500Y-95442777D01*
X119190076Y-95364205D01*
X119256250Y-95019444D01*
X119252040Y-94909347D01*
X119166858Y-94638615D01*
X119018273Y-94648089D01*
X118867546Y-94948888D01*
X118850733Y-95005055D01*
X118788220Y-95113048D01*
X118792854Y-94737222D01*
X118832210Y-94411555D01*
X118950634Y-94193447D01*
X119186155Y-94088396D01*
X119551194Y-94004015D01*
X119512686Y-95428952D01*
G36*
X111413591Y-96629744D02*
G01*
X111477500Y-97018518D01*
X111464211Y-97230827D01*
X111383243Y-97353657D01*
X111278761Y-97074679D01*
X111264900Y-96736178D01*
X111351823Y-96571666D01*
X111413591Y-96629744D01*
G37*
X111413591Y-96629744D02*
X111477500Y-97018518D01*
X111464211Y-97230827D01*
X111383243Y-97353657D01*
X111278761Y-97074679D01*
X111264900Y-96736178D01*
X111351823Y-96571666D01*
X111413591Y-96629744D01*
G36*
X113391096Y-96878749D02*
G01*
X113413529Y-96937034D01*
X113403471Y-97083055D01*
X113243307Y-97131789D01*
X113198237Y-97139888D01*
X112943660Y-97336742D01*
X112687682Y-97713264D01*
X112386174Y-98101282D01*
X112059610Y-98058197D01*
X111776871Y-97501108D01*
X111748565Y-97401972D01*
X111656591Y-96721358D01*
X111707814Y-96042020D01*
X111894219Y-95500577D01*
X112024340Y-95220894D01*
X112105414Y-94887320D01*
X112081306Y-94691308D01*
X111944359Y-94747819D01*
X111824650Y-94808957D01*
X111811574Y-94555171D01*
X111857904Y-94329668D01*
X112012717Y-94113797D01*
X112198578Y-94136212D01*
X112341588Y-94416279D01*
X112360810Y-94499945D01*
X112397776Y-94739426D01*
X112372270Y-94984985D01*
X112262860Y-95347848D01*
X112048112Y-95939237D01*
X111932815Y-96368410D01*
X111917961Y-96929351D01*
X111924077Y-96979145D01*
X112057582Y-97425337D01*
X112264472Y-97662305D01*
X112469511Y-97598738D01*
X112534039Y-97401663D01*
X112583574Y-96862772D01*
X112571286Y-96342361D01*
X112845066Y-96342361D01*
X112923528Y-96713853D01*
X113018732Y-96763135D01*
X113065000Y-96454074D01*
X113048666Y-96234454D01*
X112939323Y-96007222D01*
X112879612Y-96054472D01*
X112845066Y-96342361D01*
X112571286Y-96342361D01*
X112569838Y-96281043D01*
X112489532Y-95931312D01*
X112475440Y-95883350D01*
X112547153Y-95747888D01*
X112727657Y-95600765D01*
X112781516Y-95564114D01*
X112989914Y-95314195D01*
X113065000Y-94994637D01*
X113060348Y-94884683D01*
X112973770Y-94632885D01*
X112825020Y-94651846D01*
X112676296Y-94948888D01*
X112659483Y-95005055D01*
X112596970Y-95113048D01*
X112601604Y-94737222D01*
X112641687Y-94408683D01*
X112760702Y-94192583D01*
X112996880Y-94088109D01*
X113363895Y-94003441D01*
X113322262Y-95316736D01*
X113311757Y-95730807D01*
X113321465Y-96454074D01*
X113322042Y-96497092D01*
X113391096Y-96878749D01*
G37*
X113391096Y-96878749D02*
X113413529Y-96937034D01*
X113403471Y-97083055D01*
X113243307Y-97131789D01*
X113198237Y-97139888D01*
X112943660Y-97336742D01*
X112687682Y-97713264D01*
X112386174Y-98101282D01*
X112059610Y-98058197D01*
X111776871Y-97501108D01*
X111748565Y-97401972D01*
X111656591Y-96721358D01*
X111707814Y-96042020D01*
X111894219Y-95500577D01*
X112024340Y-95220894D01*
X112105414Y-94887320D01*
X112081306Y-94691308D01*
X111944359Y-94747819D01*
X111824650Y-94808957D01*
X111811574Y-94555171D01*
X111857904Y-94329668D01*
X112012717Y-94113797D01*
X112198578Y-94136212D01*
X112341588Y-94416279D01*
X112360810Y-94499945D01*
X112397776Y-94739426D01*
X112372270Y-94984985D01*
X112262860Y-95347848D01*
X112048112Y-95939237D01*
X111932815Y-96368410D01*
X111917961Y-96929351D01*
X111924077Y-96979145D01*
X112057582Y-97425337D01*
X112264472Y-97662305D01*
X112469511Y-97598738D01*
X112534039Y-97401663D01*
X112583574Y-96862772D01*
X112571286Y-96342361D01*
X112845066Y-96342361D01*
X112923528Y-96713853D01*
X113018732Y-96763135D01*
X113065000Y-96454074D01*
X113048666Y-96234454D01*
X112939323Y-96007222D01*
X112879612Y-96054472D01*
X112845066Y-96342361D01*
X112571286Y-96342361D01*
X112569838Y-96281043D01*
X112489532Y-95931312D01*
X112475440Y-95883350D01*
X112547153Y-95747888D01*
X112727657Y-95600765D01*
X112781516Y-95564114D01*
X112989914Y-95314195D01*
X113065000Y-94994637D01*
X113060348Y-94884683D01*
X112973770Y-94632885D01*
X112825020Y-94651846D01*
X112676296Y-94948888D01*
X112659483Y-95005055D01*
X112596970Y-95113048D01*
X112601604Y-94737222D01*
X112641687Y-94408683D01*
X112760702Y-94192583D01*
X112996880Y-94088109D01*
X113363895Y-94003441D01*
X113322262Y-95316736D01*
X113311757Y-95730807D01*
X113321465Y-96454074D01*
X113322042Y-96497092D01*
X113391096Y-96878749D01*
G36*
X121875687Y-96854299D02*
G01*
X121897556Y-97007576D01*
X121910068Y-97282248D01*
X121827577Y-97395930D01*
X121618267Y-97418333D01*
X121508769Y-97404327D01*
X121192755Y-97143394D01*
X120992869Y-96578546D01*
X120923125Y-95743553D01*
X120923147Y-95725000D01*
X121280313Y-95725000D01*
X121281204Y-95847434D01*
X121325797Y-96504887D01*
X121412408Y-96829194D01*
X121505876Y-96758947D01*
X121571037Y-96232736D01*
X121586607Y-95385640D01*
X121532353Y-94800795D01*
X121412527Y-94654420D01*
X121404788Y-94660412D01*
X121309726Y-94969669D01*
X121280313Y-95725000D01*
X120923147Y-95725000D01*
X120923154Y-95719127D01*
X120973716Y-94928542D01*
X121135064Y-94419662D01*
X121428513Y-94124195D01*
X121551382Y-94070218D01*
X121779527Y-94093761D01*
X121905314Y-94301883D01*
X121902510Y-94664673D01*
X121857755Y-94993854D01*
X121840754Y-95385640D01*
X121815901Y-95958377D01*
X121875687Y-96854299D01*
G37*
X121875687Y-96854299D02*
X121897556Y-97007576D01*
X121910068Y-97282248D01*
X121827577Y-97395930D01*
X121618267Y-97418333D01*
X121508769Y-97404327D01*
X121192755Y-97143394D01*
X120992869Y-96578546D01*
X120923125Y-95743553D01*
X120923147Y-95725000D01*
X121280313Y-95725000D01*
X121281204Y-95847434D01*
X121325797Y-96504887D01*
X121412408Y-96829194D01*
X121505876Y-96758947D01*
X121571037Y-96232736D01*
X121586607Y-95385640D01*
X121532353Y-94800795D01*
X121412527Y-94654420D01*
X121404788Y-94660412D01*
X121309726Y-94969669D01*
X121280313Y-95725000D01*
X120923147Y-95725000D01*
X120923154Y-95719127D01*
X120973716Y-94928542D01*
X121135064Y-94419662D01*
X121428513Y-94124195D01*
X121551382Y-94070218D01*
X121779527Y-94093761D01*
X121905314Y-94301883D01*
X121902510Y-94664673D01*
X121857755Y-94993854D01*
X121840754Y-95385640D01*
X121815901Y-95958377D01*
X121875687Y-96854299D01*
G36*
X114216641Y-94038159D02*
G01*
X114395782Y-94101769D01*
X114475556Y-94274491D01*
X114493750Y-94606040D01*
X114492427Y-94769142D01*
X114455379Y-95031251D01*
X114335000Y-94878333D01*
X114308247Y-94828754D01*
X114220188Y-94742702D01*
X114183553Y-94993390D01*
X114176250Y-95694376D01*
X114178755Y-96031613D01*
X114217795Y-96674286D01*
X114315157Y-96941568D01*
X114341052Y-96987007D01*
X114277124Y-97051333D01*
X114096875Y-97081092D01*
X113983299Y-97076371D01*
X113848290Y-97030039D01*
X113838907Y-96949200D01*
X113857608Y-96903764D01*
X113915558Y-96434315D01*
X113938125Y-95645037D01*
X113932477Y-95050444D01*
X113903830Y-94723830D01*
X113842875Y-94821888D01*
X113757054Y-95070591D01*
X113656163Y-95087455D01*
X113620625Y-94596111D01*
X113625282Y-94398088D01*
X113673471Y-94162092D01*
X113804899Y-94056166D01*
X114057188Y-94031666D01*
X114216641Y-94038159D01*
G37*
X114216641Y-94038159D02*
X114395782Y-94101769D01*
X114475556Y-94274491D01*
X114493750Y-94606040D01*
X114492427Y-94769142D01*
X114455379Y-95031251D01*
X114335000Y-94878333D01*
X114308247Y-94828754D01*
X114220188Y-94742702D01*
X114183553Y-94993390D01*
X114176250Y-95694376D01*
X114178755Y-96031613D01*
X114217795Y-96674286D01*
X114315157Y-96941568D01*
X114341052Y-96987007D01*
X114277124Y-97051333D01*
X114096875Y-97081092D01*
X113983299Y-97076371D01*
X113848290Y-97030039D01*
X113838907Y-96949200D01*
X113857608Y-96903764D01*
X113915558Y-96434315D01*
X113938125Y-95645037D01*
X113932477Y-95050444D01*
X113903830Y-94723830D01*
X113842875Y-94821888D01*
X113757054Y-95070591D01*
X113656163Y-95087455D01*
X113620625Y-94596111D01*
X113625282Y-94398088D01*
X113673471Y-94162092D01*
X113804899Y-94056166D01*
X114057188Y-94031666D01*
X114216641Y-94038159D01*
G36*
X110643862Y-94059933D02*
G01*
X110860133Y-94220350D01*
X111014844Y-94498740D01*
X111113135Y-95025626D01*
X111158812Y-95827400D01*
X111128318Y-96603706D01*
X111021094Y-97120760D01*
X111014297Y-97134477D01*
X110835109Y-97312146D01*
X110605036Y-97346450D01*
X110547533Y-97327730D01*
X110369057Y-97136428D01*
X110298154Y-96712777D01*
X110284469Y-96388403D01*
X110312970Y-96317925D01*
X110424921Y-96649026D01*
X110510105Y-96861235D01*
X110687364Y-96956425D01*
X110829279Y-96636953D01*
X110904628Y-96004452D01*
X110882188Y-95160555D01*
X110832282Y-94883089D01*
X110686797Y-94621107D01*
X110525011Y-94632133D01*
X110418595Y-94948888D01*
X110374513Y-95138349D01*
X110298156Y-94891808D01*
X110262680Y-94650203D01*
X110257110Y-94256808D01*
X110280860Y-94174186D01*
X110429586Y-94037781D01*
X110643862Y-94059933D01*
G37*
X110643862Y-94059933D02*
X110860133Y-94220350D01*
X111014844Y-94498740D01*
X111113135Y-95025626D01*
X111158812Y-95827400D01*
X111128318Y-96603706D01*
X111021094Y-97120760D01*
X111014297Y-97134477D01*
X110835109Y-97312146D01*
X110605036Y-97346450D01*
X110547533Y-97327730D01*
X110369057Y-97136428D01*
X110298154Y-96712777D01*
X110284469Y-96388403D01*
X110312970Y-96317925D01*
X110424921Y-96649026D01*
X110510105Y-96861235D01*
X110687364Y-96956425D01*
X110829279Y-96636953D01*
X110904628Y-96004452D01*
X110882188Y-95160555D01*
X110832282Y-94883089D01*
X110686797Y-94621107D01*
X110525011Y-94632133D01*
X110418595Y-94948888D01*
X110374513Y-95138349D01*
X110298156Y-94891808D01*
X110262680Y-94650203D01*
X110257110Y-94256808D01*
X110280860Y-94174186D01*
X110429586Y-94037781D01*
X110643862Y-94059933D01*
G36*
X109949942Y-97065555D02*
G01*
X109925096Y-97162829D01*
X109752651Y-97429981D01*
X109552443Y-97275631D01*
X109365241Y-96762842D01*
X109231813Y-95954679D01*
X109235589Y-95701481D01*
X109532813Y-95701481D01*
X109549272Y-96220281D01*
X109613266Y-96702110D01*
X109698873Y-96817362D01*
X109777173Y-96474549D01*
X109795795Y-96251355D01*
X109802500Y-95556093D01*
X109749265Y-94978421D01*
X109651875Y-94737222D01*
X109645859Y-94737760D01*
X109559952Y-94980268D01*
X109532813Y-95701481D01*
X109235589Y-95701481D01*
X109239321Y-95451212D01*
X109338729Y-94799871D01*
X109491243Y-94258041D01*
X109651875Y-94031666D01*
X109659068Y-94032511D01*
X109809529Y-94263902D01*
X109965005Y-94781567D01*
X110047345Y-95259351D01*
X110057491Y-95556093D01*
X110077942Y-96154237D01*
X109949942Y-97065555D01*
G37*
X109949942Y-97065555D02*
X109925096Y-97162829D01*
X109752651Y-97429981D01*
X109552443Y-97275631D01*
X109365241Y-96762842D01*
X109231813Y-95954679D01*
X109235589Y-95701481D01*
X109532813Y-95701481D01*
X109549272Y-96220281D01*
X109613266Y-96702110D01*
X109698873Y-96817362D01*
X109777173Y-96474549D01*
X109795795Y-96251355D01*
X109802500Y-95556093D01*
X109749265Y-94978421D01*
X109651875Y-94737222D01*
X109645859Y-94737760D01*
X109559952Y-94980268D01*
X109532813Y-95701481D01*
X109235589Y-95701481D01*
X109239321Y-95451212D01*
X109338729Y-94799871D01*
X109491243Y-94258041D01*
X109651875Y-94031666D01*
X109659068Y-94032511D01*
X109809529Y-94263902D01*
X109965005Y-94781567D01*
X110047345Y-95259351D01*
X110057491Y-95556093D01*
X110077942Y-96154237D01*
X109949942Y-97065555D01*
G36*
X117089146Y-94034413D02*
G01*
X117201844Y-94117912D01*
X117234180Y-94439009D01*
X117214286Y-95157855D01*
X117208992Y-96074049D01*
X117271245Y-96710077D01*
X117312197Y-96914838D01*
X117292826Y-97094434D01*
X117140591Y-97136111D01*
X117079356Y-97133602D01*
X116966179Y-97049375D01*
X116929430Y-96725531D01*
X116940914Y-96001912D01*
X116944269Y-95840472D01*
X116931254Y-95005183D01*
X116873761Y-94449690D01*
X116833659Y-94243543D01*
X116858827Y-94072198D01*
X117016478Y-94031666D01*
X117089146Y-94034413D01*
G37*
X117089146Y-94034413D02*
X117201844Y-94117912D01*
X117234180Y-94439009D01*
X117214286Y-95157855D01*
X117208992Y-96074049D01*
X117271245Y-96710077D01*
X117312197Y-96914838D01*
X117292826Y-97094434D01*
X117140591Y-97136111D01*
X117079356Y-97133602D01*
X116966179Y-97049375D01*
X116929430Y-96725531D01*
X116940914Y-96001912D01*
X116944269Y-95840472D01*
X116931254Y-95005183D01*
X116873761Y-94449690D01*
X116833659Y-94243543D01*
X116858827Y-94072198D01*
X117016478Y-94031666D01*
X117089146Y-94034413D01*
G36*
X108949242Y-94131956D02*
G01*
X108974292Y-94477392D01*
X108958735Y-95250560D01*
X108952927Y-95466335D01*
X108956714Y-96283005D01*
X109007718Y-96692655D01*
X109038131Y-96775619D01*
X109096250Y-97150996D01*
X109055857Y-97295691D01*
X108917657Y-97317883D01*
X108809650Y-97199375D01*
X108759856Y-96966876D01*
X108777136Y-96762417D01*
X108826635Y-96197620D01*
X108851271Y-95821835D01*
X108834145Y-95536134D01*
X108770497Y-95680356D01*
X108691969Y-96243679D01*
X108656569Y-96578130D01*
X108574496Y-97054088D01*
X108493537Y-96979384D01*
X108398604Y-96360000D01*
X108305311Y-95583888D01*
X108341609Y-96501111D01*
X108354647Y-97007806D01*
X108319827Y-97343223D01*
X108201297Y-97418390D01*
X108125707Y-97396992D01*
X108059188Y-97224124D01*
X108030713Y-96760781D01*
X108024688Y-95870243D01*
X108035711Y-95139952D01*
X108092291Y-94375966D01*
X108185563Y-94108312D01*
X108302685Y-94359680D01*
X108430811Y-95152763D01*
X108515042Y-95850527D01*
X108627657Y-95015103D01*
X108631212Y-94989147D01*
X108747566Y-94389716D01*
X108869278Y-94091345D01*
X108873868Y-94088326D01*
X108949242Y-94131956D01*
G37*
X108949242Y-94131956D02*
X108974292Y-94477392D01*
X108958735Y-95250560D01*
X108952927Y-95466335D01*
X108956714Y-96283005D01*
X109007718Y-96692655D01*
X109038131Y-96775619D01*
X109096250Y-97150996D01*
X109055857Y-97295691D01*
X108917657Y-97317883D01*
X108809650Y-97199375D01*
X108759856Y-96966876D01*
X108777136Y-96762417D01*
X108826635Y-96197620D01*
X108851271Y-95821835D01*
X108834145Y-95536134D01*
X108770497Y-95680356D01*
X108691969Y-96243679D01*
X108656569Y-96578130D01*
X108574496Y-97054088D01*
X108493537Y-96979384D01*
X108398604Y-96360000D01*
X108305311Y-95583888D01*
X108341609Y-96501111D01*
X108354647Y-97007806D01*
X108319827Y-97343223D01*
X108201297Y-97418390D01*
X108125707Y-97396992D01*
X108059188Y-97224124D01*
X108030713Y-96760781D01*
X108024688Y-95870243D01*
X108035711Y-95139952D01*
X108092291Y-94375966D01*
X108185563Y-94108312D01*
X108302685Y-94359680D01*
X108430811Y-95152763D01*
X108515042Y-95850527D01*
X108627657Y-95015103D01*
X108631212Y-94989147D01*
X108747566Y-94389716D01*
X108869278Y-94091345D01*
X108873868Y-94088326D01*
X108949242Y-94131956D01*
G36*
X123027077Y-96600283D02*
G01*
X123066250Y-97170577D01*
X123063998Y-97259345D01*
X123008099Y-97431689D01*
X122918570Y-97269198D01*
X122851124Y-96853888D01*
X122800206Y-96526754D01*
X122665467Y-96289444D01*
X122572204Y-96395364D01*
X122470938Y-96853888D01*
X122427984Y-97185695D01*
X122351211Y-97418333D01*
X122315141Y-97405621D01*
X122244194Y-97140095D01*
X122264783Y-96499109D01*
X122364035Y-95567232D01*
X122590000Y-95567232D01*
X122591553Y-95709723D01*
X122629048Y-95994748D01*
X122705673Y-95744501D01*
X122716459Y-95642739D01*
X122670670Y-95304511D01*
X122629053Y-95276557D01*
X122590000Y-95567232D01*
X122364035Y-95567232D01*
X122377458Y-95441204D01*
X122477047Y-94670483D01*
X122551072Y-94260600D01*
X122615413Y-94214730D01*
X122696528Y-94450747D01*
X122696710Y-94451397D01*
X122810152Y-95004150D01*
X122907201Y-95642739D01*
X122930992Y-95799293D01*
X123027077Y-96600283D01*
G37*
X123027077Y-96600283D02*
X123066250Y-97170577D01*
X123063998Y-97259345D01*
X123008099Y-97431689D01*
X122918570Y-97269198D01*
X122851124Y-96853888D01*
X122800206Y-96526754D01*
X122665467Y-96289444D01*
X122572204Y-96395364D01*
X122470938Y-96853888D01*
X122427984Y-97185695D01*
X122351211Y-97418333D01*
X122315141Y-97405621D01*
X122244194Y-97140095D01*
X122264783Y-96499109D01*
X122364035Y-95567232D01*
X122590000Y-95567232D01*
X122591553Y-95709723D01*
X122629048Y-95994748D01*
X122705673Y-95744501D01*
X122716459Y-95642739D01*
X122670670Y-95304511D01*
X122629053Y-95276557D01*
X122590000Y-95567232D01*
X122364035Y-95567232D01*
X122377458Y-95441204D01*
X122477047Y-94670483D01*
X122551072Y-94260600D01*
X122615413Y-94214730D01*
X122696528Y-94450747D01*
X122696710Y-94451397D01*
X122810152Y-95004150D01*
X122907201Y-95642739D01*
X122930992Y-95799293D01*
X123027077Y-96600283D01*
D11*
%TO.C,D2*%
X139776200Y-105283000D02*
X139065000Y-105283000D01*
X141300200Y-104698800D02*
X141300200Y-105867200D01*
X141300200Y-105308400D02*
X141909800Y-105308400D01*
X139801600Y-104749600D02*
X141274800Y-105283000D01*
X139115800Y-104521000D02*
X139115800Y-105029000D01*
X136169400Y-106183000D02*
X136025600Y-106183000D01*
X139369800Y-104775000D02*
X138887200Y-104775000D01*
X142113000Y-104875000D02*
X141630400Y-104875000D01*
X139801600Y-105816400D02*
X139801600Y-104749600D01*
X141300200Y-105308400D02*
X139801600Y-105816400D01*
X136044258Y-104405235D02*
G75*
G03*
X133925600Y-104383000I-1068658J-877765D01*
G01*
X133906942Y-106160765D02*
G75*
G03*
X136025600Y-106183000I1068658J877764D01*
G01*
%TO.C,G\u002A\u002A\u002A*%
G36*
X117736240Y-99414745D02*
G01*
X117644127Y-99542896D01*
X117600429Y-99603692D01*
X117553997Y-99668291D01*
X117497870Y-99744142D01*
X117385708Y-99895720D01*
X117358802Y-99932082D01*
X117327497Y-99973205D01*
X117195135Y-100147085D01*
X117156493Y-100197848D01*
X117040128Y-100346154D01*
X117009306Y-100385437D01*
X116952905Y-100457320D01*
X116916220Y-100502462D01*
X116805074Y-100639231D01*
X116753877Y-100702231D01*
X116721574Y-100740522D01*
X116688403Y-100779843D01*
X116657909Y-100814736D01*
X116550073Y-100938133D01*
X116392778Y-101112646D01*
X116225406Y-101294077D01*
X116056849Y-101473124D01*
X115895993Y-101640480D01*
X115751730Y-101786843D01*
X115632948Y-101902907D01*
X115548536Y-101979368D01*
X115507383Y-102006923D01*
X115499411Y-102004246D01*
X115444649Y-101962223D01*
X115357258Y-101879790D01*
X115252070Y-101770670D01*
X115240415Y-101758201D01*
X115108077Y-101628775D01*
X114969761Y-101510912D01*
X114853594Y-101428747D01*
X114778683Y-101387317D01*
X114694379Y-101353055D01*
X114598452Y-101333664D01*
X114468739Y-101325040D01*
X114283077Y-101323077D01*
X114111043Y-101324597D01*
X113976975Y-101332515D01*
X113876041Y-101351400D01*
X113784765Y-101385810D01*
X113679675Y-101440308D01*
X113583294Y-101499780D01*
X113423504Y-101617289D01*
X113327907Y-101701360D01*
X113285472Y-101738679D01*
X113250863Y-101777789D01*
X113138119Y-101905197D01*
X112941168Y-102212052D01*
X112823574Y-102495385D01*
X112800607Y-102550724D01*
X112720618Y-102906357D01*
X112705380Y-103264093D01*
X112728666Y-103413692D01*
X112759077Y-103609077D01*
X112776176Y-103673236D01*
X112806215Y-103808091D01*
X112804580Y-103900039D01*
X112761792Y-103968702D01*
X112668374Y-104033699D01*
X112514846Y-104114651D01*
X112319029Y-104208658D01*
X112181404Y-104259921D01*
X112101229Y-104268032D01*
X112075231Y-104233880D01*
X112060208Y-104205376D01*
X112000822Y-104128650D01*
X111906784Y-104019684D01*
X111789361Y-103891956D01*
X111706328Y-103802810D01*
X111582857Y-103665545D01*
X111481480Y-103547297D01*
X111418363Y-103466602D01*
X111388489Y-103413692D01*
X111567231Y-103413692D01*
X111568366Y-103423033D01*
X111606308Y-103452769D01*
X111615648Y-103451634D01*
X111645384Y-103413692D01*
X111644249Y-103404352D01*
X111606308Y-103374616D01*
X111596967Y-103375751D01*
X111567231Y-103413692D01*
X111388489Y-103413692D01*
X111351315Y-103347852D01*
X111270473Y-103103632D01*
X111228132Y-102808918D01*
X111226729Y-102495385D01*
X111371846Y-102495385D01*
X111391384Y-102514923D01*
X111410923Y-102495385D01*
X111391384Y-102475846D01*
X111371846Y-102495385D01*
X111226729Y-102495385D01*
X111226642Y-102475846D01*
X111232182Y-102395005D01*
X111245475Y-102266164D01*
X111495989Y-102266164D01*
X111528154Y-102280462D01*
X111548841Y-102277642D01*
X111554205Y-102254410D01*
X111548478Y-102249734D01*
X111502102Y-102254410D01*
X111495989Y-102266164D01*
X111245475Y-102266164D01*
X111252425Y-102198802D01*
X111645384Y-102198802D01*
X111651285Y-102245783D01*
X111660287Y-102254410D01*
X111691062Y-102283907D01*
X111762915Y-102260666D01*
X111860473Y-102179066D01*
X111977368Y-102042112D01*
X111985326Y-102031602D01*
X112075656Y-101903199D01*
X112123523Y-101816812D01*
X112128123Y-101777789D01*
X112088651Y-101791480D01*
X112004300Y-101863234D01*
X111984888Y-101881319D01*
X111908009Y-101943411D01*
X111858169Y-101969146D01*
X111823735Y-101978060D01*
X111743487Y-102035061D01*
X111674619Y-102118806D01*
X111645384Y-102198802D01*
X111252425Y-102198802D01*
X111252705Y-102196089D01*
X111281170Y-101999463D01*
X111314556Y-101820234D01*
X111335444Y-101733385D01*
X111879846Y-101733385D01*
X111881074Y-101757358D01*
X111899199Y-101767506D01*
X111958000Y-101733385D01*
X111965485Y-101728489D01*
X111993482Y-101701360D01*
X111948231Y-101694906D01*
X111912066Y-101700541D01*
X111879846Y-101733385D01*
X111335444Y-101733385D01*
X111349845Y-101673509D01*
X111384017Y-101574395D01*
X111414055Y-101538000D01*
X111437054Y-101516462D01*
X111450000Y-101445558D01*
X111450696Y-101434962D01*
X111473943Y-101346219D01*
X111523513Y-101217404D01*
X111590371Y-101072531D01*
X111636353Y-100983275D01*
X111699697Y-100876539D01*
X111745178Y-100829144D01*
X111779581Y-100832481D01*
X111831359Y-100856000D01*
X111836345Y-100850555D01*
X114149222Y-100850555D01*
X114177399Y-100848477D01*
X114199876Y-100835729D01*
X115658102Y-100835729D01*
X115659789Y-100876109D01*
X115722528Y-100924524D01*
X115780263Y-100958746D01*
X115822177Y-100956905D01*
X115856559Y-100897670D01*
X115861918Y-100885479D01*
X115873927Y-100814736D01*
X115826690Y-100765577D01*
X115821787Y-100762577D01*
X115756027Y-100745390D01*
X115692658Y-100792431D01*
X115658102Y-100835729D01*
X114199876Y-100835729D01*
X114241209Y-100812286D01*
X114285742Y-100772850D01*
X114299701Y-100740522D01*
X114271523Y-100742600D01*
X114207714Y-100778791D01*
X114163181Y-100818228D01*
X114149222Y-100850555D01*
X111836345Y-100850555D01*
X111862522Y-100821971D01*
X111855840Y-100733035D01*
X111855088Y-100729728D01*
X111871849Y-100634083D01*
X111880520Y-100618907D01*
X112318041Y-100618907D01*
X112322718Y-100665282D01*
X112334471Y-100671396D01*
X112348769Y-100639231D01*
X112345949Y-100618544D01*
X112322718Y-100613180D01*
X112318041Y-100618907D01*
X111880520Y-100618907D01*
X111951404Y-100494851D01*
X111991963Y-100442763D01*
X114347506Y-100442763D01*
X114377260Y-100498233D01*
X114426111Y-100545771D01*
X114479346Y-100550192D01*
X114505785Y-100502462D01*
X116608154Y-100502462D01*
X116627692Y-100522000D01*
X116647231Y-100502462D01*
X116627692Y-100482923D01*
X116608154Y-100502462D01*
X114505785Y-100502462D01*
X114518787Y-100478990D01*
X114521033Y-100471545D01*
X114523243Y-100385437D01*
X114477910Y-100351184D01*
X114399682Y-100380856D01*
X114380189Y-100395795D01*
X114347506Y-100442763D01*
X111991963Y-100442763D01*
X112067190Y-100346154D01*
X112114308Y-100346154D01*
X112133846Y-100365692D01*
X112153384Y-100346154D01*
X112133846Y-100326616D01*
X112114308Y-100346154D01*
X112067190Y-100346154D01*
X112092703Y-100313389D01*
X112200181Y-100195087D01*
X113840604Y-100195087D01*
X113872769Y-100209385D01*
X113893456Y-100206565D01*
X113896769Y-100192217D01*
X114700879Y-100192217D01*
X114709186Y-100205454D01*
X114771538Y-100170308D01*
X114799023Y-100147085D01*
X114783614Y-100131829D01*
X114769992Y-100133155D01*
X114712923Y-100170308D01*
X114705762Y-100183333D01*
X114700879Y-100192217D01*
X113896769Y-100192217D01*
X113898820Y-100183333D01*
X113893093Y-100178657D01*
X113846718Y-100183333D01*
X113840604Y-100195087D01*
X112200181Y-100195087D01*
X112294694Y-100091055D01*
X112397326Y-99988336D01*
X116155756Y-99988336D01*
X116172203Y-100029765D01*
X116189368Y-100035927D01*
X116238136Y-100012038D01*
X116250891Y-99973205D01*
X116226787Y-99940966D01*
X116174251Y-99963349D01*
X116155756Y-99988336D01*
X112397326Y-99988336D01*
X112445657Y-99939964D01*
X114896184Y-99939964D01*
X114922653Y-99978821D01*
X114987644Y-99983928D01*
X115064152Y-99950891D01*
X115071813Y-99945178D01*
X115114071Y-99895720D01*
X115090747Y-99848655D01*
X115026470Y-99827416D01*
X114950509Y-99856421D01*
X114899213Y-99924054D01*
X114896184Y-99939964D01*
X112445657Y-99939964D01*
X112556324Y-99829204D01*
X112595078Y-99793373D01*
X116705968Y-99793373D01*
X116723763Y-99837152D01*
X116749602Y-99840983D01*
X116789103Y-99799869D01*
X116801643Y-99744142D01*
X116780742Y-99716938D01*
X116729055Y-99755577D01*
X116705968Y-99793373D01*
X112595078Y-99793373D01*
X112723573Y-99674568D01*
X112812779Y-99603692D01*
X116803538Y-99603692D01*
X116823077Y-99623231D01*
X116842615Y-99603692D01*
X116823077Y-99584154D01*
X116803538Y-99603692D01*
X112812779Y-99603692D01*
X112911145Y-99525539D01*
X113599231Y-99525539D01*
X113600365Y-99541111D01*
X113632623Y-99582937D01*
X113689348Y-99559165D01*
X113699249Y-99542896D01*
X113687029Y-99492779D01*
X113636001Y-99466923D01*
X113619108Y-99473518D01*
X113599231Y-99525539D01*
X112911145Y-99525539D01*
X113033625Y-99428227D01*
X116307732Y-99428227D01*
X116340350Y-99471294D01*
X116400178Y-99497780D01*
X116489155Y-99497495D01*
X116544131Y-99447385D01*
X116556020Y-99394890D01*
X116534367Y-99316566D01*
X116529356Y-99313269D01*
X117096250Y-99313269D01*
X117113429Y-99352815D01*
X117170659Y-99362289D01*
X117240686Y-99334270D01*
X117246072Y-99330259D01*
X117282151Y-99282524D01*
X117253962Y-99220953D01*
X117248929Y-99214253D01*
X117206179Y-99180822D01*
X117162140Y-99205998D01*
X117102924Y-99296752D01*
X117096250Y-99313269D01*
X116529356Y-99313269D01*
X116474001Y-99276847D01*
X116398628Y-99286092D01*
X116331956Y-99354662D01*
X116330535Y-99357333D01*
X116307732Y-99428227D01*
X113033625Y-99428227D01*
X113184634Y-99308248D01*
X113530322Y-99087956D01*
X114114950Y-99087956D01*
X114141068Y-99158660D01*
X114197714Y-99171707D01*
X114280647Y-99112269D01*
X114301544Y-99088559D01*
X114320310Y-99037077D01*
X117467846Y-99037077D01*
X117468294Y-99045920D01*
X117485078Y-99076154D01*
X117491347Y-99074356D01*
X117526461Y-99037077D01*
X117532567Y-99021940D01*
X117509229Y-98998000D01*
X117497887Y-98999502D01*
X117481897Y-99019502D01*
X117467846Y-99037077D01*
X114320310Y-99037077D01*
X114326717Y-99019502D01*
X114287121Y-98980269D01*
X114192429Y-98984835D01*
X114132122Y-99015851D01*
X114114950Y-99087956D01*
X113530322Y-99087956D01*
X113679915Y-98992627D01*
X114194416Y-98736609D01*
X114713138Y-98549096D01*
X114965592Y-98477380D01*
X115185870Y-98420845D01*
X115383845Y-98379506D01*
X115579607Y-98350395D01*
X115793247Y-98330547D01*
X116044858Y-98316996D01*
X116354530Y-98306775D01*
X116390834Y-98305778D01*
X116656879Y-98299309D01*
X116864834Y-98297071D01*
X117032583Y-98300184D01*
X117178009Y-98309771D01*
X117318996Y-98326951D01*
X117473426Y-98352848D01*
X117659182Y-98388581D01*
X117779240Y-98412421D01*
X117969831Y-98451401D01*
X118100509Y-98481238D01*
X118182539Y-98505655D01*
X118227185Y-98528372D01*
X118245712Y-98553113D01*
X118249385Y-98583599D01*
X118248889Y-98590094D01*
X118218957Y-98668384D01*
X118146890Y-98798263D01*
X118038523Y-98971463D01*
X118004872Y-99021940D01*
X117899694Y-99179713D01*
X117828193Y-99282524D01*
X117750048Y-99394890D01*
X117736240Y-99414745D01*
G37*
D12*
X117736240Y-99414745D02*
X117644127Y-99542896D01*
X117600429Y-99603692D01*
X117553997Y-99668291D01*
X117497870Y-99744142D01*
X117385708Y-99895720D01*
X117358802Y-99932082D01*
X117327497Y-99973205D01*
X117195135Y-100147085D01*
X117156493Y-100197848D01*
X117040128Y-100346154D01*
X117009306Y-100385437D01*
X116952905Y-100457320D01*
X116916220Y-100502462D01*
X116805074Y-100639231D01*
X116753877Y-100702231D01*
X116721574Y-100740522D01*
X116688403Y-100779843D01*
X116657909Y-100814736D01*
X116550073Y-100938133D01*
X116392778Y-101112646D01*
X116225406Y-101294077D01*
X116056849Y-101473124D01*
X115895993Y-101640480D01*
X115751730Y-101786843D01*
X115632948Y-101902907D01*
X115548536Y-101979368D01*
X115507383Y-102006923D01*
X115499411Y-102004246D01*
X115444649Y-101962223D01*
X115357258Y-101879790D01*
X115252070Y-101770670D01*
X115240415Y-101758201D01*
X115108077Y-101628775D01*
X114969761Y-101510912D01*
X114853594Y-101428747D01*
X114778683Y-101387317D01*
X114694379Y-101353055D01*
X114598452Y-101333664D01*
X114468739Y-101325040D01*
X114283077Y-101323077D01*
X114111043Y-101324597D01*
X113976975Y-101332515D01*
X113876041Y-101351400D01*
X113784765Y-101385810D01*
X113679675Y-101440308D01*
X113583294Y-101499780D01*
X113423504Y-101617289D01*
X113327907Y-101701360D01*
X113285472Y-101738679D01*
X113250863Y-101777789D01*
X113138119Y-101905197D01*
X112941168Y-102212052D01*
X112823574Y-102495385D01*
X112800607Y-102550724D01*
X112720618Y-102906357D01*
X112705380Y-103264093D01*
X112728666Y-103413692D01*
X112759077Y-103609077D01*
X112776176Y-103673236D01*
X112806215Y-103808091D01*
X112804580Y-103900039D01*
X112761792Y-103968702D01*
X112668374Y-104033699D01*
X112514846Y-104114651D01*
X112319029Y-104208658D01*
X112181404Y-104259921D01*
X112101229Y-104268032D01*
X112075231Y-104233880D01*
X112060208Y-104205376D01*
X112000822Y-104128650D01*
X111906784Y-104019684D01*
X111789361Y-103891956D01*
X111706328Y-103802810D01*
X111582857Y-103665545D01*
X111481480Y-103547297D01*
X111418363Y-103466602D01*
X111388489Y-103413692D01*
X111567231Y-103413692D01*
X111568366Y-103423033D01*
X111606308Y-103452769D01*
X111615648Y-103451634D01*
X111645384Y-103413692D01*
X111644249Y-103404352D01*
X111606308Y-103374616D01*
X111596967Y-103375751D01*
X111567231Y-103413692D01*
X111388489Y-103413692D01*
X111351315Y-103347852D01*
X111270473Y-103103632D01*
X111228132Y-102808918D01*
X111226729Y-102495385D01*
X111371846Y-102495385D01*
X111391384Y-102514923D01*
X111410923Y-102495385D01*
X111391384Y-102475846D01*
X111371846Y-102495385D01*
X111226729Y-102495385D01*
X111226642Y-102475846D01*
X111232182Y-102395005D01*
X111245475Y-102266164D01*
X111495989Y-102266164D01*
X111528154Y-102280462D01*
X111548841Y-102277642D01*
X111554205Y-102254410D01*
X111548478Y-102249734D01*
X111502102Y-102254410D01*
X111495989Y-102266164D01*
X111245475Y-102266164D01*
X111252425Y-102198802D01*
X111645384Y-102198802D01*
X111651285Y-102245783D01*
X111660287Y-102254410D01*
X111691062Y-102283907D01*
X111762915Y-102260666D01*
X111860473Y-102179066D01*
X111977368Y-102042112D01*
X111985326Y-102031602D01*
X112075656Y-101903199D01*
X112123523Y-101816812D01*
X112128123Y-101777789D01*
X112088651Y-101791480D01*
X112004300Y-101863234D01*
X111984888Y-101881319D01*
X111908009Y-101943411D01*
X111858169Y-101969146D01*
X111823735Y-101978060D01*
X111743487Y-102035061D01*
X111674619Y-102118806D01*
X111645384Y-102198802D01*
X111252425Y-102198802D01*
X111252705Y-102196089D01*
X111281170Y-101999463D01*
X111314556Y-101820234D01*
X111335444Y-101733385D01*
X111879846Y-101733385D01*
X111881074Y-101757358D01*
X111899199Y-101767506D01*
X111958000Y-101733385D01*
X111965485Y-101728489D01*
X111993482Y-101701360D01*
X111948231Y-101694906D01*
X111912066Y-101700541D01*
X111879846Y-101733385D01*
X111335444Y-101733385D01*
X111349845Y-101673509D01*
X111384017Y-101574395D01*
X111414055Y-101538000D01*
X111437054Y-101516462D01*
X111450000Y-101445558D01*
X111450696Y-101434962D01*
X111473943Y-101346219D01*
X111523513Y-101217404D01*
X111590371Y-101072531D01*
X111636353Y-100983275D01*
X111699697Y-100876539D01*
X111745178Y-100829144D01*
X111779581Y-100832481D01*
X111831359Y-100856000D01*
X111836345Y-100850555D01*
X114149222Y-100850555D01*
X114177399Y-100848477D01*
X114199876Y-100835729D01*
X115658102Y-100835729D01*
X115659789Y-100876109D01*
X115722528Y-100924524D01*
X115780263Y-100958746D01*
X115822177Y-100956905D01*
X115856559Y-100897670D01*
X115861918Y-100885479D01*
X115873927Y-100814736D01*
X115826690Y-100765577D01*
X115821787Y-100762577D01*
X115756027Y-100745390D01*
X115692658Y-100792431D01*
X115658102Y-100835729D01*
X114199876Y-100835729D01*
X114241209Y-100812286D01*
X114285742Y-100772850D01*
X114299701Y-100740522D01*
X114271523Y-100742600D01*
X114207714Y-100778791D01*
X114163181Y-100818228D01*
X114149222Y-100850555D01*
X111836345Y-100850555D01*
X111862522Y-100821971D01*
X111855840Y-100733035D01*
X111855088Y-100729728D01*
X111871849Y-100634083D01*
X111880520Y-100618907D01*
X112318041Y-100618907D01*
X112322718Y-100665282D01*
X112334471Y-100671396D01*
X112348769Y-100639231D01*
X112345949Y-100618544D01*
X112322718Y-100613180D01*
X112318041Y-100618907D01*
X111880520Y-100618907D01*
X111951404Y-100494851D01*
X111991963Y-100442763D01*
X114347506Y-100442763D01*
X114377260Y-100498233D01*
X114426111Y-100545771D01*
X114479346Y-100550192D01*
X114505785Y-100502462D01*
X116608154Y-100502462D01*
X116627692Y-100522000D01*
X116647231Y-100502462D01*
X116627692Y-100482923D01*
X116608154Y-100502462D01*
X114505785Y-100502462D01*
X114518787Y-100478990D01*
X114521033Y-100471545D01*
X114523243Y-100385437D01*
X114477910Y-100351184D01*
X114399682Y-100380856D01*
X114380189Y-100395795D01*
X114347506Y-100442763D01*
X111991963Y-100442763D01*
X112067190Y-100346154D01*
X112114308Y-100346154D01*
X112133846Y-100365692D01*
X112153384Y-100346154D01*
X112133846Y-100326616D01*
X112114308Y-100346154D01*
X112067190Y-100346154D01*
X112092703Y-100313389D01*
X112200181Y-100195087D01*
X113840604Y-100195087D01*
X113872769Y-100209385D01*
X113893456Y-100206565D01*
X113896769Y-100192217D01*
X114700879Y-100192217D01*
X114709186Y-100205454D01*
X114771538Y-100170308D01*
X114799023Y-100147085D01*
X114783614Y-100131829D01*
X114769992Y-100133155D01*
X114712923Y-100170308D01*
X114705762Y-100183333D01*
X114700879Y-100192217D01*
X113896769Y-100192217D01*
X113898820Y-100183333D01*
X113893093Y-100178657D01*
X113846718Y-100183333D01*
X113840604Y-100195087D01*
X112200181Y-100195087D01*
X112294694Y-100091055D01*
X112397326Y-99988336D01*
X116155756Y-99988336D01*
X116172203Y-100029765D01*
X116189368Y-100035927D01*
X116238136Y-100012038D01*
X116250891Y-99973205D01*
X116226787Y-99940966D01*
X116174251Y-99963349D01*
X116155756Y-99988336D01*
X112397326Y-99988336D01*
X112445657Y-99939964D01*
X114896184Y-99939964D01*
X114922653Y-99978821D01*
X114987644Y-99983928D01*
X115064152Y-99950891D01*
X115071813Y-99945178D01*
X115114071Y-99895720D01*
X115090747Y-99848655D01*
X115026470Y-99827416D01*
X114950509Y-99856421D01*
X114899213Y-99924054D01*
X114896184Y-99939964D01*
X112445657Y-99939964D01*
X112556324Y-99829204D01*
X112595078Y-99793373D01*
X116705968Y-99793373D01*
X116723763Y-99837152D01*
X116749602Y-99840983D01*
X116789103Y-99799869D01*
X116801643Y-99744142D01*
X116780742Y-99716938D01*
X116729055Y-99755577D01*
X116705968Y-99793373D01*
X112595078Y-99793373D01*
X112723573Y-99674568D01*
X112812779Y-99603692D01*
X116803538Y-99603692D01*
X116823077Y-99623231D01*
X116842615Y-99603692D01*
X116823077Y-99584154D01*
X116803538Y-99603692D01*
X112812779Y-99603692D01*
X112911145Y-99525539D01*
X113599231Y-99525539D01*
X113600365Y-99541111D01*
X113632623Y-99582937D01*
X113689348Y-99559165D01*
X113699249Y-99542896D01*
X113687029Y-99492779D01*
X113636001Y-99466923D01*
X113619108Y-99473518D01*
X113599231Y-99525539D01*
X112911145Y-99525539D01*
X113033625Y-99428227D01*
X116307732Y-99428227D01*
X116340350Y-99471294D01*
X116400178Y-99497780D01*
X116489155Y-99497495D01*
X116544131Y-99447385D01*
X116556020Y-99394890D01*
X116534367Y-99316566D01*
X116529356Y-99313269D01*
X117096250Y-99313269D01*
X117113429Y-99352815D01*
X117170659Y-99362289D01*
X117240686Y-99334270D01*
X117246072Y-99330259D01*
X117282151Y-99282524D01*
X117253962Y-99220953D01*
X117248929Y-99214253D01*
X117206179Y-99180822D01*
X117162140Y-99205998D01*
X117102924Y-99296752D01*
X117096250Y-99313269D01*
X116529356Y-99313269D01*
X116474001Y-99276847D01*
X116398628Y-99286092D01*
X116331956Y-99354662D01*
X116330535Y-99357333D01*
X116307732Y-99428227D01*
X113033625Y-99428227D01*
X113184634Y-99308248D01*
X113530322Y-99087956D01*
X114114950Y-99087956D01*
X114141068Y-99158660D01*
X114197714Y-99171707D01*
X114280647Y-99112269D01*
X114301544Y-99088559D01*
X114320310Y-99037077D01*
X117467846Y-99037077D01*
X117468294Y-99045920D01*
X117485078Y-99076154D01*
X117491347Y-99074356D01*
X117526461Y-99037077D01*
X117532567Y-99021940D01*
X117509229Y-98998000D01*
X117497887Y-98999502D01*
X117481897Y-99019502D01*
X117467846Y-99037077D01*
X114320310Y-99037077D01*
X114326717Y-99019502D01*
X114287121Y-98980269D01*
X114192429Y-98984835D01*
X114132122Y-99015851D01*
X114114950Y-99087956D01*
X113530322Y-99087956D01*
X113679915Y-98992627D01*
X114194416Y-98736609D01*
X114713138Y-98549096D01*
X114965592Y-98477380D01*
X115185870Y-98420845D01*
X115383845Y-98379506D01*
X115579607Y-98350395D01*
X115793247Y-98330547D01*
X116044858Y-98316996D01*
X116354530Y-98306775D01*
X116390834Y-98305778D01*
X116656879Y-98299309D01*
X116864834Y-98297071D01*
X117032583Y-98300184D01*
X117178009Y-98309771D01*
X117318996Y-98326951D01*
X117473426Y-98352848D01*
X117659182Y-98388581D01*
X117779240Y-98412421D01*
X117969831Y-98451401D01*
X118100509Y-98481238D01*
X118182539Y-98505655D01*
X118227185Y-98528372D01*
X118245712Y-98553113D01*
X118249385Y-98583599D01*
X118248889Y-98590094D01*
X118218957Y-98668384D01*
X118146890Y-98798263D01*
X118038523Y-98971463D01*
X118004872Y-99021940D01*
X117899694Y-99179713D01*
X117828193Y-99282524D01*
X117750048Y-99394890D01*
X117736240Y-99414745D01*
G36*
X119847909Y-103176776D02*
G01*
X119829743Y-103207400D01*
X119776975Y-103221555D01*
X119675101Y-103223937D01*
X119509615Y-103219244D01*
X119265384Y-103211191D01*
X119265384Y-103423160D01*
X119263317Y-103507765D01*
X119253860Y-103610395D01*
X119239333Y-103661180D01*
X119223106Y-103674771D01*
X119188922Y-103682274D01*
X119136274Y-103662025D01*
X119050735Y-103607303D01*
X118917881Y-103511385D01*
X118895460Y-103494942D01*
X118782353Y-103414023D01*
X118698117Y-103357069D01*
X118659582Y-103335539D01*
X118657910Y-103336016D01*
X118645315Y-103377188D01*
X118640154Y-103464492D01*
X118640141Y-103467550D01*
X118626292Y-103570428D01*
X118594191Y-103639409D01*
X118544750Y-103666846D01*
X118493100Y-103637865D01*
X118457826Y-103547492D01*
X118444769Y-103404897D01*
X118444769Y-103210286D01*
X118185507Y-103224066D01*
X118113707Y-103227218D01*
X117993440Y-103225472D01*
X117923497Y-103208391D01*
X117884927Y-103172737D01*
X117864698Y-103121981D01*
X117866602Y-103117057D01*
X118709519Y-103117057D01*
X118821375Y-103208691D01*
X118930484Y-103295780D01*
X119009337Y-103343949D01*
X119050956Y-103333491D01*
X119067218Y-103260153D01*
X119070000Y-103119684D01*
X119069415Y-103004622D01*
X119059778Y-102918450D01*
X119027549Y-102896029D01*
X118959129Y-102931342D01*
X118840913Y-103018375D01*
X118709519Y-103117057D01*
X117866602Y-103117057D01*
X117893497Y-103047516D01*
X117902623Y-103037665D01*
X117955058Y-103009686D01*
X118044964Y-103001478D01*
X118191964Y-103010617D01*
X118440544Y-103033830D01*
X118452426Y-102803684D01*
X118458083Y-102715724D01*
X118471994Y-102624859D01*
X118497798Y-102583400D01*
X118542461Y-102573539D01*
X118587084Y-102583427D01*
X118620326Y-102633045D01*
X118640154Y-102741788D01*
X118659692Y-102910038D01*
X118904228Y-102727955D01*
X118930288Y-102708696D01*
X119073448Y-102612247D01*
X119170091Y-102572306D01*
X119228663Y-102590813D01*
X119257612Y-102669710D01*
X119265384Y-102810936D01*
X119265384Y-103031247D01*
X119832000Y-103003385D01*
X119844365Y-103110846D01*
X119845376Y-103119684D01*
X119845981Y-103124985D01*
X119847909Y-103176776D01*
G37*
X119847909Y-103176776D02*
X119829743Y-103207400D01*
X119776975Y-103221555D01*
X119675101Y-103223937D01*
X119509615Y-103219244D01*
X119265384Y-103211191D01*
X119265384Y-103423160D01*
X119263317Y-103507765D01*
X119253860Y-103610395D01*
X119239333Y-103661180D01*
X119223106Y-103674771D01*
X119188922Y-103682274D01*
X119136274Y-103662025D01*
X119050735Y-103607303D01*
X118917881Y-103511385D01*
X118895460Y-103494942D01*
X118782353Y-103414023D01*
X118698117Y-103357069D01*
X118659582Y-103335539D01*
X118657910Y-103336016D01*
X118645315Y-103377188D01*
X118640154Y-103464492D01*
X118640141Y-103467550D01*
X118626292Y-103570428D01*
X118594191Y-103639409D01*
X118544750Y-103666846D01*
X118493100Y-103637865D01*
X118457826Y-103547492D01*
X118444769Y-103404897D01*
X118444769Y-103210286D01*
X118185507Y-103224066D01*
X118113707Y-103227218D01*
X117993440Y-103225472D01*
X117923497Y-103208391D01*
X117884927Y-103172737D01*
X117864698Y-103121981D01*
X117866602Y-103117057D01*
X118709519Y-103117057D01*
X118821375Y-103208691D01*
X118930484Y-103295780D01*
X119009337Y-103343949D01*
X119050956Y-103333491D01*
X119067218Y-103260153D01*
X119070000Y-103119684D01*
X119069415Y-103004622D01*
X119059778Y-102918450D01*
X119027549Y-102896029D01*
X118959129Y-102931342D01*
X118840913Y-103018375D01*
X118709519Y-103117057D01*
X117866602Y-103117057D01*
X117893497Y-103047516D01*
X117902623Y-103037665D01*
X117955058Y-103009686D01*
X118044964Y-103001478D01*
X118191964Y-103010617D01*
X118440544Y-103033830D01*
X118452426Y-102803684D01*
X118458083Y-102715724D01*
X118471994Y-102624859D01*
X118497798Y-102583400D01*
X118542461Y-102573539D01*
X118587084Y-102583427D01*
X118620326Y-102633045D01*
X118640154Y-102741788D01*
X118659692Y-102910038D01*
X118904228Y-102727955D01*
X118930288Y-102708696D01*
X119073448Y-102612247D01*
X119170091Y-102572306D01*
X119228663Y-102590813D01*
X119257612Y-102669710D01*
X119265384Y-102810936D01*
X119265384Y-103031247D01*
X119832000Y-103003385D01*
X119844365Y-103110846D01*
X119845376Y-103119684D01*
X119845981Y-103124985D01*
X119847909Y-103176776D01*
G36*
X120976372Y-100379540D02*
G01*
X121062560Y-100498494D01*
X121202394Y-100691489D01*
X121308854Y-100873692D01*
X121373435Y-100984222D01*
X121412592Y-101067621D01*
X121418740Y-101082103D01*
X121487540Y-101244166D01*
X121567082Y-101447583D01*
X121636982Y-101641623D01*
X121639470Y-101648530D01*
X121646231Y-101668340D01*
X121701462Y-101834945D01*
X121739320Y-101968099D01*
X121763149Y-102090123D01*
X121774218Y-102202308D01*
X121776292Y-102223336D01*
X121778960Y-102300000D01*
X121782094Y-102390061D01*
X121783897Y-102612616D01*
X121784175Y-102692551D01*
X121783148Y-102858718D01*
X121780946Y-102903148D01*
X121776077Y-103001445D01*
X121759304Y-103122436D01*
X121758402Y-103128943D01*
X121725566Y-103249423D01*
X121673009Y-103371096D01*
X121596172Y-103502173D01*
X121534081Y-103589539D01*
X121490498Y-103650865D01*
X121451137Y-103700257D01*
X121351426Y-103825383D01*
X121202262Y-104001109D01*
X121174397Y-104033937D01*
X120954854Y-104284740D01*
X120688237Y-104586000D01*
X120650074Y-104629310D01*
X120469896Y-104844460D01*
X120438953Y-104881409D01*
X120369300Y-104976769D01*
X120282917Y-105095034D01*
X120274467Y-105106603D01*
X120144720Y-105324509D01*
X120115934Y-105386504D01*
X120037819Y-105554744D01*
X119941868Y-105816923D01*
X119935391Y-105836462D01*
X119935169Y-105837134D01*
X119903726Y-105934154D01*
X119885814Y-105989426D01*
X119879238Y-106012308D01*
X119849798Y-106114760D01*
X119824694Y-106230653D01*
X119808073Y-106354621D01*
X119804650Y-106403077D01*
X119798576Y-106489080D01*
X119797510Y-106504183D01*
X119791833Y-106661924D01*
X119790577Y-106696855D01*
X119784846Y-106950154D01*
X119784742Y-106954555D01*
X119784547Y-106962816D01*
X119780086Y-107152134D01*
X119773641Y-107364708D01*
X119766715Y-107541919D01*
X119759875Y-107669506D01*
X119753689Y-107733209D01*
X119751180Y-107739908D01*
X119700952Y-107793960D01*
X119599683Y-107872587D01*
X119462720Y-107966092D01*
X119305408Y-108064777D01*
X119143095Y-108158944D01*
X118991125Y-108238894D01*
X118864846Y-108294929D01*
X118757384Y-108335450D01*
X118757384Y-107863631D01*
X118756798Y-107773900D01*
X118744645Y-107512165D01*
X118713583Y-107317483D01*
X118659414Y-107182162D01*
X118577939Y-107098509D01*
X118464959Y-107058833D01*
X118316276Y-107055442D01*
X118296017Y-107057022D01*
X118195554Y-107075138D01*
X118133231Y-107122308D01*
X118076806Y-107220796D01*
X118065086Y-107246412D01*
X118037995Y-107326294D01*
X118017516Y-107429947D01*
X118001984Y-107570966D01*
X117989738Y-107762948D01*
X117979113Y-108019487D01*
X117956308Y-108664767D01*
X117819538Y-108700513D01*
X117746205Y-108718874D01*
X117601540Y-108753117D01*
X117448308Y-108787715D01*
X117345303Y-108807794D01*
X117182693Y-108831679D01*
X117051516Y-108842278D01*
X116889187Y-108845385D01*
X116875670Y-108306259D01*
X116869280Y-108105201D01*
X116859030Y-107929655D01*
X116844130Y-107806548D01*
X116822803Y-107721996D01*
X116793275Y-107662111D01*
X116734326Y-107593486D01*
X116611678Y-107528460D01*
X116476485Y-107527448D01*
X116346678Y-107588862D01*
X116240188Y-107711112D01*
X116238856Y-107713403D01*
X116205213Y-107782244D01*
X116182653Y-107862184D01*
X116169026Y-107969974D01*
X116162182Y-108122371D01*
X116159970Y-108336128D01*
X116158769Y-108825846D01*
X116002461Y-108835813D01*
X115950532Y-108835478D01*
X115813060Y-108821877D01*
X115639539Y-108794727D01*
X115455384Y-108757659D01*
X115064615Y-108669539D01*
X115063746Y-108024769D01*
X115062984Y-107848940D01*
X115059432Y-107644153D01*
X115051913Y-107495281D01*
X115039221Y-107389039D01*
X115020149Y-107312147D01*
X114993490Y-107251321D01*
X114967393Y-107216698D01*
X117546000Y-107216698D01*
X117546001Y-107217137D01*
X117568500Y-107243136D01*
X117632635Y-107207915D01*
X117734406Y-107113662D01*
X117772725Y-107071935D01*
X117826901Y-107000517D01*
X117838713Y-106962816D01*
X117834324Y-106961213D01*
X117788303Y-106983212D01*
X117714795Y-107038552D01*
X117635464Y-107108441D01*
X117571977Y-107174087D01*
X117546000Y-107216698D01*
X114967393Y-107216698D01*
X114922703Y-107157409D01*
X114796451Y-107076154D01*
X114654291Y-107050735D01*
X114550757Y-107075550D01*
X114516704Y-107083712D01*
X114404171Y-107177648D01*
X114389166Y-107198993D01*
X114359361Y-107256174D01*
X114338674Y-107331003D01*
X114324829Y-107438608D01*
X114315547Y-107594114D01*
X114308550Y-107812648D01*
X114300487Y-108034096D01*
X114287999Y-108205032D01*
X114271285Y-108304905D01*
X114249935Y-108337379D01*
X114248706Y-108337308D01*
X114195375Y-108316936D01*
X114089902Y-108265491D01*
X113946985Y-108190443D01*
X113781324Y-108099261D01*
X113686294Y-108045183D01*
X113522871Y-107946392D01*
X113412893Y-107868199D01*
X113344595Y-107801654D01*
X113306210Y-107737805D01*
X113305519Y-107736126D01*
X113282771Y-107642139D01*
X113267075Y-107486741D01*
X113258065Y-107264427D01*
X113256157Y-107055173D01*
X113881724Y-107055173D01*
X113890548Y-107074457D01*
X113944049Y-107115633D01*
X114002211Y-107100763D01*
X114021895Y-107075550D01*
X114017962Y-107027674D01*
X113947667Y-107008769D01*
X113900986Y-107018302D01*
X113881724Y-107055173D01*
X113256157Y-107055173D01*
X113255377Y-106969692D01*
X114810615Y-106969692D01*
X114811063Y-106978536D01*
X114827848Y-107008769D01*
X114834116Y-107006971D01*
X114869231Y-106969692D01*
X114875337Y-106954555D01*
X114851998Y-106930616D01*
X114840656Y-106932117D01*
X114810615Y-106969692D01*
X113255377Y-106969692D01*
X113253884Y-106799692D01*
X117627339Y-106799692D01*
X117642085Y-106849862D01*
X117662353Y-106869541D01*
X117733921Y-106890296D01*
X117759692Y-106888879D01*
X117773604Y-106874442D01*
X117724699Y-106832084D01*
X117712295Y-106824788D01*
X117967260Y-106824788D01*
X118009347Y-106874442D01*
X118031611Y-106900709D01*
X118062435Y-106919378D01*
X118100436Y-106922140D01*
X118152309Y-106889648D01*
X118239615Y-106812790D01*
X118325988Y-106725720D01*
X118359308Y-106661924D01*
X118325197Y-106627993D01*
X118223154Y-106618000D01*
X118131994Y-106628064D01*
X118027191Y-106674090D01*
X117992806Y-106715692D01*
X117969033Y-106744456D01*
X117967260Y-106824788D01*
X117712295Y-106824788D01*
X117663785Y-106796255D01*
X117627339Y-106799692D01*
X113253884Y-106799692D01*
X113253306Y-106733887D01*
X113252472Y-106715692D01*
X114771538Y-106715692D01*
X114791077Y-106735231D01*
X114810615Y-106715692D01*
X114791077Y-106696154D01*
X114771538Y-106715692D01*
X113252472Y-106715692D01*
X113237287Y-106384453D01*
X113232447Y-106343484D01*
X113995337Y-106343484D01*
X114004512Y-106398568D01*
X114068154Y-106422616D01*
X114113579Y-106429943D01*
X114146308Y-106461692D01*
X114147443Y-106471033D01*
X114185384Y-106500769D01*
X114202640Y-106500351D01*
X114220631Y-106489080D01*
X114213841Y-106446292D01*
X114199313Y-106403077D01*
X118679231Y-106403077D01*
X118698769Y-106422616D01*
X118718308Y-106403077D01*
X118698769Y-106383539D01*
X118679231Y-106403077D01*
X114199313Y-106403077D01*
X114181759Y-106350858D01*
X114156412Y-106287913D01*
X114119575Y-106251830D01*
X114064528Y-106268248D01*
X114041230Y-106282955D01*
X113995337Y-106343484D01*
X113232447Y-106343484D01*
X113201848Y-106084454D01*
X113185931Y-106012308D01*
X114185384Y-106012308D01*
X114204923Y-106031846D01*
X114224461Y-106012308D01*
X119187231Y-106012308D01*
X119206769Y-106031846D01*
X119226308Y-106012308D01*
X119206769Y-105992769D01*
X119187231Y-106012308D01*
X114224461Y-106012308D01*
X114204923Y-105992769D01*
X114185384Y-106012308D01*
X113185931Y-106012308D01*
X113177818Y-105975537D01*
X117663231Y-105975537D01*
X117664247Y-105979437D01*
X117702308Y-105992769D01*
X117713018Y-105991179D01*
X117741384Y-105951386D01*
X117738316Y-105937252D01*
X117702308Y-105934154D01*
X117690613Y-105942174D01*
X117663231Y-105975537D01*
X113177818Y-105975537D01*
X113159306Y-105891628D01*
X118257087Y-105891628D01*
X118286256Y-105935929D01*
X118349157Y-105947074D01*
X118389544Y-105934154D01*
X119070000Y-105934154D01*
X119089538Y-105953692D01*
X119109077Y-105934154D01*
X119089538Y-105914616D01*
X119070000Y-105934154D01*
X118389544Y-105934154D01*
X118415977Y-105925698D01*
X118456902Y-105872440D01*
X118463196Y-105841216D01*
X118451887Y-105816138D01*
X119234656Y-105816138D01*
X119237186Y-105841216D01*
X119239333Y-105862513D01*
X119251087Y-105868626D01*
X119265384Y-105836462D01*
X119262564Y-105815774D01*
X119239333Y-105810410D01*
X119234656Y-105816138D01*
X118451887Y-105816138D01*
X118446960Y-105805213D01*
X118373662Y-105804853D01*
X118301174Y-105828334D01*
X118258283Y-105876685D01*
X118257087Y-105891628D01*
X113159306Y-105891628D01*
X113142722Y-105816462D01*
X113055642Y-105563046D01*
X112986190Y-105413858D01*
X114018952Y-105413858D01*
X114097962Y-105492869D01*
X114110744Y-105504362D01*
X114210940Y-105562092D01*
X114333142Y-105600437D01*
X114427937Y-105613843D01*
X114473023Y-105604533D01*
X114477107Y-105566651D01*
X114471926Y-105537388D01*
X114461913Y-105456362D01*
X114434040Y-105406620D01*
X114364208Y-105346358D01*
X114309283Y-105316392D01*
X115991416Y-105316392D01*
X116026841Y-105456990D01*
X116096518Y-105566651D01*
X116108034Y-105584777D01*
X116236287Y-105713430D01*
X116357950Y-105794134D01*
X116527766Y-105837213D01*
X116694559Y-105811053D01*
X116843467Y-105718735D01*
X116959631Y-105563345D01*
X117005022Y-105453557D01*
X117031864Y-105289435D01*
X117879132Y-105289435D01*
X117885027Y-105351820D01*
X117888916Y-105360164D01*
X117934503Y-105398529D01*
X117988714Y-105404509D01*
X118014923Y-105372323D01*
X118014425Y-105366171D01*
X117990074Y-105325174D01*
X118874615Y-105325174D01*
X118893974Y-105372323D01*
X118899517Y-105385824D01*
X118972483Y-105440480D01*
X119060231Y-105454775D01*
X119130822Y-105431406D01*
X119138592Y-105386504D01*
X119075651Y-105314037D01*
X119053099Y-105297487D01*
X118975445Y-105273148D01*
X118905199Y-105282973D01*
X118874615Y-105325174D01*
X117990074Y-105325174D01*
X117983872Y-105314733D01*
X117930098Y-105275321D01*
X117887020Y-105274006D01*
X117884010Y-105279893D01*
X117879132Y-105289435D01*
X117031864Y-105289435D01*
X117033425Y-105279893D01*
X117025887Y-105203550D01*
X118093318Y-105203550D01*
X118120856Y-105211231D01*
X118155746Y-105197710D01*
X118215292Y-105142846D01*
X118241385Y-105108638D01*
X118243913Y-105095034D01*
X118190769Y-105131789D01*
X118137046Y-105170990D01*
X118096333Y-105200173D01*
X118093318Y-105203550D01*
X117025887Y-105203550D01*
X117013713Y-105080243D01*
X116979010Y-104956445D01*
X120055272Y-104956445D01*
X120059949Y-105002821D01*
X120071702Y-105008934D01*
X120086000Y-104976769D01*
X120083180Y-104956082D01*
X120059949Y-104950718D01*
X120055272Y-104956445D01*
X116979010Y-104956445D01*
X116951198Y-104857232D01*
X117585077Y-104857232D01*
X117589111Y-104878875D01*
X117628607Y-104918482D01*
X117677319Y-104910579D01*
X117687928Y-104898412D01*
X117697585Y-104844460D01*
X117643692Y-104820462D01*
X117616762Y-104824599D01*
X117585077Y-104857232D01*
X116951198Y-104857232D01*
X116945548Y-104837075D01*
X116843280Y-104559702D01*
X116793146Y-104449231D01*
X117389692Y-104449231D01*
X117409231Y-104468769D01*
X117428769Y-104449231D01*
X117409231Y-104429692D01*
X117389692Y-104449231D01*
X116793146Y-104449231D01*
X116741364Y-104335127D01*
X116645639Y-104182891D01*
X116554381Y-104100291D01*
X116465866Y-104084621D01*
X116460568Y-104085729D01*
X116423056Y-104101452D01*
X116386702Y-104137549D01*
X116345880Y-104204615D01*
X116294963Y-104313246D01*
X116228324Y-104474037D01*
X116140335Y-104697583D01*
X116052699Y-104942054D01*
X116000466Y-105149305D01*
X115996053Y-105230769D01*
X115991416Y-105316392D01*
X114309283Y-105316392D01*
X114296301Y-105309309D01*
X114234242Y-105308994D01*
X114144223Y-105349078D01*
X114018952Y-105413858D01*
X112986190Y-105413858D01*
X112936340Y-105306776D01*
X112893523Y-105230769D01*
X114146308Y-105230769D01*
X114165846Y-105250308D01*
X114185384Y-105230769D01*
X114165846Y-105211231D01*
X114146308Y-105230769D01*
X112893523Y-105230769D01*
X112780550Y-105030223D01*
X112660253Y-104829676D01*
X112958474Y-104688051D01*
X113256696Y-104546427D01*
X113460175Y-104662846D01*
X113471700Y-104669386D01*
X113753316Y-104793420D01*
X114030732Y-104843252D01*
X114315572Y-104821030D01*
X114517341Y-104768482D01*
X114827653Y-104627321D01*
X115094646Y-104423106D01*
X115316445Y-104158282D01*
X115491178Y-103835293D01*
X115616973Y-103456584D01*
X115691956Y-103024598D01*
X115696401Y-102984093D01*
X115715580Y-102859827D01*
X115719883Y-102848518D01*
X117339526Y-102848518D01*
X117345852Y-103190638D01*
X117405660Y-103511385D01*
X117448753Y-103641002D01*
X117583192Y-103928136D01*
X117759308Y-104195796D01*
X117965043Y-104429380D01*
X117989015Y-104449231D01*
X118188337Y-104614289D01*
X118417128Y-104735920D01*
X118734469Y-104820893D01*
X119040536Y-104831908D01*
X119328733Y-104766881D01*
X119598404Y-104625960D01*
X119644602Y-104586000D01*
X120437692Y-104586000D01*
X120444305Y-104603977D01*
X120496308Y-104625077D01*
X120523272Y-104620668D01*
X120554923Y-104586000D01*
X120548310Y-104568024D01*
X120496308Y-104546923D01*
X120469343Y-104551332D01*
X120437692Y-104586000D01*
X119644602Y-104586000D01*
X119848895Y-104409294D01*
X119884034Y-104371397D01*
X120056082Y-104151096D01*
X120113897Y-104038795D01*
X120575919Y-104038795D01*
X120581238Y-104075409D01*
X120612016Y-104041387D01*
X120612190Y-104041110D01*
X120665391Y-104017943D01*
X120756355Y-104020450D01*
X120817175Y-104024340D01*
X120860018Y-104001109D01*
X120840193Y-103955543D01*
X120757549Y-103902657D01*
X120706053Y-103864319D01*
X120669516Y-103765888D01*
X120663990Y-103736502D01*
X120645080Y-103763804D01*
X120639257Y-103782617D01*
X120614356Y-103863077D01*
X120604361Y-103902154D01*
X120596016Y-103934787D01*
X120575919Y-104038795D01*
X120113897Y-104038795D01*
X120176267Y-103917646D01*
X120181013Y-103902154D01*
X120476769Y-103902154D01*
X120496308Y-103921692D01*
X120515846Y-103902154D01*
X120496308Y-103882616D01*
X120476769Y-103902154D01*
X120181013Y-103902154D01*
X120210232Y-103806768D01*
X120476769Y-103806768D01*
X120477888Y-103815492D01*
X120515846Y-103843539D01*
X120534521Y-103836083D01*
X120554923Y-103782617D01*
X120549300Y-103754705D01*
X120515846Y-103745846D01*
X120505174Y-103753845D01*
X120476769Y-103806768D01*
X120210232Y-103806768D01*
X120239259Y-103712010D01*
X120913527Y-103712010D01*
X120945692Y-103726308D01*
X120966379Y-103723488D01*
X120971743Y-103700257D01*
X120966016Y-103695580D01*
X120919641Y-103700257D01*
X120913527Y-103712010D01*
X120239259Y-103712010D01*
X120261435Y-103639615D01*
X120271708Y-103589539D01*
X120672154Y-103589539D01*
X120691692Y-103609077D01*
X120711231Y-103589539D01*
X120691692Y-103570000D01*
X120672154Y-103589539D01*
X120271708Y-103589539D01*
X120286840Y-103515781D01*
X120318274Y-103122436D01*
X120298416Y-102940765D01*
X120642388Y-102940765D01*
X120643543Y-103027341D01*
X120650449Y-103062000D01*
X120673284Y-103030601D01*
X120689293Y-102954594D01*
X120693456Y-102868447D01*
X120686073Y-102830083D01*
X121385119Y-102830083D01*
X121395077Y-102866616D01*
X121396348Y-102868447D01*
X121403105Y-102878183D01*
X121438766Y-102905692D01*
X121444111Y-102903148D01*
X121434154Y-102866616D01*
X121426125Y-102855048D01*
X121390464Y-102827539D01*
X121385119Y-102830083D01*
X120686073Y-102830083D01*
X120681567Y-102806669D01*
X120672754Y-102794595D01*
X120653445Y-102811743D01*
X120643445Y-102905839D01*
X120642388Y-102940765D01*
X120298416Y-102940765D01*
X120276268Y-102738152D01*
X120163360Y-102372129D01*
X120097578Y-102249266D01*
X120284339Y-102249266D01*
X120304554Y-102319874D01*
X120323800Y-102360489D01*
X120348896Y-102376212D01*
X120387007Y-102323724D01*
X120394618Y-102311158D01*
X120404330Y-102280462D01*
X121023846Y-102280462D01*
X121030459Y-102298438D01*
X121082461Y-102319539D01*
X121109426Y-102315130D01*
X121123239Y-102300000D01*
X121180154Y-102300000D01*
X121199692Y-102319539D01*
X121219231Y-102300000D01*
X121199692Y-102280462D01*
X121180154Y-102300000D01*
X121123239Y-102300000D01*
X121141077Y-102280462D01*
X121134464Y-102262485D01*
X121082461Y-102241385D01*
X121055497Y-102245793D01*
X121046928Y-102255178D01*
X121023846Y-102280462D01*
X120404330Y-102280462D01*
X120412329Y-102255178D01*
X120371645Y-102224402D01*
X120337800Y-102215152D01*
X120289191Y-102220552D01*
X120284339Y-102249266D01*
X120097578Y-102249266D01*
X120072436Y-102202308D01*
X120574461Y-102202308D01*
X120582460Y-102212980D01*
X120635383Y-102241385D01*
X120644107Y-102240266D01*
X120672154Y-102202308D01*
X120664698Y-102183633D01*
X120611232Y-102163231D01*
X120583320Y-102168854D01*
X120574461Y-102202308D01*
X120072436Y-102202308D01*
X119982089Y-102033565D01*
X119734993Y-101731657D01*
X119727706Y-101724378D01*
X119661987Y-101671070D01*
X121041843Y-101671070D01*
X121042327Y-101731673D01*
X121051733Y-101744968D01*
X121111286Y-101769079D01*
X121190008Y-101717948D01*
X121243903Y-101687943D01*
X121349107Y-101683426D01*
X121358977Y-101685221D01*
X121432642Y-101684419D01*
X121453692Y-101641623D01*
X121448338Y-101609224D01*
X121398754Y-101548474D01*
X121323740Y-101527595D01*
X121256758Y-101559845D01*
X121256150Y-101560138D01*
X121219905Y-101590225D01*
X121157212Y-101600717D01*
X121148278Y-101598160D01*
X121086566Y-101615844D01*
X121041843Y-101671070D01*
X119661987Y-101671070D01*
X119523766Y-101558953D01*
X120575138Y-101558953D01*
X120615737Y-101592052D01*
X120665003Y-101609426D01*
X120703813Y-101607398D01*
X120711231Y-101559845D01*
X120702321Y-101512725D01*
X120657572Y-101479842D01*
X120597430Y-101514328D01*
X120575138Y-101558953D01*
X119523766Y-101558953D01*
X119465269Y-101511503D01*
X119183627Y-101368471D01*
X118891955Y-101294431D01*
X118599428Y-101288532D01*
X118315221Y-101349924D01*
X118048508Y-101477754D01*
X117808464Y-101671171D01*
X117604265Y-101929325D01*
X117476250Y-102188402D01*
X117383916Y-102507087D01*
X117339526Y-102848518D01*
X115719883Y-102848518D01*
X115748620Y-102772993D01*
X115810861Y-102694374D01*
X115917644Y-102594752D01*
X116072807Y-102451187D01*
X116307380Y-102221409D01*
X116561927Y-101960699D01*
X116820841Y-101685703D01*
X117068512Y-101413069D01*
X117289332Y-101159447D01*
X117343005Y-101093856D01*
X120210143Y-101093856D01*
X120242308Y-101108154D01*
X120262995Y-101105334D01*
X120268359Y-101082103D01*
X120262631Y-101077426D01*
X120216256Y-101082103D01*
X120210143Y-101093856D01*
X117343005Y-101093856D01*
X117467692Y-100941483D01*
X117483677Y-100921294D01*
X117567352Y-100825474D01*
X117630024Y-100769800D01*
X117659167Y-100765769D01*
X117713637Y-100839207D01*
X117809769Y-100873094D01*
X117836719Y-100853369D01*
X118062349Y-100853369D01*
X118067026Y-100899744D01*
X118078779Y-100905857D01*
X118093077Y-100873692D01*
X118090257Y-100853005D01*
X118067026Y-100847641D01*
X118062349Y-100853369D01*
X117836719Y-100853369D01*
X117847256Y-100845657D01*
X117857277Y-100777535D01*
X117839484Y-100700662D01*
X117795849Y-100647066D01*
X117784590Y-100638309D01*
X117777149Y-100607794D01*
X117796970Y-100553602D01*
X117849352Y-100466322D01*
X117889922Y-100407976D01*
X120203231Y-100407976D01*
X120203298Y-100409337D01*
X120233052Y-100415503D01*
X120300621Y-100381835D01*
X120370094Y-100350133D01*
X120447434Y-100341482D01*
X120496826Y-100361509D01*
X120494832Y-100407157D01*
X120479171Y-100422912D01*
X120417058Y-100429295D01*
X120389037Y-100425482D01*
X120325904Y-100456826D01*
X120314919Y-100478149D01*
X120343967Y-100498422D01*
X120440278Y-100504238D01*
X120472866Y-100504107D01*
X120559320Y-100502118D01*
X120594000Y-100498494D01*
X120591722Y-100490436D01*
X120571405Y-100429883D01*
X120536875Y-100330840D01*
X120523998Y-100290748D01*
X120500156Y-100178640D01*
X120500749Y-100101235D01*
X120508699Y-100074925D01*
X120509827Y-100055323D01*
X120477778Y-100101923D01*
X120426724Y-100145437D01*
X120333501Y-100170308D01*
X120306939Y-100171023D01*
X120253188Y-100190267D01*
X120253620Y-100248423D01*
X120258856Y-100297880D01*
X120238639Y-100348421D01*
X120231468Y-100353635D01*
X120203231Y-100407976D01*
X117889922Y-100407976D01*
X117939592Y-100336544D01*
X118072991Y-100154858D01*
X118215766Y-99957691D01*
X118288461Y-99957691D01*
X118288842Y-99963154D01*
X118311462Y-99971759D01*
X118350808Y-99929809D01*
X118360316Y-99907971D01*
X118333576Y-99912576D01*
X118316217Y-99924639D01*
X118288461Y-99957691D01*
X118215766Y-99957691D01*
X118222730Y-99948074D01*
X118380844Y-99720923D01*
X118444769Y-99720923D01*
X118464308Y-99740462D01*
X118483846Y-99720923D01*
X118464308Y-99701385D01*
X118444769Y-99720923D01*
X118380844Y-99720923D01*
X118389846Y-99707991D01*
X118460978Y-99602162D01*
X119882772Y-99602162D01*
X119888173Y-99636419D01*
X119907179Y-99662958D01*
X119923006Y-99720923D01*
X119929692Y-99745415D01*
X119930330Y-99752596D01*
X119970172Y-99815499D01*
X120052927Y-99874369D01*
X120090494Y-99892495D01*
X120130663Y-99907971D01*
X120187847Y-99930003D01*
X120229391Y-99927617D01*
X120209651Y-99884967D01*
X120189967Y-99845243D01*
X120187199Y-99757967D01*
X120192934Y-99726978D01*
X120172279Y-99629508D01*
X120095260Y-99572675D01*
X119975930Y-99569045D01*
X119948675Y-99575015D01*
X119882772Y-99602162D01*
X118460978Y-99602162D01*
X118549891Y-99469880D01*
X118627125Y-99349692D01*
X119558461Y-99349692D01*
X119566482Y-99361387D01*
X119599845Y-99388769D01*
X119603744Y-99387753D01*
X119617077Y-99349692D01*
X119615487Y-99338982D01*
X119575694Y-99310616D01*
X119561560Y-99313684D01*
X119558461Y-99349692D01*
X118627125Y-99349692D01*
X118682436Y-99263619D01*
X118701505Y-99232929D01*
X118801130Y-99073466D01*
X118884399Y-98941596D01*
X118943077Y-98850288D01*
X118968927Y-98812509D01*
X118981337Y-98810529D01*
X119050298Y-98833420D01*
X119165025Y-98887857D01*
X119311881Y-98966151D01*
X119477225Y-99060618D01*
X119647420Y-99163570D01*
X119808826Y-99267321D01*
X119927012Y-99349692D01*
X119947805Y-99364184D01*
X120113713Y-99493506D01*
X120417502Y-99764038D01*
X120576486Y-99927617D01*
X120709898Y-100064886D01*
X120976372Y-100379540D01*
G37*
X120976372Y-100379540D02*
X121062560Y-100498494D01*
X121202394Y-100691489D01*
X121308854Y-100873692D01*
X121373435Y-100984222D01*
X121412592Y-101067621D01*
X121418740Y-101082103D01*
X121487540Y-101244166D01*
X121567082Y-101447583D01*
X121636982Y-101641623D01*
X121639470Y-101648530D01*
X121646231Y-101668340D01*
X121701462Y-101834945D01*
X121739320Y-101968099D01*
X121763149Y-102090123D01*
X121774218Y-102202308D01*
X121776292Y-102223336D01*
X121778960Y-102300000D01*
X121782094Y-102390061D01*
X121783897Y-102612616D01*
X121784175Y-102692551D01*
X121783148Y-102858718D01*
X121780946Y-102903148D01*
X121776077Y-103001445D01*
X121759304Y-103122436D01*
X121758402Y-103128943D01*
X121725566Y-103249423D01*
X121673009Y-103371096D01*
X121596172Y-103502173D01*
X121534081Y-103589539D01*
X121490498Y-103650865D01*
X121451137Y-103700257D01*
X121351426Y-103825383D01*
X121202262Y-104001109D01*
X121174397Y-104033937D01*
X120954854Y-104284740D01*
X120688237Y-104586000D01*
X120650074Y-104629310D01*
X120469896Y-104844460D01*
X120438953Y-104881409D01*
X120369300Y-104976769D01*
X120282917Y-105095034D01*
X120274467Y-105106603D01*
X120144720Y-105324509D01*
X120115934Y-105386504D01*
X120037819Y-105554744D01*
X119941868Y-105816923D01*
X119935391Y-105836462D01*
X119935169Y-105837134D01*
X119903726Y-105934154D01*
X119885814Y-105989426D01*
X119879238Y-106012308D01*
X119849798Y-106114760D01*
X119824694Y-106230653D01*
X119808073Y-106354621D01*
X119804650Y-106403077D01*
X119798576Y-106489080D01*
X119797510Y-106504183D01*
X119791833Y-106661924D01*
X119790577Y-106696855D01*
X119784846Y-106950154D01*
X119784742Y-106954555D01*
X119784547Y-106962816D01*
X119780086Y-107152134D01*
X119773641Y-107364708D01*
X119766715Y-107541919D01*
X119759875Y-107669506D01*
X119753689Y-107733209D01*
X119751180Y-107739908D01*
X119700952Y-107793960D01*
X119599683Y-107872587D01*
X119462720Y-107966092D01*
X119305408Y-108064777D01*
X119143095Y-108158944D01*
X118991125Y-108238894D01*
X118864846Y-108294929D01*
X118757384Y-108335450D01*
X118757384Y-107863631D01*
X118756798Y-107773900D01*
X118744645Y-107512165D01*
X118713583Y-107317483D01*
X118659414Y-107182162D01*
X118577939Y-107098509D01*
X118464959Y-107058833D01*
X118316276Y-107055442D01*
X118296017Y-107057022D01*
X118195554Y-107075138D01*
X118133231Y-107122308D01*
X118076806Y-107220796D01*
X118065086Y-107246412D01*
X118037995Y-107326294D01*
X118017516Y-107429947D01*
X118001984Y-107570966D01*
X117989738Y-107762948D01*
X117979113Y-108019487D01*
X117956308Y-108664767D01*
X117819538Y-108700513D01*
X117746205Y-108718874D01*
X117601540Y-108753117D01*
X117448308Y-108787715D01*
X117345303Y-108807794D01*
X117182693Y-108831679D01*
X117051516Y-108842278D01*
X116889187Y-108845385D01*
X116875670Y-108306259D01*
X116869280Y-108105201D01*
X116859030Y-107929655D01*
X116844130Y-107806548D01*
X116822803Y-107721996D01*
X116793275Y-107662111D01*
X116734326Y-107593486D01*
X116611678Y-107528460D01*
X116476485Y-107527448D01*
X116346678Y-107588862D01*
X116240188Y-107711112D01*
X116238856Y-107713403D01*
X116205213Y-107782244D01*
X116182653Y-107862184D01*
X116169026Y-107969974D01*
X116162182Y-108122371D01*
X116159970Y-108336128D01*
X116158769Y-108825846D01*
X116002461Y-108835813D01*
X115950532Y-108835478D01*
X115813060Y-108821877D01*
X115639539Y-108794727D01*
X115455384Y-108757659D01*
X115064615Y-108669539D01*
X115063746Y-108024769D01*
X115062984Y-107848940D01*
X115059432Y-107644153D01*
X115051913Y-107495281D01*
X115039221Y-107389039D01*
X115020149Y-107312147D01*
X114993490Y-107251321D01*
X114967393Y-107216698D01*
X117546000Y-107216698D01*
X117546001Y-107217137D01*
X117568500Y-107243136D01*
X117632635Y-107207915D01*
X117734406Y-107113662D01*
X117772725Y-107071935D01*
X117826901Y-107000517D01*
X117838713Y-106962816D01*
X117834324Y-106961213D01*
X117788303Y-106983212D01*
X117714795Y-107038552D01*
X117635464Y-107108441D01*
X117571977Y-107174087D01*
X117546000Y-107216698D01*
X114967393Y-107216698D01*
X114922703Y-107157409D01*
X114796451Y-107076154D01*
X114654291Y-107050735D01*
X114550757Y-107075550D01*
X114516704Y-107083712D01*
X114404171Y-107177648D01*
X114389166Y-107198993D01*
X114359361Y-107256174D01*
X114338674Y-107331003D01*
X114324829Y-107438608D01*
X114315547Y-107594114D01*
X114308550Y-107812648D01*
X114300487Y-108034096D01*
X114287999Y-108205032D01*
X114271285Y-108304905D01*
X114249935Y-108337379D01*
X114248706Y-108337308D01*
X114195375Y-108316936D01*
X114089902Y-108265491D01*
X113946985Y-108190443D01*
X113781324Y-108099261D01*
X113686294Y-108045183D01*
X113522871Y-107946392D01*
X113412893Y-107868199D01*
X113344595Y-107801654D01*
X113306210Y-107737805D01*
X113305519Y-107736126D01*
X113282771Y-107642139D01*
X113267075Y-107486741D01*
X113258065Y-107264427D01*
X113256157Y-107055173D01*
X113881724Y-107055173D01*
X113890548Y-107074457D01*
X113944049Y-107115633D01*
X114002211Y-107100763D01*
X114021895Y-107075550D01*
X114017962Y-107027674D01*
X113947667Y-107008769D01*
X113900986Y-107018302D01*
X113881724Y-107055173D01*
X113256157Y-107055173D01*
X113255377Y-106969692D01*
X114810615Y-106969692D01*
X114811063Y-106978536D01*
X114827848Y-107008769D01*
X114834116Y-107006971D01*
X114869231Y-106969692D01*
X114875337Y-106954555D01*
X114851998Y-106930616D01*
X114840656Y-106932117D01*
X114810615Y-106969692D01*
X113255377Y-106969692D01*
X113253884Y-106799692D01*
X117627339Y-106799692D01*
X117642085Y-106849862D01*
X117662353Y-106869541D01*
X117733921Y-106890296D01*
X117759692Y-106888879D01*
X117773604Y-106874442D01*
X117724699Y-106832084D01*
X117712295Y-106824788D01*
X117967260Y-106824788D01*
X118009347Y-106874442D01*
X118031611Y-106900709D01*
X118062435Y-106919378D01*
X118100436Y-106922140D01*
X118152309Y-106889648D01*
X118239615Y-106812790D01*
X118325988Y-106725720D01*
X118359308Y-106661924D01*
X118325197Y-106627993D01*
X118223154Y-106618000D01*
X118131994Y-106628064D01*
X118027191Y-106674090D01*
X117992806Y-106715692D01*
X117969033Y-106744456D01*
X117967260Y-106824788D01*
X117712295Y-106824788D01*
X117663785Y-106796255D01*
X117627339Y-106799692D01*
X113253884Y-106799692D01*
X113253306Y-106733887D01*
X113252472Y-106715692D01*
X114771538Y-106715692D01*
X114791077Y-106735231D01*
X114810615Y-106715692D01*
X114791077Y-106696154D01*
X114771538Y-106715692D01*
X113252472Y-106715692D01*
X113237287Y-106384453D01*
X113232447Y-106343484D01*
X113995337Y-106343484D01*
X114004512Y-106398568D01*
X114068154Y-106422616D01*
X114113579Y-106429943D01*
X114146308Y-106461692D01*
X114147443Y-106471033D01*
X114185384Y-106500769D01*
X114202640Y-106500351D01*
X114220631Y-106489080D01*
X114213841Y-106446292D01*
X114199313Y-106403077D01*
X118679231Y-106403077D01*
X118698769Y-106422616D01*
X118718308Y-106403077D01*
X118698769Y-106383539D01*
X118679231Y-106403077D01*
X114199313Y-106403077D01*
X114181759Y-106350858D01*
X114156412Y-106287913D01*
X114119575Y-106251830D01*
X114064528Y-106268248D01*
X114041230Y-106282955D01*
X113995337Y-106343484D01*
X113232447Y-106343484D01*
X113201848Y-106084454D01*
X113185931Y-106012308D01*
X114185384Y-106012308D01*
X114204923Y-106031846D01*
X114224461Y-106012308D01*
X119187231Y-106012308D01*
X119206769Y-106031846D01*
X119226308Y-106012308D01*
X119206769Y-105992769D01*
X119187231Y-106012308D01*
X114224461Y-106012308D01*
X114204923Y-105992769D01*
X114185384Y-106012308D01*
X113185931Y-106012308D01*
X113177818Y-105975537D01*
X117663231Y-105975537D01*
X117664247Y-105979437D01*
X117702308Y-105992769D01*
X117713018Y-105991179D01*
X117741384Y-105951386D01*
X117738316Y-105937252D01*
X117702308Y-105934154D01*
X117690613Y-105942174D01*
X117663231Y-105975537D01*
X113177818Y-105975537D01*
X113159306Y-105891628D01*
X118257087Y-105891628D01*
X118286256Y-105935929D01*
X118349157Y-105947074D01*
X118389544Y-105934154D01*
X119070000Y-105934154D01*
X119089538Y-105953692D01*
X119109077Y-105934154D01*
X119089538Y-105914616D01*
X119070000Y-105934154D01*
X118389544Y-105934154D01*
X118415977Y-105925698D01*
X118456902Y-105872440D01*
X118463196Y-105841216D01*
X118451887Y-105816138D01*
X119234656Y-105816138D01*
X119237186Y-105841216D01*
X119239333Y-105862513D01*
X119251087Y-105868626D01*
X119265384Y-105836462D01*
X119262564Y-105815774D01*
X119239333Y-105810410D01*
X119234656Y-105816138D01*
X118451887Y-105816138D01*
X118446960Y-105805213D01*
X118373662Y-105804853D01*
X118301174Y-105828334D01*
X118258283Y-105876685D01*
X118257087Y-105891628D01*
X113159306Y-105891628D01*
X113142722Y-105816462D01*
X113055642Y-105563046D01*
X112986190Y-105413858D01*
X114018952Y-105413858D01*
X114097962Y-105492869D01*
X114110744Y-105504362D01*
X114210940Y-105562092D01*
X114333142Y-105600437D01*
X114427937Y-105613843D01*
X114473023Y-105604533D01*
X114477107Y-105566651D01*
X114471926Y-105537388D01*
X114461913Y-105456362D01*
X114434040Y-105406620D01*
X114364208Y-105346358D01*
X114309283Y-105316392D01*
X115991416Y-105316392D01*
X116026841Y-105456990D01*
X116096518Y-105566651D01*
X116108034Y-105584777D01*
X116236287Y-105713430D01*
X116357950Y-105794134D01*
X116527766Y-105837213D01*
X116694559Y-105811053D01*
X116843467Y-105718735D01*
X116959631Y-105563345D01*
X117005022Y-105453557D01*
X117031864Y-105289435D01*
X117879132Y-105289435D01*
X117885027Y-105351820D01*
X117888916Y-105360164D01*
X117934503Y-105398529D01*
X117988714Y-105404509D01*
X118014923Y-105372323D01*
X118014425Y-105366171D01*
X117990074Y-105325174D01*
X118874615Y-105325174D01*
X118893974Y-105372323D01*
X118899517Y-105385824D01*
X118972483Y-105440480D01*
X119060231Y-105454775D01*
X119130822Y-105431406D01*
X119138592Y-105386504D01*
X119075651Y-105314037D01*
X119053099Y-105297487D01*
X118975445Y-105273148D01*
X118905199Y-105282973D01*
X118874615Y-105325174D01*
X117990074Y-105325174D01*
X117983872Y-105314733D01*
X117930098Y-105275321D01*
X117887020Y-105274006D01*
X117884010Y-105279893D01*
X117879132Y-105289435D01*
X117031864Y-105289435D01*
X117033425Y-105279893D01*
X117025887Y-105203550D01*
X118093318Y-105203550D01*
X118120856Y-105211231D01*
X118155746Y-105197710D01*
X118215292Y-105142846D01*
X118241385Y-105108638D01*
X118243913Y-105095034D01*
X118190769Y-105131789D01*
X118137046Y-105170990D01*
X118096333Y-105200173D01*
X118093318Y-105203550D01*
X117025887Y-105203550D01*
X117013713Y-105080243D01*
X116979010Y-104956445D01*
X120055272Y-104956445D01*
X120059949Y-105002821D01*
X120071702Y-105008934D01*
X120086000Y-104976769D01*
X120083180Y-104956082D01*
X120059949Y-104950718D01*
X120055272Y-104956445D01*
X116979010Y-104956445D01*
X116951198Y-104857232D01*
X117585077Y-104857232D01*
X117589111Y-104878875D01*
X117628607Y-104918482D01*
X117677319Y-104910579D01*
X117687928Y-104898412D01*
X117697585Y-104844460D01*
X117643692Y-104820462D01*
X117616762Y-104824599D01*
X117585077Y-104857232D01*
X116951198Y-104857232D01*
X116945548Y-104837075D01*
X116843280Y-104559702D01*
X116793146Y-104449231D01*
X117389692Y-104449231D01*
X117409231Y-104468769D01*
X117428769Y-104449231D01*
X117409231Y-104429692D01*
X117389692Y-104449231D01*
X116793146Y-104449231D01*
X116741364Y-104335127D01*
X116645639Y-104182891D01*
X116554381Y-104100291D01*
X116465866Y-104084621D01*
X116460568Y-104085729D01*
X116423056Y-104101452D01*
X116386702Y-104137549D01*
X116345880Y-104204615D01*
X116294963Y-104313246D01*
X116228324Y-104474037D01*
X116140335Y-104697583D01*
X116052699Y-104942054D01*
X116000466Y-105149305D01*
X115996053Y-105230769D01*
X115991416Y-105316392D01*
X114309283Y-105316392D01*
X114296301Y-105309309D01*
X114234242Y-105308994D01*
X114144223Y-105349078D01*
X114018952Y-105413858D01*
X112986190Y-105413858D01*
X112936340Y-105306776D01*
X112893523Y-105230769D01*
X114146308Y-105230769D01*
X114165846Y-105250308D01*
X114185384Y-105230769D01*
X114165846Y-105211231D01*
X114146308Y-105230769D01*
X112893523Y-105230769D01*
X112780550Y-105030223D01*
X112660253Y-104829676D01*
X112958474Y-104688051D01*
X113256696Y-104546427D01*
X113460175Y-104662846D01*
X113471700Y-104669386D01*
X113753316Y-104793420D01*
X114030732Y-104843252D01*
X114315572Y-104821030D01*
X114517341Y-104768482D01*
X114827653Y-104627321D01*
X115094646Y-104423106D01*
X115316445Y-104158282D01*
X115491178Y-103835293D01*
X115616973Y-103456584D01*
X115691956Y-103024598D01*
X115696401Y-102984093D01*
X115715580Y-102859827D01*
X115719883Y-102848518D01*
X117339526Y-102848518D01*
X117345852Y-103190638D01*
X117405660Y-103511385D01*
X117448753Y-103641002D01*
X117583192Y-103928136D01*
X117759308Y-104195796D01*
X117965043Y-104429380D01*
X117989015Y-104449231D01*
X118188337Y-104614289D01*
X118417128Y-104735920D01*
X118734469Y-104820893D01*
X119040536Y-104831908D01*
X119328733Y-104766881D01*
X119598404Y-104625960D01*
X119644602Y-104586000D01*
X120437692Y-104586000D01*
X120444305Y-104603977D01*
X120496308Y-104625077D01*
X120523272Y-104620668D01*
X120554923Y-104586000D01*
X120548310Y-104568024D01*
X120496308Y-104546923D01*
X120469343Y-104551332D01*
X120437692Y-104586000D01*
X119644602Y-104586000D01*
X119848895Y-104409294D01*
X119884034Y-104371397D01*
X120056082Y-104151096D01*
X120113897Y-104038795D01*
X120575919Y-104038795D01*
X120581238Y-104075409D01*
X120612016Y-104041387D01*
X120612190Y-104041110D01*
X120665391Y-104017943D01*
X120756355Y-104020450D01*
X120817175Y-104024340D01*
X120860018Y-104001109D01*
X120840193Y-103955543D01*
X120757549Y-103902657D01*
X120706053Y-103864319D01*
X120669516Y-103765888D01*
X120663990Y-103736502D01*
X120645080Y-103763804D01*
X120639257Y-103782617D01*
X120614356Y-103863077D01*
X120604361Y-103902154D01*
X120596016Y-103934787D01*
X120575919Y-104038795D01*
X120113897Y-104038795D01*
X120176267Y-103917646D01*
X120181013Y-103902154D01*
X120476769Y-103902154D01*
X120496308Y-103921692D01*
X120515846Y-103902154D01*
X120496308Y-103882616D01*
X120476769Y-103902154D01*
X120181013Y-103902154D01*
X120210232Y-103806768D01*
X120476769Y-103806768D01*
X120477888Y-103815492D01*
X120515846Y-103843539D01*
X120534521Y-103836083D01*
X120554923Y-103782617D01*
X120549300Y-103754705D01*
X120515846Y-103745846D01*
X120505174Y-103753845D01*
X120476769Y-103806768D01*
X120210232Y-103806768D01*
X120239259Y-103712010D01*
X120913527Y-103712010D01*
X120945692Y-103726308D01*
X120966379Y-103723488D01*
X120971743Y-103700257D01*
X120966016Y-103695580D01*
X120919641Y-103700257D01*
X120913527Y-103712010D01*
X120239259Y-103712010D01*
X120261435Y-103639615D01*
X120271708Y-103589539D01*
X120672154Y-103589539D01*
X120691692Y-103609077D01*
X120711231Y-103589539D01*
X120691692Y-103570000D01*
X120672154Y-103589539D01*
X120271708Y-103589539D01*
X120286840Y-103515781D01*
X120318274Y-103122436D01*
X120298416Y-102940765D01*
X120642388Y-102940765D01*
X120643543Y-103027341D01*
X120650449Y-103062000D01*
X120673284Y-103030601D01*
X120689293Y-102954594D01*
X120693456Y-102868447D01*
X120686073Y-102830083D01*
X121385119Y-102830083D01*
X121395077Y-102866616D01*
X121396348Y-102868447D01*
X121403105Y-102878183D01*
X121438766Y-102905692D01*
X121444111Y-102903148D01*
X121434154Y-102866616D01*
X121426125Y-102855048D01*
X121390464Y-102827539D01*
X121385119Y-102830083D01*
X120686073Y-102830083D01*
X120681567Y-102806669D01*
X120672754Y-102794595D01*
X120653445Y-102811743D01*
X120643445Y-102905839D01*
X120642388Y-102940765D01*
X120298416Y-102940765D01*
X120276268Y-102738152D01*
X120163360Y-102372129D01*
X120097578Y-102249266D01*
X120284339Y-102249266D01*
X120304554Y-102319874D01*
X120323800Y-102360489D01*
X120348896Y-102376212D01*
X120387007Y-102323724D01*
X120394618Y-102311158D01*
X120404330Y-102280462D01*
X121023846Y-102280462D01*
X121030459Y-102298438D01*
X121082461Y-102319539D01*
X121109426Y-102315130D01*
X121123239Y-102300000D01*
X121180154Y-102300000D01*
X121199692Y-102319539D01*
X121219231Y-102300000D01*
X121199692Y-102280462D01*
X121180154Y-102300000D01*
X121123239Y-102300000D01*
X121141077Y-102280462D01*
X121134464Y-102262485D01*
X121082461Y-102241385D01*
X121055497Y-102245793D01*
X121046928Y-102255178D01*
X121023846Y-102280462D01*
X120404330Y-102280462D01*
X120412329Y-102255178D01*
X120371645Y-102224402D01*
X120337800Y-102215152D01*
X120289191Y-102220552D01*
X120284339Y-102249266D01*
X120097578Y-102249266D01*
X120072436Y-102202308D01*
X120574461Y-102202308D01*
X120582460Y-102212980D01*
X120635383Y-102241385D01*
X120644107Y-102240266D01*
X120672154Y-102202308D01*
X120664698Y-102183633D01*
X120611232Y-102163231D01*
X120583320Y-102168854D01*
X120574461Y-102202308D01*
X120072436Y-102202308D01*
X119982089Y-102033565D01*
X119734993Y-101731657D01*
X119727706Y-101724378D01*
X119661987Y-101671070D01*
X121041843Y-101671070D01*
X121042327Y-101731673D01*
X121051733Y-101744968D01*
X121111286Y-101769079D01*
X121190008Y-101717948D01*
X121243903Y-101687943D01*
X121349107Y-101683426D01*
X121358977Y-101685221D01*
X121432642Y-101684419D01*
X121453692Y-101641623D01*
X121448338Y-101609224D01*
X121398754Y-101548474D01*
X121323740Y-101527595D01*
X121256758Y-101559845D01*
X121256150Y-101560138D01*
X121219905Y-101590225D01*
X121157212Y-101600717D01*
X121148278Y-101598160D01*
X121086566Y-101615844D01*
X121041843Y-101671070D01*
X119661987Y-101671070D01*
X119523766Y-101558953D01*
X120575138Y-101558953D01*
X120615737Y-101592052D01*
X120665003Y-101609426D01*
X120703813Y-101607398D01*
X120711231Y-101559845D01*
X120702321Y-101512725D01*
X120657572Y-101479842D01*
X120597430Y-101514328D01*
X120575138Y-101558953D01*
X119523766Y-101558953D01*
X119465269Y-101511503D01*
X119183627Y-101368471D01*
X118891955Y-101294431D01*
X118599428Y-101288532D01*
X118315221Y-101349924D01*
X118048508Y-101477754D01*
X117808464Y-101671171D01*
X117604265Y-101929325D01*
X117476250Y-102188402D01*
X117383916Y-102507087D01*
X117339526Y-102848518D01*
X115719883Y-102848518D01*
X115748620Y-102772993D01*
X115810861Y-102694374D01*
X115917644Y-102594752D01*
X116072807Y-102451187D01*
X116307380Y-102221409D01*
X116561927Y-101960699D01*
X116820841Y-101685703D01*
X117068512Y-101413069D01*
X117289332Y-101159447D01*
X117343005Y-101093856D01*
X120210143Y-101093856D01*
X120242308Y-101108154D01*
X120262995Y-101105334D01*
X120268359Y-101082103D01*
X120262631Y-101077426D01*
X120216256Y-101082103D01*
X120210143Y-101093856D01*
X117343005Y-101093856D01*
X117467692Y-100941483D01*
X117483677Y-100921294D01*
X117567352Y-100825474D01*
X117630024Y-100769800D01*
X117659167Y-100765769D01*
X117713637Y-100839207D01*
X117809769Y-100873094D01*
X117836719Y-100853369D01*
X118062349Y-100853369D01*
X118067026Y-100899744D01*
X118078779Y-100905857D01*
X118093077Y-100873692D01*
X118090257Y-100853005D01*
X118067026Y-100847641D01*
X118062349Y-100853369D01*
X117836719Y-100853369D01*
X117847256Y-100845657D01*
X117857277Y-100777535D01*
X117839484Y-100700662D01*
X117795849Y-100647066D01*
X117784590Y-100638309D01*
X117777149Y-100607794D01*
X117796970Y-100553602D01*
X117849352Y-100466322D01*
X117889922Y-100407976D01*
X120203231Y-100407976D01*
X120203298Y-100409337D01*
X120233052Y-100415503D01*
X120300621Y-100381835D01*
X120370094Y-100350133D01*
X120447434Y-100341482D01*
X120496826Y-100361509D01*
X120494832Y-100407157D01*
X120479171Y-100422912D01*
X120417058Y-100429295D01*
X120389037Y-100425482D01*
X120325904Y-100456826D01*
X120314919Y-100478149D01*
X120343967Y-100498422D01*
X120440278Y-100504238D01*
X120472866Y-100504107D01*
X120559320Y-100502118D01*
X120594000Y-100498494D01*
X120591722Y-100490436D01*
X120571405Y-100429883D01*
X120536875Y-100330840D01*
X120523998Y-100290748D01*
X120500156Y-100178640D01*
X120500749Y-100101235D01*
X120508699Y-100074925D01*
X120509827Y-100055323D01*
X120477778Y-100101923D01*
X120426724Y-100145437D01*
X120333501Y-100170308D01*
X120306939Y-100171023D01*
X120253188Y-100190267D01*
X120253620Y-100248423D01*
X120258856Y-100297880D01*
X120238639Y-100348421D01*
X120231468Y-100353635D01*
X120203231Y-100407976D01*
X117889922Y-100407976D01*
X117939592Y-100336544D01*
X118072991Y-100154858D01*
X118215766Y-99957691D01*
X118288461Y-99957691D01*
X118288842Y-99963154D01*
X118311462Y-99971759D01*
X118350808Y-99929809D01*
X118360316Y-99907971D01*
X118333576Y-99912576D01*
X118316217Y-99924639D01*
X118288461Y-99957691D01*
X118215766Y-99957691D01*
X118222730Y-99948074D01*
X118380844Y-99720923D01*
X118444769Y-99720923D01*
X118464308Y-99740462D01*
X118483846Y-99720923D01*
X118464308Y-99701385D01*
X118444769Y-99720923D01*
X118380844Y-99720923D01*
X118389846Y-99707991D01*
X118460978Y-99602162D01*
X119882772Y-99602162D01*
X119888173Y-99636419D01*
X119907179Y-99662958D01*
X119923006Y-99720923D01*
X119929692Y-99745415D01*
X119930330Y-99752596D01*
X119970172Y-99815499D01*
X120052927Y-99874369D01*
X120090494Y-99892495D01*
X120130663Y-99907971D01*
X120187847Y-99930003D01*
X120229391Y-99927617D01*
X120209651Y-99884967D01*
X120189967Y-99845243D01*
X120187199Y-99757967D01*
X120192934Y-99726978D01*
X120172279Y-99629508D01*
X120095260Y-99572675D01*
X119975930Y-99569045D01*
X119948675Y-99575015D01*
X119882772Y-99602162D01*
X118460978Y-99602162D01*
X118549891Y-99469880D01*
X118627125Y-99349692D01*
X119558461Y-99349692D01*
X119566482Y-99361387D01*
X119599845Y-99388769D01*
X119603744Y-99387753D01*
X119617077Y-99349692D01*
X119615487Y-99338982D01*
X119575694Y-99310616D01*
X119561560Y-99313684D01*
X119558461Y-99349692D01*
X118627125Y-99349692D01*
X118682436Y-99263619D01*
X118701505Y-99232929D01*
X118801130Y-99073466D01*
X118884399Y-98941596D01*
X118943077Y-98850288D01*
X118968927Y-98812509D01*
X118981337Y-98810529D01*
X119050298Y-98833420D01*
X119165025Y-98887857D01*
X119311881Y-98966151D01*
X119477225Y-99060618D01*
X119647420Y-99163570D01*
X119808826Y-99267321D01*
X119927012Y-99349692D01*
X119947805Y-99364184D01*
X120113713Y-99493506D01*
X120417502Y-99764038D01*
X120576486Y-99927617D01*
X120709898Y-100064886D01*
X120976372Y-100379540D01*
D13*
%TO.C,X1*%
X180405500Y-68946500D02*
X176087500Y-68946500D01*
X184977500Y-76693500D02*
X184977500Y-69581500D01*
X171642500Y-69581500D02*
X171642500Y-76693500D01*
X176087500Y-68946500D02*
X176087500Y-69454500D01*
X184850500Y-69581500D02*
X171642500Y-69581500D01*
X180405500Y-69454500D02*
X180405500Y-68946500D01*
X176087500Y-69327500D02*
X180405500Y-69327500D01*
X171642500Y-76693500D02*
X184977500Y-76693500D01*
X172836300Y-70419700D02*
G75*
G03*
X172836300Y-70419700I-254000J0D01*
G01*
D11*
%TO.C,D1*%
X163144200Y-91643200D02*
X162661600Y-91643200D01*
X165074600Y-91567000D02*
X165074600Y-92735400D01*
X163576000Y-92684600D02*
X163576000Y-91617800D01*
X163550600Y-92151200D02*
X162839400Y-92151200D01*
X165887400Y-91743200D02*
X165404800Y-91743200D01*
X165074600Y-92176600D02*
X165684200Y-92176600D01*
X165074600Y-92176600D02*
X163576000Y-92684600D01*
X159943800Y-93051200D02*
X159800000Y-93051200D01*
X162890200Y-91389200D02*
X162890200Y-91897200D01*
X163576000Y-91617800D02*
X165049200Y-92151200D01*
X159818658Y-91273435D02*
G75*
G03*
X157700000Y-91251200I-1068658J-877765D01*
G01*
X157681342Y-93028965D02*
G75*
G03*
X159800000Y-93051200I1068658J877764D01*
G01*
%TO.C,J1*%
X111730000Y-73310800D02*
G75*
G03*
X111730000Y-73310800I-1200000J0D01*
G01*
X111730000Y-76840000D02*
G75*
G03*
X111730000Y-76840000I-1200000J0D01*
G01*
%TO.C,kibuzzard-634AC743*%
G36*
X188755157Y-104912380D02*
G01*
X188728025Y-105095288D01*
X188683096Y-105274656D01*
X188620802Y-105448756D01*
X188541743Y-105615913D01*
X188446680Y-105774515D01*
X188336530Y-105923036D01*
X188212352Y-106060045D01*
X188075343Y-106184222D01*
X187926822Y-106294373D01*
X187768220Y-106389435D01*
X187601064Y-106468494D01*
X187426963Y-106530789D01*
X187247595Y-106575718D01*
X187064687Y-106602850D01*
X186880000Y-106611923D01*
X186695313Y-106602850D01*
X186512405Y-106575718D01*
X186333037Y-106530789D01*
X186158936Y-106468494D01*
X185991780Y-106389435D01*
X185833178Y-106294373D01*
X185684657Y-106184222D01*
X185547648Y-106060045D01*
X185423470Y-105923036D01*
X185313320Y-105774515D01*
X185218257Y-105615913D01*
X185139198Y-105448756D01*
X185076904Y-105274656D01*
X185031975Y-105095288D01*
X185004843Y-104912380D01*
X184995770Y-104727693D01*
X184995770Y-103503863D01*
X185991000Y-103503863D01*
X186019751Y-103716411D01*
X186106006Y-103892624D01*
X186249762Y-104032500D01*
X186394721Y-104112371D01*
X186570834Y-104169422D01*
X186778102Y-104203652D01*
X187016525Y-104215063D01*
X187254948Y-104203355D01*
X187462216Y-104168231D01*
X187638329Y-104109692D01*
X187783288Y-104027738D01*
X187927044Y-103886626D01*
X188013299Y-103713060D01*
X188042050Y-103507038D01*
X188013299Y-103294665D01*
X187927044Y-103118982D01*
X187783288Y-102979988D01*
X187638329Y-102900811D01*
X187462216Y-102844256D01*
X187254948Y-102810323D01*
X187016525Y-102799013D01*
X186778102Y-102810522D01*
X186570834Y-102845050D01*
X186394721Y-102902597D01*
X186249762Y-102983163D01*
X186106006Y-103122863D01*
X186019751Y-103296429D01*
X185991000Y-103503863D01*
X184995770Y-103503863D01*
X184995770Y-102567238D01*
X186032275Y-102567238D01*
X187997600Y-102567238D01*
X187997600Y-102252913D01*
X187851947Y-102164013D01*
X187694388Y-102075113D01*
X187531272Y-101987403D01*
X187368950Y-101902075D01*
X187209406Y-101821113D01*
X187054625Y-101746500D01*
X186911750Y-101680222D01*
X186787925Y-101624263D01*
X187997600Y-101624263D01*
X187997600Y-101271838D01*
X186032275Y-101271838D01*
X186032275Y-101586163D01*
X186250115Y-101677708D01*
X186467603Y-101774546D01*
X186684737Y-101876675D01*
X186901872Y-101984096D01*
X187119360Y-102096808D01*
X187337200Y-102214813D01*
X186032275Y-102214813D01*
X186032275Y-102567238D01*
X184995770Y-102567238D01*
X184995770Y-99389063D01*
X185508400Y-99389063D01*
X188251600Y-98500062D01*
X188251600Y-98100013D01*
X185508400Y-98982663D01*
X185508400Y-99389063D01*
X184995770Y-99389063D01*
X184995770Y-95566362D01*
X185991000Y-95566362D01*
X186019751Y-95778911D01*
X186106006Y-95955124D01*
X186249762Y-96095000D01*
X186394721Y-96174871D01*
X186570834Y-96231922D01*
X186778102Y-96266152D01*
X187016525Y-96277562D01*
X187254948Y-96265855D01*
X187462216Y-96230731D01*
X187638329Y-96172192D01*
X187783288Y-96090237D01*
X187927044Y-95949126D01*
X188013299Y-95775560D01*
X188042050Y-95569537D01*
X188013299Y-95357165D01*
X187927044Y-95181482D01*
X187783288Y-95042487D01*
X187638329Y-94963311D01*
X187462216Y-94906756D01*
X187254948Y-94872823D01*
X187016525Y-94861512D01*
X186778102Y-94873022D01*
X186570834Y-94907550D01*
X186394721Y-94965097D01*
X186249762Y-95045662D01*
X186106006Y-95185362D01*
X186019751Y-95358929D01*
X185991000Y-95566362D01*
X184995770Y-95566362D01*
X184995770Y-94575762D01*
X186032275Y-94575762D01*
X187997600Y-94575762D01*
X187997600Y-93372437D01*
X187673750Y-93372437D01*
X187673750Y-94185237D01*
X187197500Y-94185237D01*
X187197500Y-93474037D01*
X186873650Y-93474037D01*
X186873650Y-94185237D01*
X186032275Y-94185237D01*
X186032275Y-94575762D01*
X184995770Y-94575762D01*
X184995770Y-92988262D01*
X186032275Y-92988262D01*
X187997600Y-92988262D01*
X187997600Y-91784937D01*
X187673750Y-91784937D01*
X187673750Y-92597737D01*
X187197500Y-92597737D01*
X187197500Y-91886537D01*
X186873650Y-91886537D01*
X186873650Y-92597737D01*
X186032275Y-92597737D01*
X186032275Y-92988262D01*
X184995770Y-92988262D01*
X184995770Y-91272307D01*
X185004843Y-91087620D01*
X185031975Y-90904712D01*
X185076904Y-90725344D01*
X185139198Y-90551244D01*
X185218257Y-90384087D01*
X185313320Y-90225485D01*
X185423470Y-90076964D01*
X185547648Y-89939955D01*
X185684657Y-89815778D01*
X185833178Y-89705627D01*
X185991780Y-89610565D01*
X186158936Y-89531506D01*
X186333037Y-89469211D01*
X186512405Y-89424282D01*
X186695313Y-89397150D01*
X186880000Y-89388077D01*
X187064687Y-89397150D01*
X187247595Y-89424282D01*
X187426963Y-89469211D01*
X187601064Y-89531506D01*
X187768220Y-89610565D01*
X187926822Y-89705627D01*
X188075343Y-89815778D01*
X188212352Y-89939955D01*
X188336530Y-90076964D01*
X188446680Y-90225485D01*
X188541743Y-90384087D01*
X188620802Y-90551244D01*
X188683096Y-90725344D01*
X188728025Y-90904712D01*
X188755157Y-91087620D01*
X188764230Y-91272307D01*
X188764230Y-104727693D01*
X188755157Y-104912380D01*
G37*
G36*
X187155034Y-95261166D02*
G01*
X187284813Y-95269500D01*
X187502300Y-95313950D01*
X187648350Y-95407612D01*
X187702325Y-95569537D01*
X187648350Y-95731462D01*
X187500713Y-95825125D01*
X187283225Y-95869575D01*
X187154638Y-95877909D01*
X187016525Y-95880687D01*
X186878016Y-95877909D01*
X186748237Y-95869575D01*
X186530750Y-95825125D01*
X186384700Y-95731462D01*
X186330725Y-95569537D01*
X186384700Y-95409200D01*
X186532337Y-95313950D01*
X186749825Y-95269500D01*
X186878412Y-95261166D01*
X187016525Y-95258387D01*
X187155034Y-95261166D01*
G37*
G36*
X187155034Y-103198666D02*
G01*
X187284813Y-103207000D01*
X187502300Y-103251450D01*
X187648350Y-103345113D01*
X187702325Y-103507038D01*
X187648350Y-103668963D01*
X187500713Y-103762625D01*
X187283225Y-103807075D01*
X187154638Y-103815409D01*
X187016525Y-103818188D01*
X186878016Y-103815409D01*
X186748237Y-103807075D01*
X186530750Y-103762625D01*
X186384700Y-103668963D01*
X186330725Y-103507038D01*
X186384700Y-103346700D01*
X186532337Y-103251450D01*
X186749825Y-103207000D01*
X186878412Y-103198666D01*
X187016525Y-103195888D01*
X187155034Y-103198666D01*
G37*
%TO.C,SW1*%
X190505200Y-99342400D02*
X190505200Y-99542400D01*
X193708000Y-96755800D02*
X193708000Y-97655800D01*
X193355200Y-95092400D02*
X193355200Y-100792400D01*
X193377800Y-96540900D02*
X193506200Y-96543900D01*
X192345200Y-101392400D02*
X191555200Y-101392400D01*
X193501400Y-97864600D02*
X193377800Y-97866200D01*
X190505200Y-96342400D02*
X190505200Y-98042400D01*
X193501400Y-97864600D02*
X193711400Y-97664600D01*
X193506200Y-96543900D02*
X193708000Y-96723200D01*
X191555200Y-94492400D02*
X192345200Y-94492400D01*
%TO.C,C1*%
X151763800Y-80801978D02*
X151763800Y-80284822D01*
X150343800Y-80801978D02*
X150343800Y-80284822D01*
D14*
%TO.C,IC1*%
X141138600Y-66191900D02*
X141438600Y-66191900D01*
X146338600Y-66191900D02*
X146338600Y-66491900D01*
X146098600Y-70131900D02*
X146098600Y-71901900D01*
X146288600Y-69741900D02*
X146288600Y-69941900D01*
X141138600Y-70391900D02*
X141438600Y-70391900D01*
X146288600Y-69941900D02*
X146098600Y-70131900D01*
X146038600Y-66191900D02*
X146338600Y-66191900D01*
X141138600Y-70091900D02*
X141138600Y-70391900D01*
X141138600Y-66191900D02*
X141138600Y-66491900D01*
D15*
X145900200Y-72914700D02*
G75*
G03*
X145900200Y-72914700I-155000J0D01*
G01*
D11*
%TO.C,R2*%
X139298000Y-80474736D02*
X139298000Y-81678864D01*
X141118000Y-80474736D02*
X141118000Y-81678864D01*
%TO.C,R1*%
X146528200Y-80350736D02*
X146528200Y-81554864D01*
X144708200Y-80350736D02*
X144708200Y-81554864D01*
%TO.C,R3*%
X135936400Y-80249136D02*
X135936400Y-81453264D01*
X134116400Y-80249136D02*
X134116400Y-81453264D01*
%TO.C,R4*%
X130653200Y-80525536D02*
X130653200Y-81729664D01*
X128833200Y-80525536D02*
X128833200Y-81729664D01*
%TO.C,kibuzzard-634AC14A*%
G36*
X173171108Y-60600936D02*
G01*
X173264472Y-60697318D01*
X173299831Y-60807348D01*
X173288370Y-60923354D01*
X173243096Y-61035064D01*
X172754144Y-60692697D01*
X172833619Y-60606872D01*
X172932597Y-60554084D01*
X173046394Y-60546557D01*
X173171108Y-60600936D01*
G37*
G36*
X168847038Y-58257298D02*
G01*
X168930395Y-58309851D01*
X169022072Y-58383734D01*
X169088518Y-58463206D01*
X169113476Y-58546573D01*
X169081471Y-58636566D01*
X168936191Y-58711196D01*
X168750356Y-58633398D01*
X168649835Y-58561074D01*
X168568561Y-58494476D01*
X168765241Y-58213589D01*
X168847038Y-58257298D01*
G37*
G36*
X174707542Y-61156412D02*
G01*
X174833099Y-61222041D01*
X174876402Y-61254301D01*
X174923866Y-61297225D01*
X174585140Y-61780975D01*
X174514918Y-61731805D01*
X174384978Y-61617081D01*
X174322862Y-61502365D01*
X174376606Y-61270618D01*
X174473509Y-61173742D01*
X174585750Y-61137993D01*
X174707542Y-61156412D01*
G37*
G36*
X168418426Y-55909568D02*
G01*
X168565839Y-55934732D01*
X168710075Y-55974225D01*
X168849746Y-56027665D01*
X168983507Y-56094537D01*
X169110068Y-56174199D01*
X169529990Y-56468231D01*
X175738119Y-60815210D01*
X176158041Y-61109242D01*
X176276185Y-61200925D01*
X176384774Y-61303748D01*
X176482760Y-61416718D01*
X176569203Y-61538748D01*
X176643268Y-61668664D01*
X176704243Y-61805214D01*
X176751540Y-61947083D01*
X176784703Y-62092905D01*
X176803413Y-62241275D01*
X176807491Y-62390764D01*
X176796897Y-62539934D01*
X176771732Y-62687347D01*
X176732239Y-62831584D01*
X176678800Y-62971254D01*
X176611927Y-63105015D01*
X176532265Y-63231576D01*
X176440583Y-63349720D01*
X176337761Y-63458309D01*
X176224790Y-63556296D01*
X176102760Y-63642739D01*
X175972844Y-63716804D01*
X175836293Y-63777778D01*
X175694425Y-63825074D01*
X175548603Y-63858238D01*
X175400232Y-63876949D01*
X175250743Y-63881027D01*
X175101574Y-63870432D01*
X174954161Y-63845268D01*
X174809925Y-63805775D01*
X174670254Y-63752335D01*
X174536493Y-63685463D01*
X174409932Y-63605801D01*
X173990010Y-63311769D01*
X172218089Y-62071057D01*
X173172723Y-62071057D01*
X173508227Y-62305980D01*
X173680140Y-62198157D01*
X173857708Y-62103015D01*
X174041712Y-62015287D01*
X174232936Y-61929706D01*
X174399388Y-62046257D01*
X173984175Y-62639242D01*
X174304074Y-62863238D01*
X175414949Y-61276745D01*
X175325875Y-61185305D01*
X175221846Y-61093083D01*
X175117165Y-61010094D01*
X175027957Y-60943755D01*
X174891153Y-60859591D01*
X174756427Y-60800138D01*
X174624622Y-60766957D01*
X174496586Y-60761607D01*
X174257407Y-60840255D01*
X174148963Y-60926628D01*
X174049684Y-61045580D01*
X173970201Y-61189538D01*
X173928434Y-61340524D01*
X173933938Y-61494572D01*
X173996278Y-61647719D01*
X173797936Y-61731706D01*
X173581513Y-61835978D01*
X173366128Y-61952605D01*
X173172723Y-62071057D01*
X172218089Y-62071057D01*
X170994612Y-61214369D01*
X172032277Y-61214369D01*
X172175442Y-61386319D01*
X172372448Y-61553335D01*
X172527427Y-61646831D01*
X172680262Y-61708790D01*
X172829754Y-61738853D01*
X172974699Y-61736663D01*
X173113892Y-61701860D01*
X173246134Y-61634089D01*
X173370024Y-61531884D01*
X173484164Y-61393784D01*
X173577889Y-61233636D01*
X173633250Y-61075694D01*
X173654567Y-60923471D01*
X173646166Y-60780476D01*
X173609997Y-60648077D01*
X173548012Y-60527639D01*
X173464532Y-60422674D01*
X173363883Y-60336695D01*
X173185564Y-60238321D01*
X173011255Y-60195727D01*
X172840957Y-60208911D01*
X172676835Y-60277238D01*
X172521058Y-60400073D01*
X172373625Y-60577417D01*
X172329397Y-60643347D01*
X172295056Y-60700696D01*
X173088302Y-61256133D01*
X172988701Y-61345790D01*
X172857441Y-61375489D01*
X172708111Y-61347962D01*
X172554303Y-61265943D01*
X172385514Y-61116748D01*
X172267707Y-60972243D01*
X172032277Y-61214369D01*
X170994612Y-61214369D01*
X170116637Y-60599604D01*
X171071269Y-60599604D01*
X171339153Y-60787178D01*
X171531835Y-60678986D01*
X171737726Y-60553773D01*
X171956828Y-60411540D01*
X172127937Y-60294313D01*
X172302706Y-60168747D01*
X172481132Y-60034842D01*
X172663219Y-59892597D01*
X172327715Y-59657674D01*
X172230552Y-59741772D01*
X172124287Y-59829185D01*
X172012267Y-59917899D01*
X171897841Y-60005897D01*
X171783024Y-60091683D01*
X171669833Y-60173764D01*
X171461729Y-60318744D01*
X171522887Y-60070871D01*
X171557404Y-59933702D01*
X171594846Y-59793738D01*
X171634174Y-59653155D01*
X171674348Y-59514134D01*
X171716243Y-59381649D01*
X171760738Y-59260673D01*
X171435637Y-59033034D01*
X171364979Y-59253303D01*
X171302369Y-59468304D01*
X171247807Y-59678040D01*
X171201293Y-59882509D01*
X171149077Y-60141597D01*
X171105736Y-60380628D01*
X171071269Y-60599604D01*
X170116637Y-60599604D01*
X168394902Y-59394032D01*
X169349535Y-59394032D01*
X170327438Y-60078768D01*
X170513191Y-59813485D01*
X170175086Y-59576742D01*
X170805189Y-58676861D01*
X170906991Y-58885741D01*
X171021024Y-59060548D01*
X171310809Y-58868110D01*
X171217452Y-58713594D01*
X171128261Y-58530987D01*
X171055978Y-58340839D01*
X171015167Y-58161100D01*
X170796699Y-58008127D01*
X169855187Y-59352746D01*
X169535287Y-59128750D01*
X169349535Y-59394032D01*
X168394902Y-59394032D01*
X167781881Y-58964790D01*
X167361959Y-58670758D01*
X167243815Y-58579075D01*
X167147264Y-58487651D01*
X168115978Y-58487651D01*
X168298547Y-58669750D01*
X168433916Y-58787792D01*
X168593474Y-58907268D01*
X168820009Y-59034882D01*
X169030819Y-59079779D01*
X169222264Y-59027785D01*
X169390705Y-58864722D01*
X169474749Y-58656128D01*
X169444864Y-58460785D01*
X169328231Y-58284156D01*
X169152030Y-58131710D01*
X169030702Y-58054507D01*
X168916392Y-57997722D01*
X168943709Y-57958710D01*
X169107462Y-57846627D01*
X169217583Y-57855421D01*
X169347919Y-57923911D01*
X169514369Y-58059840D01*
X169629057Y-58186658D01*
X169853561Y-57960136D01*
X169710914Y-57804053D01*
X169608607Y-57713522D01*
X169496481Y-57628711D01*
X169352167Y-57540744D01*
X169220918Y-57488086D01*
X168991766Y-57474919D01*
X168796673Y-57570871D01*
X168625887Y-57759424D01*
X168115978Y-58487651D01*
X167147264Y-58487651D01*
X167135226Y-58476252D01*
X167037240Y-58363282D01*
X166950797Y-58241252D01*
X166876732Y-58111336D01*
X166815757Y-57974786D01*
X166768460Y-57832917D01*
X166735297Y-57687095D01*
X166716587Y-57538725D01*
X166712509Y-57389236D01*
X166723103Y-57240066D01*
X166748268Y-57092653D01*
X166787761Y-56948416D01*
X166841200Y-56808746D01*
X166908073Y-56674985D01*
X166987735Y-56548424D01*
X167079417Y-56430280D01*
X167182239Y-56321691D01*
X167295210Y-56223704D01*
X167417240Y-56137261D01*
X167547156Y-56063196D01*
X167683707Y-56002222D01*
X167825575Y-55954926D01*
X167971397Y-55921762D01*
X168119768Y-55903051D01*
X168269257Y-55898973D01*
X168418426Y-55909568D01*
G37*
%TD*%
M02*
