%TF.GenerationSoftware,KiCad,Pcbnew,(6.0.7)*%
%TF.CreationDate,2022-10-15T16:11:04-05:00*%
%TF.ProjectId,Hackfest 2022 Badge,4861636b-6665-4737-9420-323032322042,Rev0*%
%TF.SameCoordinates,Original*%
%TF.FileFunction,Soldermask,Bot*%
%TF.FilePolarity,Negative*%
%FSLAX46Y46*%
G04 Gerber Fmt 4.6, Leading zero omitted, Abs format (unit mm)*
G04 Created by KiCad (PCBNEW (6.0.7)) date 2022-10-15 16:11:04*
%MOMM*%
%LPD*%
G01*
G04 APERTURE LIST*
G04 Aperture macros list*
%AMRoundRect*
0 Rectangle with rounded corners*
0 $1 Rounding radius*
0 $2 $3 $4 $5 $6 $7 $8 $9 X,Y pos of 4 corners*
0 Add a 4 corners polygon primitive as box body*
4,1,4,$2,$3,$4,$5,$6,$7,$8,$9,$2,$3,0*
0 Add four circle primitives for the rounded corners*
1,1,$1+$1,$2,$3*
1,1,$1+$1,$4,$5*
1,1,$1+$1,$6,$7*
1,1,$1+$1,$8,$9*
0 Add four rect primitives between the rounded corners*
20,1,$1+$1,$2,$3,$4,$5,0*
20,1,$1+$1,$4,$5,$6,$7,0*
20,1,$1+$1,$6,$7,$8,$9,0*
20,1,$1+$1,$8,$9,$2,$3,0*%
G04 Aperture macros list end*
%ADD10C,1.152495*%
%ADD11C,0.100000*%
%ADD12C,16.859512*%
%ADD13RoundRect,0.200000X1.954300X2.761600X-1.954300X2.761600X-1.954300X-2.761600X1.954300X-2.761600X0*%
%ADD14RoundRect,0.200000X1.928900X2.736200X-1.928900X2.736200X-1.928900X-2.736200X1.928900X-2.736200X0*%
%ADD15R,1.955800X2.463800*%
%ADD16R,1.930400X2.438400*%
%ADD17C,6.400000*%
%ADD18O,2.127200X2.127200*%
%ADD19RoundRect,0.200000X-0.863600X0.863600X-0.863600X-0.863600X0.863600X-0.863600X0.863600X0.863600X0*%
%ADD20C,2.127200*%
%ADD21C,2.000000*%
%ADD22C,2.400000*%
%ADD23RoundRect,0.200000X-0.400000X0.500000X-0.400000X-0.500000X0.400000X-0.500000X0.400000X0.500000X0*%
%ADD24C,1.300000*%
%ADD25RoundRect,0.200000X-0.750000X0.350000X-0.750000X-0.350000X0.750000X-0.350000X0.750000X0.350000X0*%
%ADD26RoundRect,0.443750X0.456250X-0.243750X0.456250X0.243750X-0.456250X0.243750X-0.456250X-0.243750X0*%
%ADD27RoundRect,0.070000X0.325000X0.875000X-0.325000X0.875000X-0.325000X-0.875000X0.325000X-0.875000X0*%
%ADD28RoundRect,0.450000X-0.625000X0.375000X-0.625000X-0.375000X0.625000X-0.375000X0.625000X0.375000X0*%
G04 APERTURE END LIST*
%TO.C,D4*%
D10*
X179436247Y-138515800D02*
G75*
G03*
X179436247Y-138515800I-576247J0D01*
G01*
G36*
X177539200Y-139760400D02*
G01*
X175558000Y-139760400D01*
X175558000Y-137271200D01*
X177539200Y-137271200D01*
X177539200Y-139760400D01*
G37*
D11*
X177539200Y-139760400D02*
X175558000Y-139760400D01*
X175558000Y-137271200D01*
X177539200Y-137271200D01*
X177539200Y-139760400D01*
G36*
X182111200Y-139735000D02*
G01*
X180180800Y-139735000D01*
X180180800Y-137296600D01*
X182111200Y-137296600D01*
X182111200Y-139735000D01*
G37*
X182111200Y-139735000D02*
X180180800Y-139735000D01*
X180180800Y-137296600D01*
X182111200Y-137296600D01*
X182111200Y-139735000D01*
%TO.C,D3*%
D10*
X181776247Y-127574700D02*
G75*
G03*
X181776247Y-127574700I-576247J0D01*
G01*
G36*
X184451200Y-128793900D02*
G01*
X182520800Y-128793900D01*
X182520800Y-126355500D01*
X184451200Y-126355500D01*
X184451200Y-128793900D01*
G37*
D11*
X184451200Y-128793900D02*
X182520800Y-128793900D01*
X182520800Y-126355500D01*
X184451200Y-126355500D01*
X184451200Y-128793900D01*
G36*
X179879200Y-128819300D02*
G01*
X177898000Y-128819300D01*
X177898000Y-126330100D01*
X179879200Y-126330100D01*
X179879200Y-128819300D01*
G37*
X179879200Y-128819300D02*
X177898000Y-128819300D01*
X177898000Y-126330100D01*
X179879200Y-126330100D01*
X179879200Y-128819300D01*
%TO.C,D2*%
D10*
X135551847Y-105283000D02*
G75*
G03*
X135551847Y-105283000I-576247J0D01*
G01*
G36*
X133654800Y-106527600D02*
G01*
X131673600Y-106527600D01*
X131673600Y-104038400D01*
X133654800Y-104038400D01*
X133654800Y-106527600D01*
G37*
D11*
X133654800Y-106527600D02*
X131673600Y-106527600D01*
X131673600Y-104038400D01*
X133654800Y-104038400D01*
X133654800Y-106527600D01*
G36*
X138226800Y-106502200D02*
G01*
X136296400Y-106502200D01*
X136296400Y-104063800D01*
X138226800Y-104063800D01*
X138226800Y-106502200D01*
G37*
X138226800Y-106502200D02*
X136296400Y-106502200D01*
X136296400Y-104063800D01*
X138226800Y-104063800D01*
X138226800Y-106502200D01*
%TO.C,D1*%
D10*
X159326247Y-92151200D02*
G75*
G03*
X159326247Y-92151200I-576247J0D01*
G01*
G36*
X162001200Y-93370400D02*
G01*
X160070800Y-93370400D01*
X160070800Y-90932000D01*
X162001200Y-90932000D01*
X162001200Y-93370400D01*
G37*
D11*
X162001200Y-93370400D02*
X160070800Y-93370400D01*
X160070800Y-90932000D01*
X162001200Y-90932000D01*
X162001200Y-93370400D01*
G36*
X157429200Y-93395800D02*
G01*
X155448000Y-93395800D01*
X155448000Y-90906600D01*
X157429200Y-90906600D01*
X157429200Y-93395800D01*
G37*
X157429200Y-93395800D02*
X155448000Y-93395800D01*
X155448000Y-90906600D01*
X157429200Y-90906600D01*
X157429200Y-93395800D01*
%TD*%
D12*
%TO.C,BT2*%
X130680000Y-128030000D03*
D13*
X118775000Y-128030000D03*
D14*
X142585000Y-128030000D03*
%TD*%
%TO.C,BT1*%
X171275000Y-128030000D03*
D13*
X147465000Y-128030000D03*
D12*
X159370000Y-128030000D03*
%TD*%
D15*
%TO.C,D4*%
X176574000Y-138515800D03*
D16*
X181146000Y-138515800D03*
%TD*%
%TO.C,D3*%
X183486000Y-127574700D03*
D15*
X178914000Y-127574700D03*
%TD*%
D17*
%TO.C,REF\u002A\u002A*%
X144430000Y-52360000D03*
%TD*%
D16*
%TO.C,D2*%
X137261600Y-105283000D03*
D15*
X132689600Y-105283000D03*
%TD*%
D18*
%TO.C,X1*%
X175842700Y-71963700D03*
D19*
X175842700Y-74503700D03*
D18*
X178382700Y-71963700D03*
X178382700Y-74503700D03*
D20*
X180922700Y-71963700D03*
X180922700Y-74503700D03*
%TD*%
D16*
%TO.C,D1*%
X161036000Y-92151200D03*
D15*
X156464000Y-92151200D03*
%TD*%
D21*
%TO.C,REF\u002A\u002A*%
X149320000Y-50370000D03*
%TD*%
D22*
%TO.C,J1*%
X110530000Y-76840000D03*
X110530000Y-73310800D03*
%TD*%
D23*
%TO.C,SW1*%
X190845200Y-101592400D03*
D24*
X191955200Y-99442400D03*
D23*
X193055200Y-101592400D03*
X190845200Y-94292400D03*
D24*
X191955200Y-96442400D03*
D23*
X193055200Y-94292400D03*
D25*
X190195200Y-95692400D03*
X190195200Y-98692400D03*
X190195200Y-100192400D03*
%TD*%
D26*
%TO.C,C1*%
X151053800Y-81480900D03*
X151053800Y-79605900D03*
%TD*%
D27*
%TO.C,IC1*%
X145643600Y-71041900D03*
X144373600Y-71041900D03*
X143103600Y-71041900D03*
X141833600Y-71041900D03*
X141833600Y-65541900D03*
X143103600Y-65541900D03*
X144373600Y-65541900D03*
X145643600Y-65541900D03*
%TD*%
D28*
%TO.C,R2*%
X140208000Y-79676800D03*
X140208000Y-82476800D03*
%TD*%
D21*
%TO.C,REF\u002A\u002A*%
X96820000Y-70930000D03*
%TD*%
D28*
%TO.C,R1*%
X145618200Y-79552800D03*
X145618200Y-82352800D03*
%TD*%
D21*
%TO.C,REF\u002A\u002A*%
X185520000Y-145290000D03*
%TD*%
D28*
%TO.C,R3*%
X135026400Y-79451200D03*
X135026400Y-82251200D03*
%TD*%
%TO.C,R4*%
X129743200Y-79727600D03*
X129743200Y-82527600D03*
%TD*%
M02*
